SplineFontDB: 3.2
FontName: Swanston
FullName: Swanston
FamilyName: Swanston
Weight: Regular
Copyright: Copyright (c) 2023 Liam Whitelaw
UComments: "2023-4-7: Created with FontForge (http://fontforge.org)"
Version: 001.000
ItalicAngle: 0
UnderlinePosition: -2
UnderlineWidth: 0
Ascent: 26
Descent: 6
InvalidEm: 0
LayerCount: 2
Layer: 0 0 "Back" 1
Layer: 1 0 "Fore" 0
XUID: [1021 819 1899051707 1393]
StyleMap: 0x0000
FSType: 0
OS2Version: 0
OS2_WeightWidthSlopeOnly: 0
OS2_UseTypoMetrics: 1
CreationTime: 1680916401
ModificationTime: 1683390855
PfmFamily: 49
TTFWeight: 400
TTFWidth: 5
LineGap: 2
VLineGap: 0
Panose: 2 0 5 9 0 0 0 0 0 0
OS2TypoAscent: 0
OS2TypoAOffset: 1
OS2TypoDescent: 0
OS2TypoDOffset: 1
OS2TypoLinegap: 2
OS2WinAscent: 0
OS2WinAOffset: 1
OS2WinDescent: 0
OS2WinDOffset: 1
HheadAscent: 0
HheadAOffset: 1
HheadDescent: 0
HheadDOffset: 1
OS2CapHeight: 20
OS2XHeight: 14
OS2Vendor: 'PfEd'
OS2CodePages: 00000011.00000000
MarkAttachClasses: 1
DEI: 91125
LangName: 1033
GaspTable: 2 24 1 65535 2 0
Encoding: UnicodeBmp
UnicodeInterp: none
NameList: AGL For New Fonts
DisplaySize: -48
AntiAlias: 1
FitToEm: 0
WinInfo: 896 32 8
BeginPrivate: 5
BlueValues 17 [0 0 14 14 20 20]
StdHW 3 [2]
StdVW 3 [4]
StemSnapH 5 [2 4]
StemSnapV 5 [2 4]
EndPrivate
Grid
0 20 m 25
 16 20 l 1049
0 14 m 25
 16 14 l 1049
EndSplineSet
TeXData: 1 0 0 346030 173015 115343 0 1048576 115343 783286 444596 497025 792723 393216 433062 380633 303038 157286 324010 404750 52429 2506097 1059062 262144
AnchorClass2: "bottom"""  "top""" 
BeginChars: 65536 695

StartChar: exclam
Encoding: 33 33 0
Width: 16
VWidth: 24
Flags: MW
HStem: 0 4<6 10>
VStem: 6 4<0 4 8 20>
LayerCount: 2
Fore
SplineSet
6 20 m 29
 10 20 l 29
 10 8 l 29
 6 8 l 29
 6 20 l 29
6 4 m 29
 10 4 l 29
 10 0 l 29
 6 0 l 29
 6 4 l 29
EndSplineSet
Validated: 1
EndChar

StartChar: quotedbl
Encoding: 34 34 1
Width: 16
VWidth: 24
Flags: W
HStem: 14 6<2 6 8 12>
VStem: 2 4<14 20> 8 4<14 20>
LayerCount: 2
Fore
SplineSet
8 20 m 25
 12 20 l 25
 12 14 l 25
 8 14 l 25
 8 20 l 25
2 20 m 25
 6 20 l 25
 6 14 l 25
 2 14 l 25
 2 20 l 25
EndSplineSet
Validated: 1
EndChar

StartChar: numbersign
Encoding: 35 35 2
Width: 16
VWidth: 24
Flags: MW
HStem: 4 2<0 2 6 8 12 14> 14 2<0 2 6 8 12 14>
VStem: 2 4<0 4 6 14 16 20> 8 4<0 4 6 14 16 20>
LayerCount: 2
Fore
SplineSet
8 14 m 25
 6 14 l 25
 6 6 l 25
 8 6 l 25
 8 14 l 25
2 20 m 25
 6 20 l 25
 6 16 l 25
 8 16 l 25
 8 20 l 25
 12 20 l 25
 12 16 l 25
 14 16 l 25
 14 14 l 25
 12 14 l 1
 12 6 l 1
 14 6 l 1
 14 4 l 1
 12 4 l 1
 12 0 l 1
 8 0 l 1
 8 4 l 1
 6 4 l 1
 6 0 l 1
 2 0 l 1
 2 4 l 1
 0 4 l 1
 0 6 l 1
 2 6 l 1
 2 14 l 1
 0 14 l 25
 0 16 l 25
 2 16 l 25
 2 20 l 25
EndSplineSet
Validated: 1
EndChar

StartChar: dollar
Encoding: 36 36 3
Width: 16
VWidth: 24
Flags: MW
HStem: 2 2<4 6 8 10> 8 4<4 6 8 10> 16 2<4 6 8 10>
VStem: 0 4<5 6 12 15> 6 2<0 2 4 8 12 16 18 20> 10 4<5 8 14 15>
CounterMasks: 1 fc
LayerCount: 2
Fore
SplineSet
14 14 m 1
 10 14 l 1
 10 16 l 1
 8 16 l 1
 8 12 l 1
 11 12 l 1
 14 9 l 1
 14 5 l 1
 11 2 l 1
 8 2 l 1
 8 0 l 1
 6 0 l 1
 6 2 l 1
 3 2 l 1
 0 5 l 1
 0 6 l 1
 4 6 l 1
 4 4 l 1
 6 4 l 1
 6 8 l 1
 3 8 l 1
 0 11 l 1
 0 15 l 1
 3 18 l 1
 6 18 l 1
 6 20 l 1
 8 20 l 1
 8 18 l 1
 11 18 l 1
 14 15 l 1
 14 14 l 1
8 8 m 1
 8 4 l 1
 10 4 l 1
 10 8 l 1
 8 8 l 1
6 12 m 1
 6 16 l 1
 4 16 l 1
 4 12 l 1
 6 12 l 1
EndSplineSet
Validated: 1
EndChar

StartChar: percent
Encoding: 37 37 5
Width: 16
Flags: W
HStem: 0 2<10 12> 4 2<10 12> 14 2<2 4> 18 2<2 4>
VStem: 0 2<16 18> 4 2<16 18> 8 2<2 4> 12 2<2 4>
LayerCount: 2
Fore
SplineSet
12 4 m 29
 10 4 l 29
 10 2 l 29
 12 2 l 29
 12 4 l 29
4 18 m 29
 2 18 l 29
 2 16 l 29
 4 16 l 29
 4 18 l 29
8 4 m 21
 10 6 l 5
 12 6 l 21
 14 4 l 5
 14 2 l 5
 12 0 l 13
 10 0 l 5
 8 2 l 5
 8 4 l 21
0 18 m 29
 2 20 l 5
 4 20 l 29
 6 18 l 5
 6 16 l 5
 4 14 l 29
 2 14 l 21
 0 16 l 5
 0 18 l 29
10 20 m 29
 14 20 l 29
 4 0 l 29
 0 0 l 29
 10 20 l 29
EndSplineSet
Validated: 1
EndChar

StartChar: ampersand
Encoding: 38 38 6
Width: 16
Flags: W
HStem: 0 2<4 8 12 14> 12 2<4 8 12 14>
VStem: 0 4<3 11 15 17> 8 4<3 12 14 16>
LayerCount: 2
Fore
SplineSet
3 20 m 1
 8 20 l 1
 8 18 l 25
 4 18 l 25
 4 14 l 25
 8 14 l 1
 8 16 l 1
 12 16 l 1
 12 14 l 1
 14 14 l 25
 14 12 l 25
 12 12 l 1
 12 2 l 1
 14 2 l 1
 14 0 l 1
 11 0 l 1
 8 3 l 1
 8 12 l 1
 4 12 l 1
 4 2 l 25
 8 2 l 1
 8 0 l 1
 3 0 l 1
 0 3 l 1
 0 11 l 1
 2 13 l 1
 0 15 l 1
 0 17 l 1
 3 20 l 1
EndSplineSet
Validated: 1
EndChar

StartChar: parenleft
Encoding: 40 40 7
Width: 16
Flags: MW
VStem: 0 4<8 12>
LayerCount: 2
Fore
SplineSet
6 20 m 1
 10 20 l 1
 6 16 l 1
 4 12 l 1
 4 8 l 1
 6 4 l 1
 10 0 l 1
 6 0 l 1
 2 4 l 1
 0 8 l 1
 0 12 l 1
 2 16 l 1
 6 20 l 1
EndSplineSet
Validated: 1
EndChar

StartChar: parenright
Encoding: 41 41 8
Width: 16
Flags: MW
VStem: 10 4<8 12>
LayerCount: 2
Fore
SplineSet
8 20 m 1
 12 16 l 1
 14 12 l 1
 14 8 l 1
 12 4 l 1
 8 0 l 1
 4 0 l 1
 8 4 l 1
 10 8 l 1
 10 12 l 1
 8 16 l 1
 4 20 l 1
 8 20 l 1
EndSplineSet
Validated: 1
EndChar

StartChar: asterisk
Encoding: 42 42 9
Width: 16
Flags: MW
HStem: 8 4<0 4 10 14>
LayerCount: 2
Fore
SplineSet
0 16 m 1
 4 16 l 1
 6 14 l 1
 8 14 l 1
 10 16 l 1
 14 16 l 1
 10 12 l 5
 14 12 l 1
 14 8 l 1
 10 8 l 1
 14 4 l 1
 10 4 l 1
 8 6 l 1
 6 6 l 1
 4 4 l 1
 0 4 l 1
 4 8 l 1
 0 8 l 1
 0 12 l 1
 4 12 l 5
 0 16 l 1
EndSplineSet
Validated: 1
EndChar

StartChar: plus
Encoding: 43 43 10
Width: 16
Flags: W
HStem: 8 4<2 6 10 14>
VStem: 6 4<4 8 12 16>
LayerCount: 2
Fore
SplineSet
6 16 m 29
 10 16 l 29
 10 12 l 29
 14 12 l 29
 14 8 l 29
 10 8 l 29
 10 4 l 29
 6 4 l 29
 6 8 l 29
 2 8 l 29
 2 12 l 29
 6 12 l 29
 6 16 l 29
EndSplineSet
Validated: 1
EndChar

StartChar: comma
Encoding: 44 44 11
Width: 16
Flags: W
HStem: -2 6<6 8>
VStem: 6 4<2 4>
LayerCount: 2
Fore
SplineSet
6 4 m 5
 10 4 l 5
 10 2 l 29
 8 -2 l 5
 4 -2 l 5
 6 2 l 29
 6 4 l 5
EndSplineSet
Validated: 1
EndChar

StartChar: hyphen
Encoding: 45 45 12
Width: 16
Flags: W
HStem: 8 4<2 14>
LayerCount: 2
Fore
SplineSet
2 12 m 29
 14 12 l 29
 14 8 l 29
 2 8 l 29
 2 12 l 29
EndSplineSet
Validated: 1
EndChar

StartChar: period
Encoding: 46 46 13
Width: 16
Flags: W
HStem: 0 4<6 10>
VStem: 6 4<0 4>
LayerCount: 2
Fore
SplineSet
6 4 m 25
 10 4 l 25
 10 0 l 25
 6 0 l 25
 6 4 l 25
EndSplineSet
Validated: 1
EndChar

StartChar: slash
Encoding: 47 47 14
Width: 16
Flags: MW
LayerCount: 2
Fore
SplineSet
10 20 m 25
 14 20 l 25
 4 0 l 1
 0 0 l 1
 10 20 l 25
EndSplineSet
Validated: 1
EndChar

StartChar: zero
Encoding: 48 48 15
Width: 16
Flags: W
HStem: 0 2<4 10> 18 2<4 10>
VStem: 0 4<3 5 9 17> 10 4<3 11 15 17>
LayerCount: 2
Fore
SplineSet
10 11 m 1
 4 5 l 1
 4 2 l 1
 10 2 l 1
 10 11 l 1
10 18 m 1
 4 18 l 1
 4 9 l 1
 10 15 l 1
 10 18 l 1
3 20 m 1
 11 20 l 1
 14 17 l 1
 14 3 l 1
 11 0 l 1
 3 0 l 1
 0 3 l 1
 0 17 l 1
 3 20 l 1
EndSplineSet
Validated: 1
EndChar

StartChar: one
Encoding: 49 49 16
Width: 16
Flags: MW
HStem: 0 2<2 6 10 14>
VStem: 6 4<2 14>
LayerCount: 2
Fore
SplineSet
2 0 m 25
 2 2 l 1
 6 2 l 1
 6 14 l 1
 2 14 l 1
 2 15 l 1
 7 20 l 1
 10 20 l 1
 10 2 l 25
 14 2 l 25
 14 0 l 25
 2 0 l 25
EndSplineSet
Validated: 1
EndChar

StartChar: two
Encoding: 50 50 17
Width: 16
Flags: MW
HStem: 0 2<4 14> 18 2<4 10>
VStem: 0 4<14 17> 10 4<12 17>
LayerCount: 2
Fore
SplineSet
0 17 m 1
 3 20 l 1
 11 20 l 1
 14 17 l 1
 14 12 l 1
 4 2 l 1
 14 2 l 1
 14 0 l 25
 0 0 l 1
 0 2 l 1
 10 12 l 1
 10 18 l 1
 4 18 l 1
 4 14 l 1
 0 14 l 1
 0 17 l 1
EndSplineSet
Validated: 1
EndChar

StartChar: three
Encoding: 51 51 18
Width: 16
Flags: MW
HStem: 0 2<4 10> 10 2<6 10> 18 2<4 10>
VStem: 0 4<3 6 14 17> 10 4<3 9 13 17>
LayerCount: 2
Fore
SplineSet
0 17 m 1
 3 20 l 1
 11 20 l 1
 14 17 l 1
 14 13 l 1
 12 11 l 1
 14 9 l 1
 14 3 l 1
 11 0 l 1
 3 0 l 1
 0 3 l 1
 0 6 l 1
 4 6 l 1
 4 2 l 1
 10 2 l 1
 10 10 l 1
 6 10 l 1
 6 12 l 1
 10 12 l 1
 10 18 l 1
 4 18 l 1
 4 14 l 1
 0 14 l 1
 0 17 l 1
EndSplineSet
Validated: 1
EndChar

StartChar: four
Encoding: 52 52 19
Width: 16
Flags: MW
HStem: 4 2<4 8 12 14>
VStem: 8 4<0 4 6 14>
LayerCount: 2
Fore
SplineSet
8 14 m 1
 4 6 l 1
 8 6 l 1
 8 14 l 1
8 20 m 1
 12 20 l 1
 12 6 l 1
 14 6 l 1
 14 4 l 1
 12 4 l 1
 12 0 l 1
 8 0 l 1
 8 4 l 1
 0 4 l 1
 0 6 l 1
 8 20 l 1
EndSplineSet
Validated: 1
EndChar

StartChar: A
Encoding: 65 65 20
Width: 16
Flags: MW
HStem: 6 2<4 10> 16 4<6 8>
VStem: 0 4<0 6 8 12> 10 4<0 6 8 12>
AnchorPoint: "bottom" 12 -0 basechar 0
AnchorPoint: "top" 7 20 basechar 0
LayerCount: 2
Fore
SplineSet
8 16 m 5
 6 16 l 5
 4 12 l 5
 4 8 l 5
 10 8 l 5
 10 12 l 5
 8 16 l 5
4 20 m 5
 10 20 l 5
 14 12 l 5
 14 0 l 5
 10 0 l 5
 10 6 l 5
 4 6 l 5
 4 0 l 5
 0 0 l 5
 0 12 l 29
 4 20 l 5
EndSplineSet
Validated: 1
EndChar

StartChar: B
Encoding: 66 66 21
Width: 16
Flags: W
HStem: 0 2<4 10> 10 2<4 10> 18 2<4 10>
VStem: 0 4<2 10 12 18> 10 4<3 9 13 17>
AnchorPoint: "top" 7 20 basechar 0
LayerCount: 2
Fore
SplineSet
10 10 m 5
 4 10 l 5
 4 2 l 5
 10 2 l 5
 10 10 l 5
10 18 m 29
 4 18 l 29
 4 12 l 29
 10 12 l 29
 10 18 l 29
0 20 m 5
 11 20 l 5
 14 17 l 5
 14 13 l 5
 12 11 l 5
 14 9 l 5
 14 3 l 5
 11 0 l 5
 0 0 l 5
 0 20 l 5
EndSplineSet
Validated: 1
EndChar

StartChar: C
Encoding: 67 67 22
Width: 16
Flags: MW
HStem: 0 2<4 10> 18 2<4 10>
VStem: 0 4<3 17> 10 4<3 6 14 17>
AnchorPoint: "bottom" 7 0 basechar 0
AnchorPoint: "top" 7 20 basechar 0
LayerCount: 2
Fore
SplineSet
0 17 m 1
 3 20 l 1
 11 20 l 1
 14 17 l 1
 14 14 l 1
 10 14 l 25
 10 18 l 1
 4 18 l 1
 4 2 l 1
 10 2 l 1
 10 6 l 1
 14 6 l 1
 14 3 l 1
 11 0 l 1
 3 0 l 1
 0 3 l 1
 0 17 l 1
EndSplineSet
Validated: 1
EndChar

StartChar: five
Encoding: 53 53 23
Width: 16
Flags: W
HStem: 0 2<4 10> 10 2<4 10> 18 2<4 14>
VStem: 0 4<3 4 12 18> 10 4<3 9>
LayerCount: 2
Fore
SplineSet
0 4 m 1
 4 4 l 25
 4 2 l 1
 10 2 l 1
 10 10 l 1
 0 10 l 1
 0 20 l 1
 14 20 l 1
 14 18 l 1
 4 18 l 1
 4 12 l 1
 11 12 l 1
 14 9 l 1
 14 3 l 1
 11 0 l 1
 3 0 l 1
 0 3 l 1
 0 4 l 1
EndSplineSet
Validated: 1
EndChar

StartChar: six
Encoding: 54 54 24
Width: 16
Flags: W
HStem: 0 2<4 10> 10 2<4 10> 18 2<7 12>
VStem: 0 4<3 10 12 15> 10 4<3 9>
LayerCount: 2
Fore
SplineSet
10 10 m 5
 4 10 l 5
 4 2 l 5
 10 2 l 5
 10 10 l 5
5 20 m 5
 12 20 l 5
 12 18 l 5
 7 18 l 5
 4 15 l 5
 4 12 l 5
 11 12 l 5
 14 9 l 5
 14 3 l 5
 11 0 l 5
 3 0 l 5
 0 3 l 5
 0 12 l 5
 0 15 l 5
 5 20 l 5
EndSplineSet
Validated: 1
EndChar

StartChar: seven
Encoding: 55 55 25
Width: 16
Flags: MW
HStem: 18 2<0 10>
LayerCount: 2
Fore
SplineSet
0 20 m 1
 14 20 l 25
 14 18 l 1
 6 0 l 1
 2 0 l 1
 10 18 l 1
 0 18 l 1
 0 20 l 1
EndSplineSet
Validated: 1
EndChar

StartChar: eight
Encoding: 56 56 26
Width: 16
Flags: W
HStem: 0 2<4 10> 10 2<4 10> 18 2<4 10>
VStem: 0 4<3 9 13 17> 10 4<3 9 13 17>
LayerCount: 2
Fore
SplineSet
10 10 m 1
 4 10 l 1
 4 2 l 1
 10 2 l 1
 10 10 l 1
10 18 m 25
 4 18 l 25
 4 12 l 25
 10 12 l 25
 10 18 l 25
3 20 m 1
 11 20 l 1
 14 17 l 1
 14 13 l 1
 12 11 l 1
 14 9 l 1
 14 3 l 1
 11 0 l 1
 3 0 l 1
 0 3 l 1
 0 9 l 1
 2 11 l 1
 0 13 l 1
 0 17 l 1
 3 20 l 1
EndSplineSet
Validated: 1
EndChar

StartChar: nine
Encoding: 57 57 27
Width: 16
Flags: W
HStem: 0 2<2 7> 10 2<4 10> 18 2<4 10>
VStem: 0 4<13 17> 10 4<5 10 12 17>
LayerCount: 2
Fore
SplineSet
4 12 m 1
 10 12 l 1
 10 18 l 1
 4 18 l 1
 4 12 l 1
2 0 m 1
 2 2 l 1
 7 2 l 1
 10 5 l 1
 10 10 l 1
 3 10 l 1
 0 13 l 1
 0 17 l 1
 3 20 l 1
 11 20 l 1
 14 17 l 1
 14 10 l 1
 14 5 l 1
 9 0 l 1
 2 0 l 1
EndSplineSet
Validated: 1
EndChar

StartChar: colon
Encoding: 58 58 28
Width: 16
Flags: W
HStem: 0 4<6 10> 10 4<6 10>
VStem: 6 4<0 4 10 14>
LayerCount: 2
Fore
SplineSet
6 4 m 25
 10 4 l 25
 10 0 l 25
 6 0 l 25
 6 4 l 25
6 14 m 25
 10 14 l 1
 10 10 l 25
 6 10 l 1
 6 14 l 25
EndSplineSet
Validated: 1
EndChar

StartChar: semicolon
Encoding: 59 59 29
Width: 16
Flags: W
HStem: 10 4<6 10>
VStem: 6 4<2 4 10 14>
LayerCount: 2
Fore
SplineSet
6 4 m 9
 10 4 l 17
 10 2 l 1
 8 -2 l 1
 4 -2 l 1
 6 2 l 1
 6 4 l 9
6 14 m 25
 10 14 l 1
 10 10 l 25
 6 10 l 1
 6 14 l 25
EndSplineSet
Validated: 1
EndChar

StartChar: less
Encoding: 60 60 30
Width: 16
Flags: MW
LayerCount: 2
Fore
SplineSet
8 20 m 5
 12 20 l 5
 4 10 l 5
 12 0 l 5
 8 0 l 5
 0 10 l 5
 8 20 l 5
EndSplineSet
Validated: 1
EndChar

StartChar: greater
Encoding: 62 62 31
Width: 16
Flags: MW
LayerCount: 2
Fore
SplineSet
6 20 m 1
 14 10 l 1
 6 0 l 1
 2 0 l 1
 10 10 l 1
 2 20 l 1
 6 20 l 1
EndSplineSet
Validated: 1
EndChar

StartChar: equal
Encoding: 61 61 32
Width: 16
Flags: W
HStem: 4 4<0 14> 10 4<0 14>
LayerCount: 2
Fore
SplineSet
0 8 m 29
 14 8 l 29
 14 4 l 29
 0 4 l 29
 0 8 l 29
0 14 m 5
 14 14 l 5
 14 10 l 5
 0 10 l 5
 0 14 l 5
EndSplineSet
Validated: 1
EndChar

StartChar: question
Encoding: 63 63 33
Width: 16
Flags: MW
HStem: 0 4<4 8> 18 2<4 8>
VStem: 0 4<14 17> 4 4<0 4> 8 4<12 17>
LayerCount: 2
Fore
SplineSet
0 14 m 5xe0
 0 17 l 5
 3 20 l 5
 9 20 l 5
 12 17 l 5
 12 12 l 5
 8 8 l 5xe8
 4 8 l 5xd0
 8 12 l 5
 8 18 l 5xc8
 4 18 l 5xd0
 4 14 l 5
 0 14 l 5xe0
4 4 m 29xd0
 8 4 l 29
 8 0 l 29
 4 0 l 29
 4 4 l 29xd0
EndSplineSet
Validated: 1
EndChar

StartChar: at
Encoding: 64 64 34
Width: 16
Flags: W
HStem: 0 2<4 10> 6 2<6 8> 10 2<6 8> 18 2<4 10>
VStem: 0 4<3 8 10 17> 10 4<3 4 11 17>
LayerCount: 2
Fore
SplineSet
0 17 m 1
 3 20 l 1
 11 20 l 1
 14 17 l 1
 14 11 l 1
 9 6 l 1
 6 6 l 1
 4 8 l 1
 4 2 l 1
 10 2 l 1
 10 4 l 1
 14 4 l 1
 14 3 l 1
 11 0 l 1
 3 0 l 1
 0 3 l 1
 0 17 l 1
6 12 m 1
 8 12 l 1
 10 10 l 1
 10 18 l 1
 4 18 l 1
 4 10 l 1
 6 12 l 1
8 10 m 1
 6 10 l 1
 6 8 l 1
 8 8 l 1
 8 10 l 1
EndSplineSet
Validated: 1
EndChar

StartChar: D
Encoding: 68 68 35
Width: 16
Flags: W
HStem: 0 2<4 7> 18 2<4 7>
VStem: 0 4<2 18> 10 4<6 14>
AnchorPoint: "bottom" 7 0 basechar 0
AnchorPoint: "top" 7 20 basechar 0
LayerCount: 2
Fore
SplineSet
7 18 m 5
 4 18 l 5
 4 2 l 5
 7 2 l 5
 10 6 l 5
 10 14 l 5
 7 18 l 5
0 20 m 29
 10 20 l 29
 14 14 l 29
 14 6 l 5
 10 0 l 29
 0 0 l 5
 0 20 l 29
EndSplineSet
Validated: 1
EndChar

StartChar: E
Encoding: 69 69 36
Width: 16
Flags: W
HStem: 0 2<4 14> 10 2<4 12> 18 2<4 14>
VStem: 0 4<2 10 12 18>
AnchorPoint: "bottom" 13 0 basechar 0
AnchorPoint: "top" 7 20 basechar 0
LayerCount: 2
Fore
SplineSet
0 20 m 25
 14 20 l 25
 14 18 l 25
 4 18 l 1
 4 12 l 1
 12 12 l 1
 12 10 l 1
 4 10 l 1
 4 2 l 1
 14 2 l 25
 14 0 l 25
 0 0 l 25
 0 20 l 25
EndSplineSet
Validated: 1
EndChar

StartChar: F
Encoding: 70 70 37
Width: 16
Flags: MW
HStem: 10 2<4 12> 18 2<4 14>
VStem: 0 4<0 10 12 18>
AnchorPoint: "top" 7 20 basechar 0
LayerCount: 2
Fore
SplineSet
0 20 m 25
 14 20 l 25
 14 18 l 25
 4 18 l 1
 4 12 l 1
 12 12 l 1
 12 10 l 1
 4 10 l 1
 4 0 l 1
 0 0 l 1
 0 20 l 25
EndSplineSet
Validated: 1
EndChar

StartChar: G
Encoding: 71 71 38
Width: 16
Flags: MW
HStem: 0 2<4 10> 8 2<6 10> 18 2<4 10>
VStem: 0 4<3 17> 10 4<3 8 14 17>
AnchorPoint: "bottom" 7 0 basechar 0
AnchorPoint: "top" 7 20 basechar 0
LayerCount: 2
Fore
SplineSet
0 17 m 5
 3 20 l 5
 11 20 l 5
 14 17 l 5
 14 14 l 5
 10 14 l 5
 10 18 l 5
 4 18 l 5
 4 2 l 5
 10 2 l 5
 10 8 l 29
 6 8 l 5
 6 10 l 5
 14 10 l 5
 14 3 l 5
 11 0 l 5
 3 0 l 5
 0 3 l 5
 0 17 l 5
EndSplineSet
Validated: 1
EndChar

StartChar: H
Encoding: 72 72 39
Width: 16
Flags: MW
HStem: 10 2<4 10>
VStem: 0 4<0 10 12 20> 10 4<0 10 12 20>
AnchorPoint: "top" 7 20 basechar 0
LayerCount: 2
Fore
SplineSet
0 20 m 29
 4 20 l 29
 4 12 l 29
 10 12 l 29
 10 20 l 29
 14 20 l 29
 14 0 l 29
 10 0 l 29
 10 10 l 29
 4 10 l 29
 4 0 l 29
 0 0 l 29
 0 20 l 29
EndSplineSet
Validated: 1
EndChar

StartChar: I
Encoding: 73 73 40
Width: 16
Flags: W
HStem: 0 2<2 4 8 10> 18 2<2 4 8 10>
VStem: 4 4<2 18>
AnchorPoint: "bottom" 6 0 basechar 0
AnchorPoint: "top" 6 20 basechar 0
LayerCount: 2
Fore
SplineSet
2 20 m 29
 10 20 l 29
 10 18 l 29
 8 18 l 29
 8 2 l 29
 10 2 l 29
 10 0 l 29
 2 0 l 29
 2 2 l 29
 4 2 l 29
 4 18 l 29
 2 18 l 29
 2 20 l 29
EndSplineSet
Validated: 1
EndChar

StartChar: J
Encoding: 74 74 41
Width: 16
Flags: MW
HStem: 0 2<4 10>
VStem: 0 4<3 6> 10 4<3 20>
LayerCount: 2
Fore
SplineSet
10 20 m 5
 14 20 l 5
 14 3 l 5
 11 0 l 5
 3 0 l 5
 0 3 l 5
 0 6 l 5
 4 6 l 5
 4 2 l 5
 10 2 l 5
 10 20 l 5
EndSplineSet
Validated: 1
EndChar

StartChar: K
Encoding: 75 75 42
Width: 16
Flags: MW
HStem: 8 4
VStem: 0 4<0 8 12 20>
AnchorPoint: "bottom" 7 0 basechar 0
LayerCount: 2
Fore
SplineSet
0 20 m 29
 4 20 l 5
 4 12 l 29
 10 20 l 5
 14 20 l 5
 7 10 l 5
 14 0 l 5
 10 0 l 5
 4 8 l 29
 4 0 l 5
 0 0 l 29
 0 20 l 29
EndSplineSet
Validated: 1
EndChar

StartChar: L
Encoding: 76 76 43
Width: 16
Flags: MW
HStem: 0 2<4 14>
VStem: 0 4<2 20>
AnchorPoint: "top" 2 20 basechar 0
AnchorPoint: "bottom" 8 -0 basechar 0
LayerCount: 2
Fore
SplineSet
0 20 m 29
 4 20 l 29
 4 2 l 29
 14 2 l 29
 14 0 l 29
 0 0 l 29
 0 20 l 29
EndSplineSet
Validated: 1
EndChar

StartChar: M
Encoding: 77 77 44
Width: 16
Flags: MW
VStem: 0 4<0 14> 10 4<0 14>
LayerCount: 2
Fore
SplineSet
0 0 m 29
 0 20 l 29
 4 20 l 5
 7 16 l 5
 10 20 l 5
 14 20 l 5
 14 0 l 5
 10 0 l 5
 10 14 l 5
 7 10 l 5
 4 14 l 5
 4 0 l 5
 0 0 l 29
EndSplineSet
Validated: 1
EndChar

StartChar: N
Encoding: 78 78 45
Width: 16
Flags: MW
VStem: 0 4<0 12> 10 4<8 20>
AnchorPoint: "top" 7 20 basechar 0
LayerCount: 2
Fore
SplineSet
0 20 m 29
 4 20 l 5
 10 8 l 29
 10 20 l 5
 14 20 l 29
 14 0 l 29
 10 0 l 5
 4 12 l 5
 4 0 l 5
 0 0 l 5
 0 20 l 29
EndSplineSet
Validated: 1
EndChar

StartChar: O
Encoding: 79 79 46
Width: 16
Flags: W
HStem: 0 2<4 10> 18 2<4 10>
VStem: 0 4<3 17> 10 4<3 17>
AnchorPoint: "bottom" 7 0 basechar 0
AnchorPoint: "top" 7 20 basechar 0
LayerCount: 2
Fore
SplineSet
10 18 m 29
 4 18 l 29
 4 2 l 29
 10 2 l 29
 10 18 l 29
3 20 m 5
 11 20 l 5
 14 17 l 5
 14 3 l 5
 11 0 l 5
 3 0 l 5
 0 3 l 5
 0 17 l 5
 3 20 l 5
EndSplineSet
Validated: 1
EndChar

StartChar: P
Encoding: 80 80 47
Width: 16
Flags: MW
HStem: 10 2<4 10> 18 2<4 10>
VStem: 0 4<0 10 12 18> 10 4<13 17>
AnchorPoint: "top" 7 20 basechar 0
LayerCount: 2
Fore
SplineSet
10 18 m 25
 4 18 l 25
 4 12 l 25
 10 12 l 25
 10 18 l 25
0 0 m 25
 0 20 l 1
 11 20 l 1
 14 17 l 1
 14 13 l 1
 11 10 l 1
 4 10 l 1
 4 0 l 25
 0 0 l 25
EndSplineSet
Validated: 1
EndChar

StartChar: Q
Encoding: 81 81 48
Width: 16
Flags: W
HStem: 0 2<4 6> 18 2<4 10>
VStem: 0 4<3 17> 10 4<6 17>
AnchorPoint: "bottom" 7 0 basechar 0
AnchorPoint: "top" 7 20 basechar 0
LayerCount: 2
Fore
SplineSet
10 18 m 25
 4 18 l 25
 4 2 l 1
 6 2 l 25
 10 6 l 1
 10 18 l 25
0 17 m 1
 3 20 l 1
 11 20 l 1
 14 17 l 1
 14 6 l 1
 12 4 l 1
 14 2 l 1
 14 0 l 1
 12 0 l 1
 10 2 l 25
 8 0 l 1
 3 0 l 1
 0 3 l 1
 0 17 l 1
EndSplineSet
Validated: 1
EndChar

StartChar: R
Encoding: 82 82 49
Width: 16
Flags: MW
HStem: 10 2<8 10> 18 2<4 10>
VStem: 0 4<0 10 12 18> 10 4<0 3 13 17>
AnchorPoint: "top" 7 20 basechar 0
LayerCount: 2
Fore
SplineSet
10 18 m 5
 4 18 l 29
 4 12 l 5
 10 12 l 29
 10 18 l 5
0 0 m 29
 0 20 l 5
 11 20 l 5
 14 17 l 5
 14 13 l 5
 11 10 l 5
 8 10 l 5
 14 3 l 5
 14 0 l 5
 10 0 l 5
 10 3 l 5
 4 10 l 5
 4 0 l 5
 0 0 l 29
EndSplineSet
Validated: 1
EndChar

StartChar: S
Encoding: 83 83 50
Width: 16
Flags: W
HStem: 0 2<4 10> 18 2<4 10>
VStem: 0 4<3 4 14 17> 10 4<3 7 16 17>
AnchorPoint: "bottom" 7 -0 basechar 0
AnchorPoint: "top" 7 20 basechar 0
LayerCount: 2
Fore
SplineSet
0 17 m 1
 3 20 l 1
 11 20 l 1
 14 17 l 1
 14 16 l 1
 10 16 l 25
 10 18 l 25
 4 18 l 1
 4 14 l 1
 14 8 l 1
 14 3 l 1
 11 0 l 1
 3 0 l 1
 0 3 l 1
 0 4 l 1
 4 4 l 1
 4 2 l 1
 10 2 l 1
 10 7 l 1
 0 13 l 1
 0 17 l 1
EndSplineSet
Validated: 1
EndChar

StartChar: T
Encoding: 84 84 51
Width: 16
Flags: MW
HStem: 18 2<0 4 8 12>
VStem: 4 4<0 18>
AnchorPoint: "bottom" 6 -0 basechar 0
AnchorPoint: "top" 6 20 basechar 0
LayerCount: 2
Fore
SplineSet
0 20 m 29
 12 20 l 29
 12 18 l 29
 8 18 l 29
 8 0 l 29
 4 0 l 29
 4 18 l 29
 0 18 l 29
 0 20 l 29
EndSplineSet
Validated: 1
EndChar

StartChar: U
Encoding: 85 85 52
Width: 16
Flags: MW
HStem: 0 2<4 10>
VStem: 0 4<3 20> 10 4<3 20>
AnchorPoint: "bottom" 7 0 basechar 0
AnchorPoint: "top" 7 20 basechar 0
LayerCount: 2
Fore
SplineSet
0 20 m 25
 4 20 l 25
 4 2 l 25
 10 2 l 25
 10 20 l 25
 14 20 l 25
 14 3 l 25
 11 0 l 25
 3 0 l 25
 0 3 l 25
 0 20 l 25
EndSplineSet
Validated: 1
EndChar

StartChar: V
Encoding: 86 86 53
Width: 16
Flags: MW
LayerCount: 2
Fore
SplineSet
0 20 m 1
 4 20 l 1
 7 8 l 1
 10 20 l 1
 14 20 l 1
 9 0 l 1
 5 0 l 1
 0 20 l 1
EndSplineSet
Validated: 1
EndChar

StartChar: W
Encoding: 87 87 54
Width: 16
Flags: MW
VStem: 0 4<6 20> 10 4<6 20>
AnchorPoint: "top" 7 20 basechar 0
LayerCount: 2
Fore
SplineSet
0 20 m 25
 4 20 l 1
 4 6 l 1
 7 10 l 1
 10 6 l 1
 10 20 l 1
 14 20 l 25
 14 0 l 25
 10 0 l 1
 7 4 l 1
 4 0 l 1
 0 0 l 25
 0 20 l 25
EndSplineSet
Validated: 1
EndChar

StartChar: X
Encoding: 88 88 55
Width: 16
Flags: MW
LayerCount: 2
Fore
SplineSet
0 20 m 5
 4 20 l 5
 7 14 l 5
 10 20 l 5
 14 20 l 5
 9 10 l 5
 14 0 l 5
 10 0 l 5
 7 6 l 5
 4 0 l 5
 0 0 l 5
 5 10 l 5
 0 20 l 5
EndSplineSet
Validated: 1
EndChar

StartChar: Y
Encoding: 89 89 56
Width: 16
Flags: MW
VStem: 5 4<0 8>
AnchorPoint: "top" 7 20 basechar 0
LayerCount: 2
Fore
SplineSet
0 20 m 5
 4 20 l 5
 7 12 l 5
 10 20 l 5
 14 20 l 5
 9 8 l 5
 9 0 l 5
 5 0 l 5
 5 8 l 5
 0 20 l 5
EndSplineSet
Validated: 1
EndChar

StartChar: Z
Encoding: 90 90 57
Width: 16
Flags: W
HStem: 0 2<4 14> 18 2<0 10>
AnchorPoint: "bottom" 7 0 basechar 0
AnchorPoint: "top" 7 20 basechar 0
LayerCount: 2
Fore
SplineSet
0 20 m 5
 14 20 l 29
 14 18 l 29
 4 2 l 5
 14 2 l 29
 14 0 l 29
 0 0 l 5
 0 2 l 5
 10 18 l 29
 0 18 l 5
 0 20 l 5
EndSplineSet
Validated: 1
EndChar

StartChar: bracketleft
Encoding: 91 91 58
Width: 16
Flags: W
HStem: 0 2<4 10> 18 2<4 10>
VStem: 0 4<2 18>
LayerCount: 2
Fore
SplineSet
0 20 m 25
 10 20 l 25
 10 18 l 25
 4 18 l 25
 4 2 l 25
 10 2 l 25
 10 0 l 25
 0 0 l 25
 0 20 l 25
EndSplineSet
Validated: 1
EndChar

StartChar: backslash
Encoding: 92 92 59
Width: 16
Flags: MW
LayerCount: 2
Fore
SplineSet
0 20 m 25
 4 20 l 25
 14 0 l 25
 10 0 l 25
 0 20 l 25
EndSplineSet
Validated: 1
EndChar

StartChar: bracketright
Encoding: 93 93 60
Width: 16
Flags: W
HStem: 0 2<4 10> 18 2<4 10>
VStem: 10 4<2 18>
LayerCount: 2
Fore
SplineSet
4 20 m 25
 14 20 l 1
 14 0 l 1
 4 0 l 25
 4 2 l 25
 10 2 l 1
 10 18 l 1
 4 18 l 25
 4 20 l 25
EndSplineSet
Validated: 1
EndChar

StartChar: underscore
Encoding: 95 95 61
Width: 16
Flags: W
HStem: 0 2<0 14>
LayerCount: 2
Fore
SplineSet
0 2 m 29
 14 2 l 1
 14 0 l 25
 0 0 l 1
 0 2 l 29
EndSplineSet
Validated: 1
EndChar

StartChar: grave
Encoding: 96 96 62
Width: 16
Flags: W
HStem: 16 4<4 6>
VStem: 2 6
LayerCount: 2
Fore
SplineSet
2 20 m 25
 6 20 l 25
 8 16 l 25
 4 16 l 25
 2 20 l 25
EndSplineSet
Validated: 1
EndChar

StartChar: a
Encoding: 97 97 63
Width: 16
Flags: W
HStem: 0 2<4 10> 6 2<4 10> 12 2<2 10>
VStem: 0 4<3 5> 10 4<3 6 8 11>
CounterMasks: 1 e0
AnchorPoint: "bottom" 7 -0 basechar 0
AnchorPoint: "top" 7 14 basechar 0
LayerCount: 2
Fore
SplineSet
10 6 m 25
 4 6 l 25
 4 2 l 25
 10 2 l 25
 10 6 l 25
0 3 m 1
 0 5 l 1
 3 8 l 1
 10 8 l 1
 10 12 l 1
 2 12 l 1
 2 14 l 1
 11 14 l 1
 14 11 l 1
 14 3 l 1
 11 0 l 1
 3 0 l 1
 0 3 l 1
EndSplineSet
Validated: 1
EndChar

StartChar: b
Encoding: 98 98 64
Width: 16
Flags: MW
HStem: 0 2<4 10> 12 2<4 10>
VStem: 0 4<2 12 14 20> 10 4<3 11>
LayerCount: 2
Fore
SplineSet
10 12 m 25
 4 12 l 1
 4 2 l 1
 10 2 l 1
 10 12 l 25
0 20 m 25
 4 20 l 1
 4 14 l 1
 11 14 l 1
 14 11 l 1
 14 3 l 1
 11 0 l 1
 0 0 l 1
 0 20 l 25
EndSplineSet
Validated: 1
EndChar

StartChar: c
Encoding: 99 99 65
Width: 16
Flags: W
HStem: 0 2<4 10> 12 2<4 10>
VStem: 0 4<3 11> 10 4<3 4 10 11>
AnchorPoint: "bottom" 7 -0 basechar 0
AnchorPoint: "top" 7 14 basechar 0
LayerCount: 2
Fore
SplineSet
3 14 m 5
 11 14 l 5
 14 11 l 5
 14 10 l 5
 10 10 l 29
 10 12 l 29
 4 12 l 29
 4 2 l 5
 10 2 l 29
 10 4 l 29
 14 4 l 5
 14 3 l 5
 11 0 l 5
 3 0 l 5
 0 3 l 5
 0 11 l 5
 3 14 l 5
EndSplineSet
Validated: 1
EndChar

StartChar: d
Encoding: 100 100 66
Width: 16
Flags: MW
HStem: 0 2<4 10> 12 2<4 10>
VStem: 0 4<3 11> 10 4<2 12 14 20>
LayerCount: 2
Fore
SplineSet
10 12 m 29
 4 12 l 29
 4 2 l 29
 10 2 l 29
 10 12 l 29
10 20 m 29
 14 20 l 29
 14 0 l 5
 3 0 l 5
 0 3 l 5
 0 11 l 5
 3 14 l 5
 10 14 l 5
 10 20 l 29
EndSplineSet
Validated: 1
EndChar

StartChar: e
Encoding: 101 101 67
Width: 16
Flags: W
HStem: 0 2<4 10> 6 2<4 10> 12 2<4 10>
VStem: 0 4<3 6 8 11> 10 4<3 4 8 11>
CounterMasks: 1 e0
AnchorPoint: "bottom" 7 0 basechar 0
AnchorPoint: "top" 7 14 basechar 0
LayerCount: 2
Fore
SplineSet
10 12 m 29
 4 12 l 29
 4 8 l 29
 10 8 l 29
 10 12 l 29
3 14 m 5
 11 14 l 5
 14 11 l 5
 14 6 l 5
 4 6 l 5
 4 2 l 5
 10 2 l 5
 10 4 l 5
 14 4 l 5
 14 3 l 5
 11 0 l 5
 3 0 l 5
 0 3 l 5
 0 11 l 5
 3 14 l 5
EndSplineSet
Validated: 1
EndChar

StartChar: f
Encoding: 102 102 68
Width: 16
Flags: MW
HStem: 12 2<0 4 8 12> 18 2<8 12>
VStem: 4 4<0 12 14 17>
LayerCount: 2
Fore
SplineSet
4 0 m 1
 4 12 l 25
 0 12 l 25
 0 14 l 25
 4 14 l 1
 4 17 l 1
 7 20 l 1
 12 20 l 5
 12 18 l 5
 8 18 l 1
 8 14 l 1
 12 14 l 1
 12 12 l 1
 8 12 l 1
 8 0 l 1
 4 0 l 1
EndSplineSet
Validated: 1
EndChar

StartChar: g
Encoding: 103 103 69
Width: 16
Flags: MW
HStem: -4 2<4 10> 2 2<4 10> 12 2<4 10>
VStem: 0 4<-1 0 5 11> 10 4<-1 2 4 12>
AnchorPoint: "bottom" 7 -4 basechar 0
AnchorPoint: "top" 7 14 basechar 0
LayerCount: 2
Fore
SplineSet
10 12 m 29
 4 12 l 29
 4 4 l 29
 10 4 l 29
 10 12 l 29
0 11 m 5
 3 14 l 5
 14 14 l 5
 14 -1 l 5
 11 -4 l 5
 3 -4 l 5
 0 -1 l 5
 0 0 l 5
 4 0 l 29
 4 -2 l 29
 10 -2 l 29
 10 2 l 5
 3 2 l 5
 0 5 l 5
 0 11 l 5
EndSplineSet
Validated: 1
EndChar

StartChar: h
Encoding: 104 104 70
Width: 16
Flags: MW
HStem: 12 2<4 10>
VStem: 0 4<0 12 14 20> 10 4<0 11>
LayerCount: 2
Fore
SplineSet
0 20 m 29
 4 20 l 29
 4 14 l 5
 11 14 l 5
 14 11 l 5
 14 0 l 5
 10 0 l 29
 10 12 l 29
 4 12 l 29
 4 0 l 29
 0 0 l 29
 0 20 l 29
EndSplineSet
Validated: 1
EndChar

StartChar: i
Encoding: 105 105 71
Width: 16
Flags: W
HStem: 0 2<2 4 8 10> 10 2<2 4> 16 4<4 8>
VStem: 4 4<2 10 16 20>
AnchorPoint: "top" 6 14 basechar 0
LayerCount: 2
Fore
SplineSet
4 16 m 29
 4 20 l 29
 8 20 l 29
 8 16 l 29
 4 16 l 29
2 0 m 5
 2 2 l 5
 4 2 l 5
 4 10 l 5
 2 10 l 5
 2 12 l 5
 8 12 l 5
 8 2 l 5
 10 2 l 5
 10 0 l 5
 2 0 l 5
EndSplineSet
Validated: 1
EndChar

StartChar: j
Encoding: 106 106 72
Width: 16
Flags: MW
HStem: -4 2<4 10> 10 2<8 10> 16 4<10 14>
VStem: 10 4<-1 10 16 20>
AnchorPoint: "top" 12 14 basechar 0
LayerCount: 2
Fore
SplineSet
8 12 m 5
 14 12 l 5
 14 -1 l 5
 11 -4 l 5
 3 -4 l 5
 0 -1 l 5
 0 0 l 5
 4 0 l 29
 4 -2 l 29
 10 -2 l 5
 10 10 l 5
 8 10 l 5
 8 12 l 5
10 20 m 29
 14 20 l 29
 14 16 l 29
 10 16 l 29
 10 20 l 29
EndSplineSet
Validated: 1
EndChar

StartChar: k
Encoding: 107 107 73
Width: 16
Flags: MW
VStem: 0 4<0 6 8 20>
AnchorPoint: "bottom" 6 0 basechar 0
AnchorPoint: "top" 7 20 basechar 0
LayerCount: 2
Fore
SplineSet
0 20 m 25
 4 20 l 1
 4 8 l 1
 10 14 l 1
 14 14 l 1
 8 8 l 5
 8 6 l 5
 14 0 l 1
 10 0 l 1
 4 6 l 25
 4 0 l 1
 0 0 l 25
 0 20 l 25
EndSplineSet
Validated: 1
EndChar

StartChar: l
Encoding: 108 108 74
Width: 16
Flags: MW
VStem: 6 4<3 20>
AnchorPoint: "bottom" 8 -0 basechar 0
AnchorPoint: "top" 8 20 basechar 0
LayerCount: 2
Fore
SplineSet
6 20 m 5
 10 20 l 5
 10 3 l 5
 13 0 l 5
 9 0 l 5
 6 3 l 5
 6 20 l 5
EndSplineSet
Validated: 1
EndChar

StartChar: m
Encoding: 109 109 75
Width: 16
Flags: MW
HStem: 10 4<4 5 8 10>
VStem: 0 4<0 10> 6 2<0 10> 10 4<0 10>
CounterMasks: 1 70
LayerCount: 2
Fore
SplineSet
0 0 m 25
 0 14 l 1
 5 14 l 1
 8 11 l 1
 8 14 l 1
 11 14 l 1
 14 11 l 1
 14 0 l 1
 10 0 l 1
 10 10 l 25
 8 10 l 1
 8 0 l 25
 6 0 l 1
 6 10 l 25
 4 10 l 1
 4 0 l 25
 0 0 l 25
EndSplineSet
Validated: 1
EndChar

StartChar: n
Encoding: 110 110 76
Width: 16
Flags: MW
HStem: 12 2<4 10>
VStem: 0 4<0 12> 10 4<0 11>
AnchorPoint: "top" 7 14 basechar 0
LayerCount: 2
Fore
SplineSet
0 0 m 29
 0 14 l 21
 11 14 l 5
 14 11 l 5
 14 0 l 5
 10 0 l 29
 10 12 l 21
 4 12 l 13
 4 0 l 5
 0 0 l 29
EndSplineSet
Validated: 1
EndChar

StartChar: o
Encoding: 111 111 77
Width: 16
Flags: W
HStem: 0 2<4 10> 12 2<4 10>
VStem: 0 4<3 11> 10 4<3 11>
AnchorPoint: "bottom" 7 -0 basechar 0
AnchorPoint: "top" 7 14 basechar 0
LayerCount: 2
Fore
SplineSet
10 12 m 29
 4 12 l 29
 4 2 l 29
 10 2 l 29
 10 12 l 29
3 14 m 5
 11 14 l 5
 14 11 l 5
 14 3 l 5
 11 0 l 5
 3 0 l 5
 0 3 l 5
 0 11 l 5
 3 14 l 5
EndSplineSet
Validated: 1
EndChar

StartChar: p
Encoding: 112 112 78
Width: 16
Flags: MW
HStem: 0 2<4 10> 12 2<4 10>
VStem: 0 4<-4 0 2 12> 10 4<3 11>
LayerCount: 2
Fore
SplineSet
10 12 m 25
 4 12 l 25
 4 2 l 25
 10 2 l 25
 10 12 l 25
0 -4 m 25
 0 14 l 1
 11 14 l 1
 14 11 l 1
 14 3 l 1
 11 0 l 1
 4 0 l 1
 4 -4 l 25
 0 -4 l 25
EndSplineSet
Validated: 1
EndChar

StartChar: q
Encoding: 113 113 79
Width: 16
Flags: MW
HStem: 0 2<4 10> 12 2<4 10>
VStem: 0 4<3 11> 10 4<-4 0 2 12>
LayerCount: 2
Fore
SplineSet
4 12 m 25
 4 2 l 25
 10 2 l 25
 10 12 l 25
 4 12 l 25
14 -4 m 25
 10 -4 l 25
 10 0 l 1
 3 0 l 1
 0 3 l 1
 0 11 l 1
 3 14 l 1
 14 14 l 1
 14 -4 l 25
EndSplineSet
Validated: 1
EndChar

StartChar: r
Encoding: 114 114 80
Width: 16
Flags: MW
VStem: 0 4<0 5 10 14>
AnchorPoint: "top" 7 14 basechar 0
LayerCount: 2
Fore
SplineSet
0 0 m 29
 0 14 l 29
 4 14 l 29
 4 10 l 29
 8 14 l 5
 13 14 l 5
 4 5 l 5
 4 0 l 5
 0 0 l 29
EndSplineSet
Validated: 1
EndChar

StartChar: s
Encoding: 115 115 81
Width: 16
Flags: W
HStem: 0 2<4 10> 12 2<4 10>
VStem: 0 4<3 4 10 11> 10 4<3 4 10 11>
AnchorPoint: "bottom" 7 0 basechar 0
AnchorPoint: "top" 7 14 basechar 0
LayerCount: 2
Fore
SplineSet
0 11 m 1
 3 14 l 1
 11 14 l 1
 14 11 l 1
 14 10 l 1
 10 10 l 25
 10 12 l 25
 4 12 l 1
 4 10 l 1
 14 5 l 1
 14 3 l 1
 11 0 l 1
 3 0 l 1
 0 3 l 1
 0 4 l 1
 4 4 l 25
 4 2 l 25
 10 2 l 1
 10 4 l 1
 0 9 l 1
 0 11 l 1
EndSplineSet
Validated: 1
EndChar

StartChar: t
Encoding: 116 116 82
Width: 16
Flags: MW
HStem: 0 2<8 12> 12 2<0 4 8 12>
VStem: 4 4<3 12 14 20>
AnchorPoint: "bottom" 8 0 basechar 0
LayerCount: 2
Fore
SplineSet
4 20 m 5
 8 20 l 5
 8 14 l 29
 12 14 l 29
 12 12 l 29
 8 12 l 5
 8 2 l 5
 12 2 l 5
 12 0 l 5
 7 0 l 5
 4 3 l 5
 4 12 l 5
 0 12 l 29
 0 14 l 29
 4 14 l 29
 4 20 l 5
EndSplineSet
Validated: 1
EndChar

StartChar: u
Encoding: 117 117 83
Width: 16
Flags: MW
HStem: 0 2<4 10>
VStem: 0 4<3 14> 10 4<3 14>
AnchorPoint: "bottom" 7 -0 basechar 0
AnchorPoint: "top" 7 14 basechar 0
LayerCount: 2
Fore
SplineSet
0 14 m 1
 4 14 l 25
 4 2 l 25
 10 2 l 25
 10 14 l 25
 14 14 l 1
 14 3 l 1
 11 0 l 1
 3 0 l 1
 0 3 l 1
 0 14 l 1
EndSplineSet
Validated: 1
EndChar

StartChar: v
Encoding: 118 118 84
Width: 16
Flags: MW
VStem: 0 4 10 4
LayerCount: 2
Fore
SplineSet
0 14 m 1
 4 14 l 1
 7 5 l 1
 10 14 l 1
 14 14 l 1
 9 0 l 1
 5 0 l 1
 0 14 l 1
EndSplineSet
Validated: 1
EndChar

StartChar: w
Encoding: 119 119 85
Width: 16
Flags: MW
VStem: 0 4<6 14> 10 4<6 14>
AnchorPoint: "top" 7 14 basechar 0
LayerCount: 2
Fore
SplineSet
0 14 m 25
 4 14 l 1
 4 6 l 1
 7 10 l 1
 10 6 l 1
 10 14 l 1
 14 14 l 25
 14 0 l 25
 10 0 l 1
 7 4 l 1
 4 0 l 1
 0 0 l 25
 0 14 l 25
EndSplineSet
Validated: 1
EndChar

StartChar: x
Encoding: 120 120 86
Width: 16
Flags: MW
LayerCount: 2
Fore
SplineSet
0 14 m 5
 4 14 l 5
 7 10 l 5
 10 14 l 5
 14 14 l 5
 9 7 l 5
 14 0 l 5
 10 0 l 5
 7 4 l 5
 4 0 l 5
 0 0 l 5
 5 7 l 5
 0 14 l 5
EndSplineSet
Validated: 1
EndChar

StartChar: y
Encoding: 121 121 87
Width: 16
Flags: MW
HStem: -4 2<2 8> 0 2<4 10>
VStem: 0 4<3 14> 10 4<2 14>
AnchorPoint: "top" 7 14 basechar 0
LayerCount: 2
Fore
SplineSet
0 14 m 1
 4 14 l 25
 4 2 l 25
 10 2 l 25
 10 14 l 25
 14 14 l 25
 14 0 l 25
 10 -4 l 25
 2 -4 l 25
 2 -2 l 25
 8 -2 l 25
 10 0 l 1
 3 0 l 1
 0 3 l 1
 0 14 l 1
EndSplineSet
Validated: 1
EndChar

StartChar: z
Encoding: 122 122 88
Width: 16
Flags: W
HStem: 0 2<4 14> 12 2<0 10>
AnchorPoint: "bottom" 7 -0 basechar 0
AnchorPoint: "top" 7 14 basechar 0
LayerCount: 2
Fore
SplineSet
0 14 m 25
 14 14 l 25
 14 12 l 25
 4 2 l 25
 14 2 l 25
 14 0 l 25
 0 0 l 25
 0 2 l 25
 10 12 l 25
 0 12 l 25
 0 14 l 25
EndSplineSet
Validated: 1
EndChar

StartChar: braceleft
Encoding: 123 123 89
Width: 16
Flags: W
HStem: 0 2<8 12> 18 2<8 12>
VStem: 4 4<3 8 12 17>
LayerCount: 2
Fore
SplineSet
7 20 m 1
 12 20 l 1
 12 18 l 1
 8 18 l 1
 8 12 l 1
 5 10 l 1
 8 8 l 1
 8 2 l 25
 12 2 l 1
 12 0 l 1
 7 0 l 1
 4 3 l 1
 4 8 l 1
 1 10 l 1
 4 12 l 1
 4 17 l 1
 7 20 l 1
EndSplineSet
Validated: 1
EndChar

StartChar: bar
Encoding: 124 124 90
Width: 16
Flags: MW
HStem: 0 20G<6 10>
VStem: 6 4<0 20>
LayerCount: 2
Fore
SplineSet
6 20 m 29
 10 20 l 29
 10 0 l 29
 6 0 l 29
 6 20 l 29
EndSplineSet
Validated: 1
EndChar

StartChar: braceright
Encoding: 125 125 91
Width: 16
Flags: W
HStem: 0 2<2 6> 18 2<2 6>
VStem: 6 4<3 8 12 17>
LayerCount: 2
Fore
SplineSet
7 20 m 1
 10 17 l 1
 10 12 l 1
 13 10 l 1
 10 8 l 1
 10 3 l 1
 7 0 l 1
 2 0 l 1
 2 2 l 1
 6 2 l 25
 6 8 l 1
 9 10 l 1
 6 12 l 1
 6 18 l 1
 2 18 l 1
 2 20 l 1
 7 20 l 1
EndSplineSet
Validated: 1
EndChar

StartChar: asciitilde
Encoding: 126 126 92
Width: 16
Flags: W
HStem: 6 8
LayerCount: 2
Fore
SplineSet
2 10 m 29
 6 14 l 29
 10 10 l 29
 14 14 l 29
 14 10 l 29
 10 6 l 29
 6 10 l 29
 2 6 l 29
 2 10 l 29
EndSplineSet
Validated: 1
EndChar

StartChar: gravecomb
Encoding: 768 768 93
Width: 16
Flags: W
HStem: 22 4<6 8>
VStem: 4 6
AnchorPoint: "top" 8 20 mark 0
LayerCount: 2
Fore
SplineSet
4 26 m 1
 8 26 l 1
 10 22 l 1
 6 22 l 1
 4 26 l 1
EndSplineSet
Validated: 1
EndChar

StartChar: acutecomb
Encoding: 769 769 104
Width: 16
Flags: W
HStem: 22 4<8 10>
VStem: 6 6
AnchorPoint: "top" 8 20 mark 0
LayerCount: 2
Fore
SplineSet
8 26 m 5
 12 26 l 5
 10 22 l 5
 6 22 l 5
 8 26 l 5
EndSplineSet
Validated: 1
EndChar

StartChar: uni0302
Encoding: 770 770 105
Width: 16
Flags: W
HStem: 22 4
AnchorPoint: "top" 8 20 mark 0
LayerCount: 2
Fore
SplineSet
2 22 m 5
 8 26 l 5
 14 22 l 5
 11 22 l 5
 8 24 l 5
 5 22 l 5
 2 22 l 5
EndSplineSet
Validated: 1
EndChar

StartChar: tildecomb
Encoding: 771 771 106
Width: 16
Flags: W
HStem: 22 4
AnchorPoint: "top" 8 20 mark 0
LayerCount: 2
Fore
SplineSet
2 24 m 1
 6 26 l 1
 10 24 l 1
 14 26 l 1
 14 24 l 1
 10 22 l 1
 6 24 l 1
 2 22 l 1
 2 24 l 1
EndSplineSet
Validated: 1
EndChar

StartChar: uni0304
Encoding: 772 772 129
Width: 16
Flags: W
HStem: 22 4<2 14>
AnchorPoint: "top" 8 20 mark 0
LayerCount: 2
Fore
SplineSet
2 26 m 5
 14 26 l 5
 14 22 l 5
 2 22 l 5
 2 26 l 5
EndSplineSet
Validated: 1
EndChar

StartChar: uni0305
Encoding: 773 773 130
Width: 16
Flags: W
HStem: 24 2<0 16>
AnchorPoint: "top" 8 20 mark 0
LayerCount: 2
Fore
SplineSet
0 26 m 5
 16 26 l 5
 16 24 l 5
 0 24 l 5
 0 26 l 5
EndSplineSet
Validated: 1
EndChar

StartChar: uni0306
Encoding: 774 774 131
Width: 16
Flags: W
HStem: 22 4<5 6 10 11>
AnchorPoint: "top" 8 20 mark 0
LayerCount: 2
Fore
SplineSet
6 26 m 1
 6 24 l 1
 10 24 l 1
 10 26 l 1
 14 26 l 1
 14 25 l 1
 11 22 l 1
 5 22 l 1
 2 25 l 1
 2 26 l 1
 6 26 l 1
EndSplineSet
Validated: 1
EndChar

StartChar: uni0307
Encoding: 775 775 132
Width: 16
Flags: W
HStem: 22 4<6 10>
VStem: 6 4<22 26>
AnchorPoint: "top" 8 20 mark 0
LayerCount: 2
Fore
SplineSet
6 26 m 1
 10 26 l 1
 10 22 l 1
 6 22 l 1
 6 26 l 1
EndSplineSet
Validated: 1
EndChar

StartChar: uni0308
Encoding: 776 776 133
Width: 16
Flags: W
HStem: 22 4<3 7 9 13>
VStem: 3 4<22 26> 9 4<22 26>
AnchorPoint: "top" 8 20 mark 0
LayerCount: 2
Fore
SplineSet
9 26 m 1
 13 26 l 1
 13 22 l 1
 9 22 l 1
 9 26 l 1
3 26 m 1
 7 26 l 1
 7 22 l 1
 3 22 l 1
 3 26 l 1
EndSplineSet
Validated: 1
EndChar

StartChar: dotlessi
Encoding: 305 305 180
Width: 16
Flags: W
HStem: 0 2<2 4 8 10> 10 2<2 4>
VStem: 4 4<2 10>
AnchorPoint: "top" 6 14 basechar 0
LayerCount: 2
Fore
SplineSet
2 0 m 1
 2 2 l 1
 4 2 l 1
 4 10 l 1
 2 10 l 1
 2 12 l 1
 8 12 l 1
 8 2 l 1
 10 2 l 1
 10 0 l 1
 2 0 l 1
EndSplineSet
Validated: 1
EndChar

StartChar: uni030A
Encoding: 778 778 247
Width: 16
Flags: W
HStem: 21 2<7 9> 24 2<7 9>
VStem: 5 2<23 24> 9 2<23 24>
AnchorPoint: "top" 8 20 mark 0
LayerCount: 2
Fore
SplineSet
9 24 m 1
 7 24 l 1
 7 23 l 1
 9 23 l 1
 9 24 l 1
7 26 m 1
 9 26 l 1
 11 24 l 1
 11 23 l 1
 9 21 l 1
 7 21 l 1
 5 23 l 1
 5 24 l 1
 7 26 l 1
EndSplineSet
Validated: 1
EndChar

StartChar: uni030C
Encoding: 780 780 248
Width: 16
Flags: W
HStem: 22 4
AnchorPoint: "top" 8 20 mark 0
LayerCount: 2
Fore
SplineSet
14 26 m 5
 8 22 l 5
 2 26 l 5
 5 26 l 5
 8 24 l 5
 11 26 l 5
 14 26 l 5
EndSplineSet
Validated: 1
EndChar

StartChar: uni0237
Encoding: 567 567 254
Width: 16
Flags: MW
HStem: -4 2<4 10> 10 2<8 10>
VStem: 10 4<-1 10>
AnchorPoint: "top" 12 14 basechar 0
LayerCount: 2
Fore
SplineSet
8 12 m 1
 14 12 l 1
 14 -1 l 1
 11 -4 l 1
 3 -4 l 1
 0 -1 l 1
 0 0 l 1
 4 0 l 25
 4 -2 l 25
 10 -2 l 1
 10 10 l 1
 8 10 l 1
 8 12 l 1
EndSplineSet
Validated: 1
EndChar

StartChar: exclamdown
Encoding: 161 161 255
Width: 16
VWidth: 24
Flags: MW
HStem: 12 4<6 10>
VStem: 6 4<-4 8 12 16>
LayerCount: 2
Fore
SplineSet
10 -4 m 29
 6 -4 l 29
 6 8 l 29
 10 8 l 29
 10 -4 l 29
10 12 m 29
 6 12 l 29
 6 16 l 29
 10 16 l 29
 10 12 l 29
EndSplineSet
Validated: 1
EndChar

StartChar: quotesingle
Encoding: 39 39 266
Width: 16
HStem: 14 6<4 8>
VStem: 4 4<14 20>
LayerCount: 2
Fore
SplineSet
4 20 m 5
 8 20 l 5
 8 14 l 5
 4 14 l 5
 4 20 l 5
EndSplineSet
Validated: 1
EndChar

StartChar: asciicircum
Encoding: 94 94 267
Width: 16
Flags: W
HStem: 13 7
LayerCount: 2
Fore
SplineSet
0 13 m 5
 7 20 l 5
 14 13 l 29
 10 13 l 5
 7 16 l 5
 4 13 l 5
 0 13 l 5
EndSplineSet
Validated: 1
EndChar

StartChar: cent
Encoding: 162 162 268
Width: 16
Flags: M
HStem: 2 2<4 6 8 10> 10 2<4 6 8 10>
VStem: 0 4<5 9> 6 2<0 2 4 10 12 14> 10 4<5 6 8 9>
CounterMasks: 1 38
LayerCount: 2
Fore
SplineSet
6 10 m 25
 4 10 l 25
 4 4 l 25
 6 4 l 25
 6 10 l 25
6 14 m 1
 8 14 l 1
 8 12 l 1
 11 12 l 1
 14 9 l 1
 14 8 l 1
 10 8 l 1
 10 10 l 1
 8 10 l 1
 8 4 l 1
 10 4 l 1
 10 6 l 1
 14 6 l 1
 14 5 l 1
 11 2 l 1
 8 2 l 1
 8 0 l 1
 6 0 l 1
 6 2 l 1
 3 2 l 1
 0 5 l 1
 0 9 l 1
 3 12 l 1
 6 12 l 1
 6 14 l 1
EndSplineSet
Validated: 1
EndChar

StartChar: sterling
Encoding: 163 163 269
Width: 16
Flags: M
HStem: 0 2<0 2 6 14> 12 2<0 2 6 14>
VStem: 2 4<2 12 14 17> 10 4<16 17>
LayerCount: 2
Fore
SplineSet
0 0 m 25
 0 2 l 25
 2 2 l 1
 2 12 l 1
 0 12 l 1
 0 14 l 1
 2 14 l 1
 2 17 l 1
 5 20 l 1
 11 20 l 1
 14 17 l 1
 14 16 l 5
 10 16 l 5
 10 18 l 1
 6 18 l 1
 6 14 l 1
 14 14 l 1
 14 12 l 1
 6 12 l 1
 6 2 l 1
 14 2 l 1
 14 0 l 25
 0 0 l 25
EndSplineSet
Validated: 1
EndChar

StartChar: currency
Encoding: 164 164 270
Width: 16
HStem: 2 4<5 9> 12 4<5 9>
VStem: 0 4<7 11> 10 4<7 11>
LayerCount: 2
Fore
SplineSet
10 12 m 25
 4 12 l 25
 4 6 l 25
 10 6 l 25
 10 12 l 25
5 16 m 1
 9 16 l 1
 11 14 l 1
 12 16 l 1
 14 16 l 1
 14 14 l 1
 12 13 l 1
 14 11 l 1
 14 7 l 1
 12 5 l 1
 14 4 l 1
 14 2 l 1
 12 2 l 1
 11 4 l 1
 9 2 l 5
 5 2 l 1
 3 4 l 1
 2 2 l 1
 0 2 l 1
 0 4 l 1
 2 5 l 1
 0 7 l 1
 0 11 l 1
 2 13 l 1
 0 14 l 1
 0 16 l 1
 2 16 l 1
 3 14 l 1
 5 16 l 1
EndSplineSet
EndChar

StartChar: yen
Encoding: 165 165 271
Width: 16
Flags: MW
HStem: 2 2<2 5 9 12> 6 2<2 5 9 12>
VStem: 5 4<0 2 4 6>
LayerCount: 2
Fore
SplineSet
0 20 m 1
 4 20 l 1
 7 12 l 1
 10 20 l 1
 14 20 l 1
 9 8 l 1
 12 8 l 1
 12 6 l 1
 9 6 l 1
 9 4 l 1
 12 4 l 1
 12 2 l 1
 9 2 l 1
 9 0 l 1
 5 0 l 1
 5 2 l 1
 2 2 l 1
 2 4 l 1
 5 4 l 1
 5 6 l 1
 2 6 l 1
 2 8 l 1
 5 8 l 1
 0 20 l 1
EndSplineSet
Validated: 1
EndChar

StartChar: brokenbar
Encoding: 166 166 272
Width: 16
Flags: MW
VStem: 6 4<0 8 12 20>
LayerCount: 2
Fore
SplineSet
6 8 m 1
 10 8 l 1
 10 0 l 1
 6 0 l 1
 6 8 l 1
10 12 m 1
 6 12 l 1
 6 20 l 1
 10 20 l 1
 10 12 l 1
EndSplineSet
Validated: 1
EndChar

StartChar: section
Encoding: 167 167 273
Width: 16
HStem: 0 2<2 5> 18 2<9 12>
VStem: 0 4<7 13> 10 4<7 13>
LayerCount: 2
Fore
SplineSet
10 14 m 5
 4 14 l 5
 4 6 l 5
 10 6 l 5
 10 14 l 5
0 13 m 5
 7 20 l 5
 12 20 l 5
 12 18 l 5
 9 18 l 5
 14 13 l 5
 14 7 l 5
 7 0 l 5
 2 0 l 5
 2 2 l 5
 5 2 l 5
 0 7 l 5
 0 13 l 5
EndSplineSet
Validated: 1
EndChar

StartChar: dieresis
Encoding: 168 168 274
Width: 16
HStem: 16 4<2 6 8 12>
VStem: 2 4<16 20> 8 4<16 20>
LayerCount: 2
Fore
SplineSet
8 20 m 1
 12 20 l 1
 12 16 l 1
 8 16 l 1
 8 20 l 1
2 20 m 1
 6 20 l 1
 6 16 l 1
 2 16 l 1
 2 20 l 1
EndSplineSet
Validated: 1
EndChar

StartChar: copyright
Encoding: 169 169 275
Width: 16
HStem: 0 2<3 11> 4 2<7 10> 12 2<7 10> 16 2<3 11>
VStem: 0 2<3 15> 4 2<7 11> 12 2<3 15>
LayerCount: 2
Fore
SplineSet
4 11 m 1
 7 14 l 1
 10 14 l 1
 10 12 l 1
 7 12 l 1
 6 11 l 1
 6 7 l 1
 7 6 l 1
 10 6 l 1
 10 4 l 1
 7 4 l 1
 4 7 l 1
 4 11 l 1
12 15 m 1
 11 16 l 1
 3 16 l 1
 2 15 l 1
 2 3 l 1
 3 2 l 1
 11 2 l 1
 12 3 l 5
 12 15 l 1
3 18 m 1
 11 18 l 1
 14 15 l 1
 14 3 l 1
 11 0 l 1
 3 0 l 1
 0 3 l 1
 0 15 l 1
 3 18 l 1
EndSplineSet
Validated: 1
EndChar

StartChar: ordfeminine
Encoding: 170 170 276
Width: 16
HStem: 10 2<6 8> 14 2<6 8> 18 2<4 7>
VStem: 4 2<12 14> 8 2<12 14 16 17>
CounterMasks: 1 e0
LayerCount: 2
Fore
SplineSet
8 14 m 25
 6 14 l 25
 6 12 l 25
 8 12 l 25
 8 14 l 25
4 20 m 1
 7 20 l 1
 10 17 l 5
 10 10 l 1
 6 10 l 1
 4 12 l 1
 4 14 l 1
 6 16 l 1
 8 16 l 1
 8 18 l 1
 4 18 l 1
 4 20 l 1
EndSplineSet
Validated: 1
EndChar

StartChar: guillemotleft
Encoding: 171 171 277
Width: 16
Flags: M
LayerCount: 2
Fore
SplineSet
10 10 m 1
 14 10 l 1
 10 5 l 1
 14 0 l 1
 10 0 l 1
 6 5 l 1
 10 10 l 1
4 10 m 5
 8 10 l 5
 4 5 l 5
 8 0 l 5
 4 0 l 5
 0 5 l 5
 4 10 l 5
EndSplineSet
Validated: 1
EndChar

StartChar: logicalnot
Encoding: 172 172 278
Width: 16
HStem: 10 4<10 14> 12 2<0 10>
VStem: 10 4<10 12>
LayerCount: 2
Fore
SplineSet
0 14 m 5x60
 14 14 l 29
 14 10 l 29
 10 10 l 29xa0
 10 12 l 5
 0 12 l 29
 0 14 l 5x60
EndSplineSet
Validated: 1
EndChar

StartChar: uni00AD
Encoding: 173 173 279
Width: 16
Flags: W
HStem: 8 4<2 14>
LayerCount: 2
Fore
SplineSet
2 12 m 29
 14 12 l 29
 14 8 l 29
 2 8 l 29
 2 12 l 29
EndSplineSet
Validated: 1
EndChar

StartChar: uni0327
Encoding: 807 807 280
Width: 16
HStem: -6 6
VStem: 6 4
AnchorPoint: "bottom" 7 -0 mark 0
LayerCount: 2
Fore
SplineSet
6 0 m 5
 8 0 l 5
 10 -3 l 5
 8 -6 l 5
 6 -6 l 5
 8 -3 l 5
 6 0 l 5
EndSplineSet
Validated: 1
EndChar

StartChar: uni0328
Encoding: 808 808 283
Width: 16
HStem: -6 6
VStem: 4 4
AnchorPoint: "bottom" 7 -0 mark 0
LayerCount: 2
Fore
SplineSet
6 0 m 5
 8 0 l 5
 6 -3 l 29
 8 -6 l 5
 6 -6 l 5
 4 -3 l 29
 6 0 l 5
EndSplineSet
Validated: 1
EndChar

StartChar: registered
Encoding: 174 174 296
Width: 16
Flags: M
HStem: 0 2<3 11> 8 2<6 7> 12 2<6 7> 16 2<3 11>
VStem: 0 2<3 15> 4 2<4 8 10 12> 8 2<4 7 10.776 11.224> 12 2<3 15>
LayerCount: 2
Back
Fore
SplineSet
8 12 m 25
 6 12 l 25
 6 10 l 25
 8 10 l 25
 8 12 l 25
4 14 m 25
 7 14 l 25
 10 11 l 25
 8 9 l 25
 10 7 l 25
 10 4 l 29
 8 4 l 29
 8 7 l 25
 7 8 l 25
 6 8 l 25
 6 4 l 25
 4 4 l 25
 4 14 l 25
11 16 m 25
 3 16 l 1
 2 15 l 25
 2 3 l 25
 3 2 l 25
 11 2 l 25
 12 3 l 25
 12 15 l 1
 11 16 l 25
3 18 m 1
 11 18 l 1
 14 15 l 1
 14 3 l 1
 11 0 l 1
 3 0 l 1
 0 3 l 1
 0 15 l 1
 3 18 l 1
EndSplineSet
Validated: 1
EndChar

StartChar: macron
Encoding: 175 175 297
Width: 16
HStem: 22 4<2 14>
LayerCount: 2
Fore
SplineSet
2 26 m 25
 14 26 l 1
 14 22 l 29
 2 22 l 1
 2 26 l 25
EndSplineSet
Validated: 1
EndChar

StartChar: degree
Encoding: 176 176 298
Width: 16
HStem: 10 2<6 8> 18 2<6 8>
VStem: 2 4<13 17> 8 4<13 17>
LayerCount: 2
Back
Fore
SplineSet
8 18 m 25
 6 18 l 25
 6 12 l 25
 8 12 l 25
 8 18 l 25
5 20 m 1
 9 20 l 1
 12 17 l 1
 12 13 l 1
 9 10 l 1
 5 10 l 1
 2 13 l 5
 2 17 l 1
 5 20 l 1
EndSplineSet
Validated: 1
EndChar

StartChar: plusminus
Encoding: 177 177 299
Width: 16
Flags: MW
HStem: 0 4<2 14> 12 4<2 6 10 14>
VStem: 6 4<8 12 16 20>
LayerCount: 2
Fore
SplineSet
2 4 m 29
 14 4 l 29
 14 0 l 29
 2 0 l 29
 2 4 l 29
6 20 m 25
 10 20 l 25
 10 16 l 25
 14 16 l 25
 14 12 l 25
 10 12 l 25
 10 8 l 25
 6 8 l 25
 6 12 l 25
 2 12 l 25
 2 16 l 25
 6 16 l 25
 6 20 l 25
EndSplineSet
Validated: 1
EndChar

StartChar: uni00B2
Encoding: 178 178 300
Width: 16
HStem: 10 2<6 10> 14 2<6 8> 18 2<4 8>
VStem: 4 2<12 14> 8 2<16 18>
CounterMasks: 1 e0
LayerCount: 2
Fore
SplineSet
4 20 m 5
 10 20 l 29
 10 14 l 29
 6 14 l 5
 6 12 l 5
 10 12 l 5
 10 10 l 5
 4 10 l 5
 4 16 l 5
 8 16 l 5
 8 18 l 5
 4 18 l 5
 4 20 l 5
EndSplineSet
Validated: 1
EndChar

StartChar: uni00B3
Encoding: 179 179 301
Width: 16
Flags: M
HStem: 10 2<4 8> 14 2<4 8> 18 2<4 8>
VStem: 8 2<12 14 16 18>
CounterMasks: 1 e0
LayerCount: 2
Fore
SplineSet
4 20 m 1
 10 20 l 25
 10 10 l 25
 4 10 l 25
 4 12 l 25
 8 12 l 25
 8 14 l 25
 4 14 l 25
 4 16 l 25
 8 16 l 25
 8 18 l 1
 4 18 l 29
 4 20 l 1
EndSplineSet
Validated: 1
EndChar

StartChar: acute
Encoding: 180 180 302
Width: 16
HStem: 16 4<6 8>
VStem: 4 6
LayerCount: 2
Fore
SplineSet
6 20 m 1
 10 20 l 5
 8 16 l 1
 4 16 l 1
 6 20 l 1
EndSplineSet
Validated: 1
EndChar

StartChar: mu
Encoding: 181 181 303
Width: 16
Flags: M
HStem: 0 2<4 10>
VStem: 0 4<-4 0 2 14> 10 4<3 14>
LayerCount: 2
Fore
SplineSet
0 14 m 25
 4 14 l 25
 4 2 l 25
 10 2 l 25
 10 14 l 25
 14 14 l 1
 14 3 l 5
 11 0 l 1
 4 0 l 1
 4 -4 l 25
 0 -4 l 25
 0 14 l 25
EndSplineSet
Validated: 1
EndChar

StartChar: paragraph
Encoding: 182 182 304
Width: 16
Flags: M
HStem: 18 2<8 10>
VStem: 4 4<0 9> 10 4<0 18>
LayerCount: 2
Fore
SplineSet
5 20 m 1
 14 20 l 1
 14 0 l 1
 10 0 l 1
 10 18 l 1
 8 18 l 1
 8 0 l 1
 4 0 l 1
 4 9 l 5
 0 13 l 1
 0 15 l 1
 5 20 l 1
EndSplineSet
Validated: 1
EndChar

StartChar: periodcentered
Encoding: 183 183 305
Width: 16
Flags: W
HStem: 8 4<6 10>
VStem: 6 4<8 12>
LayerCount: 2
Fore
SplineSet
6 12 m 1
 10 12 l 1
 10 8 l 1
 6 8 l 5
 6 12 l 1
EndSplineSet
Validated: 1
EndChar

StartChar: cedilla
Encoding: 184 184 306
Width: 16
Flags: W
HStem: -6 6
VStem: 6 4
LayerCount: 2
Fore
SplineSet
6 0 m 25
 8 0 l 25
 10 -3 l 1
 8 -6 l 1
 6 -6 l 1
 8 -3 l 1
 6 0 l 25
EndSplineSet
Validated: 1
EndChar

StartChar: uni00B9
Encoding: 185 185 307
Width: 16
Flags: M
HStem: 10 2<4 6 8 10> 16 2<4 6>
VStem: 6 2<12 16 18 20>
LayerCount: 2
Fore
SplineSet
6 20 m 1
 8 20 l 25
 8 12 l 25
 10 12 l 25
 10 10 l 25
 4 10 l 25
 4 12 l 25
 6 12 l 1
 6 16 l 1
 4 16 l 5
 4 18 l 5
 6 18 l 1
 6 20 l 1
EndSplineSet
Validated: 1
EndChar

StartChar: ordmasculine
Encoding: 186 186 308
Width: 16
HStem: 10 2<6 8> 18 2<6 8>
VStem: 4 2<12 18> 8 2<12 18>
LayerCount: 2
Fore
SplineSet
8 18 m 1
 6 18 l 1
 6 12 l 1
 8 12 l 1
 8 18 l 1
4 18 m 1
 6 20 l 1
 8 20 l 1
 10 18 l 1
 10 12 l 1
 8 10 l 1
 6 10 l 1
 4 12 l 5
 4 18 l 1
EndSplineSet
Validated: 1
EndChar

StartChar: guillemotright
Encoding: 187 187 309
Width: 16
Flags: W
HStem: 0 21G<4 4 10 10>
LayerCount: 2
Fore
SplineSet
4 0 m 5
 -0 0 l 5
 4 5 l 5
 0 10 l 5
 4 10 l 5
 8 5 l 5
 4 0 l 5
10 0 m 5
 6 0 l 5
 10 5 l 5
 6 10 l 5
 10 10 l 5
 14 5 l 5
 10 0 l 5
EndSplineSet
Validated: 1
EndChar

StartChar: onequarter
Encoding: 188 188 310
Width: 16
Flags: M
HStem: 2 2<10 12> 12 2<0 2 4 6> 18 2<0 2>
VStem: 2 2<14 18 20 22> 8 2<4 8> 12 2<-2 2 4 8>
LayerCount: 2
Back
Fore
SplineSet
12 18 m 1
 14 18 l 1
 2 2 l 1
 0 2 l 1
 12 18 l 1
8 8 m 29
 10 8 l 29
 10 4 l 25
 12 4 l 25
 12 8 l 25
 14 8 l 25
 14 -2 l 25
 12 -2 l 25
 12 2 l 25
 8 2 l 25
 8 8 l 29
0 20 m 25
 2 20 l 25
 2 22 l 25
 4 22 l 25
 4 14 l 25
 6 14 l 25
 6 12 l 25
 0 12 l 25
 0 14 l 25
 2 14 l 25
 2 18 l 25
 0 18 l 25
 0 20 l 25
EndSplineSet
Validated: 1
EndChar

StartChar: onehalf
Encoding: 189 189 311
Width: 16
Flags: MW
HStem: -2 2<10 14> 2 2<10 12> 6 2<8 12> 12 2<0 2 4 6> 18 2<0 2>
VStem: 2 2<14 18 20 22> 8 2<0 2> 12 2<4 6>
LayerCount: 2
Fore
SplineSet
8 8 m 1
 14 8 l 1
 14 2 l 1
 10 2 l 5
 10 0 l 1
 14 0 l 1
 14 -2 l 1
 8 -2 l 1
 8 4 l 5
 12 4 l 1
 12 6 l 1
 8 6 l 1
 8 8 l 1
12 18 m 1
 14 18 l 1
 2 2 l 1
 0 2 l 1
 12 18 l 1
0 20 m 25
 2 20 l 25
 2 22 l 25
 4 22 l 25
 4 14 l 25
 6 14 l 25
 6 12 l 25
 0 12 l 25
 0 14 l 25
 2 14 l 25
 2 18 l 25
 0 18 l 25
 0 20 l 25
EndSplineSet
Validated: 1
EndChar

StartChar: threequarters
Encoding: 190 190 312
Width: 16
Flags: MW
HStem: 2 2<10 12> 12 2<0 4> 16 2<0 4> 20 2<0 4>
VStem: 4 2<14 16 18 20> 8 2<4 8> 12 2<-2 2 4 8>
LayerCount: 2
Fore
SplineSet
12 18 m 1
 14 18 l 1
 2 2 l 1
 0 2 l 1
 12 18 l 1
8 8 m 29
 10 8 l 29
 10 4 l 25
 12 4 l 25
 12 8 l 25
 14 8 l 25
 14 -2 l 25
 12 -2 l 25
 12 2 l 25
 8 2 l 25
 8 8 l 29
0 18 m 1
 4 18 l 1
 4 20 l 1
 0 20 l 1
 0 22 l 1
 6 22 l 1
 6 12 l 1
 0 12 l 25
 0 14 l 1
 4 14 l 1
 4 16 l 1
 0 16 l 1
 0 18 l 1
EndSplineSet
Validated: 1
EndChar

StartChar: questiondown
Encoding: 191 191 313
Width: 16
Flags: W
HStem: -4 2<4 8> 12 4<4 8>
VStem: 0 4<-1 4> 4 4<12 16> 8 4<-1 2>
LayerCount: 2
Fore
SplineSet
12 2 m 5xc8
 12 -1 l 5
 9 -4 l 5
 3 -4 l 5
 0 -1 l 5
 0 4 l 5xe8
 4 8 l 5xd0
 8 8 l 5
 4 4 l 5xe8
 4 -2 l 5xd0
 8 -2 l 5
 8 2 l 5
 12 2 l 5xc8
8 12 m 29xd0
 4 12 l 29
 4 16 l 29
 8 16 l 29
 8 12 l 29xd0
EndSplineSet
Validated: 1
EndChar

StartChar: AE
Encoding: 198 198 314
Width: 16
Flags: W
HStem: 0 2<10 14> 6 2<4 6> 10 2<10 14> 18 2<4 6 10 14>
VStem: 0 4<0 6 8 17> 6 4<2 6 8 10 12 18>
AnchorPoint: "top" 7 20 basechar 0
LayerCount: 2
Fore
SplineSet
6 18 m 29
 4 18 l 29
 4 8 l 29
 6 8 l 29
 6 18 l 29
3 20 m 5
 14 20 l 5
 14 18 l 5
 10 18 l 5
 10 12 l 5
 14 12 l 5
 14 10 l 5
 10 10 l 5
 10 2 l 5
 14 2 l 5
 14 0 l 5
 6 0 l 5
 6 6 l 5
 4 6 l 5
 4 0 l 5
 0 0 l 5
 0 17 l 5
 3 20 l 5
EndSplineSet
Validated: 1
EndChar

StartChar: ae
Encoding: 230 230 315
Width: 16
Flags: M
HStem: 0 2<4 6 10 14> 4 2<10 12> 8 2<4 6> 12 2<2 6>
VStem: 0 4<3 7> 6 4<2 4 6 8> 12 2<6 10>
AnchorPoint: "top" 7 14 basechar 0
LayerCount: 2
Fore
SplineSet
6 8 m 1
 4 8 l 25
 4 2 l 1
 6 2 l 25
 6 8 l 1
12 10 m 1
 10 10 l 1
 10 6 l 1
 12 6 l 5
 12 10 l 1
2 14 m 1
 11 14 l 1
 14 11 l 1
 14 4 l 5
 10 4 l 1
 10 2 l 1
 14 2 l 1
 14 0 l 1
 3 0 l 1
 0 3 l 1
 0 7 l 1
 3 10 l 1
 6 10 l 1
 6 12 l 1
 2 12 l 25
 2 14 l 1
EndSplineSet
Validated: 1
EndChar

StartChar: Eth
Encoding: 208 208 316
Width: 16
Flags: W
HStem: 0 2<6 7> 8 4<0 2 6 8> 18 2<6 7>
VStem: 2 4<2 8 12 18> 10 4<6 14>
CounterMasks: 1 e0
AnchorPoint: "top" 7 20 basechar 0
AnchorPoint: "bottom" 7 0 basechar 0
LayerCount: 2
Fore
SplineSet
7 18 m 5
 6 18 l 5
 6 12 l 5
 8 12 l 5
 8 8 l 5
 6 8 l 5
 6 2 l 5
 7 2 l 5
 10 6 l 5
 10 14 l 5
 7 18 l 5
2 20 m 5
 10 20 l 5
 14 14 l 5
 14 6 l 5
 10 0 l 5
 2 0 l 5
 2 8 l 5
 0 8 l 5
 0 12 l 5
 2 12 l 5
 2 20 l 5
EndSplineSet
Validated: 1
EndChar

StartChar: eth
Encoding: 240 240 317
Width: 16
Flags: MW
HStem: 0 2<4 8> 12 2<4 8> 16 2<6 8 12 14>
VStem: 0 4<3 11> 8 4<2 12 14 16 18 20>
LayerCount: 2
Fore
SplineSet
8 20 m 5
 12 20 l 5
 12 18 l 5
 14 18 l 5
 14 16 l 5
 12 16 l 5
 12 0 l 5
 3 0 l 5
 0 3 l 5
 0 11 l 5
 3 14 l 5
 8 14 l 5
 8 16 l 5
 6 16 l 5
 6 18 l 5
 8 18 l 5
 8 20 l 5
8 12 m 5
 4 12 l 5
 4 2 l 5
 8 2 l 5
 8 12 l 5
EndSplineSet
Validated: 1
EndChar

StartChar: multiply
Encoding: 215 215 318
Width: 16
Flags: MW
LayerCount: 2
Fore
SplineSet
2 14 m 1
 2 16 l 1
 4 16 l 1
 8 12 l 1
 12 16 l 1
 14 16 l 1
 14 14 l 1
 10 10 l 1
 14 6 l 1
 14 4 l 1
 12 4 l 1
 8 8 l 1
 4 4 l 1
 2 4 l 5
 2 6 l 1
 6 10 l 1
 2 14 l 1
EndSplineSet
Validated: 1
EndChar

StartChar: divide
Encoding: 247 247 319
Width: 16
Flags: W
HStem: 4 2<6 10> 8 4<2 14> 14 2<6 10>
VStem: 6 4<4 6 14 16>
CounterMasks: 1 e0
LayerCount: 2
Fore
SplineSet
10 14 m 5
 6 14 l 5
 6 16 l 5
 10 16 l 5
 10 14 l 5
10 6 m 5
 10 4 l 5
 6 4 l 5
 6 6 l 5
 10 6 l 5
14 8 m 5
 2 8 l 29
 2 12 l 5
 14 12 l 5
 14 8 l 5
EndSplineSet
Validated: 1
EndChar

StartChar: Oslash
Encoding: 216 216 320
Width: 16
Flags: MW
HStem: 0 2<4 10> 18 2<4 10>
VStem: 0 4<6 17> 10 4<3 14>
AnchorPoint: "top" 7 20 basechar 0
AnchorPoint: "bottom" 7 0 basechar 0
LayerCount: 2
Fore
SplineSet
12 22 m 5
 14 22 l 5
 14 20 l 5
 14 17 l 5
 14 3 l 5
 11 0 l 5
 2 0 l 5
 2 -2 l 5
 0 -2 l 5
 0 1 l 5
 0 3 l 5
 0 17 l 5
 3 20 l 5
 12 20 l 5
 12 22 l 5
4 6 m 5
 10 18 l 5
 4 18 l 5
 4 6 l 5
4 2 m 5
 10 2 l 5
 10 14 l 5
 4 2 l 5
EndSplineSet
Validated: 1
EndChar

StartChar: oslash
Encoding: 248 248 321
Width: 16
Flags: MW
HStem: 0 2<4 10> 12 2<4 10>
VStem: 0 4<5 11> 10 4<3 9>
AnchorPoint: "top" 7 14 basechar 0
AnchorPoint: "bottom" 7 -0 basechar 0
LayerCount: 2
Fore
SplineSet
12 16 m 5
 14 16 l 5
 14 3 l 5
 11 0 l 5
 2 0 l 5
 2 -2 l 5
 0 -2 l 5
 0 11 l 5
 3 14 l 5
 12 14 l 5
 12 16 l 5
10 12 m 5
 4 12 l 5
 4 5 l 5
 10 12 l 5
4 2 m 5
 10 2 l 5
 10 9 l 5
 4 2 l 5
EndSplineSet
Validated: 1
EndChar

StartChar: Thorn
Encoding: 222 222 322
Width: 16
Flags: M
HStem: 6 2<4 10> 12 2<4 10>
VStem: 0 4<0 6 8 12 14 20> 10 4<9 11>
LayerCount: 2
Fore
SplineSet
10 12 m 5
 4 12 l 5
 4 8 l 5
 10 8 l 5
 10 12 l 5
0 20 m 29
 4 20 l 29
 4 14 l 5
 11 14 l 5
 14 11 l 5
 14 9 l 5
 11 6 l 5
 4 6 l 5
 4 0 l 5
 0 0 l 29
 0 20 l 29
EndSplineSet
Validated: 1
EndChar

StartChar: thorn
Encoding: 254 254 323
Width: 16
Flags: W
HStem: 0 20G<0 4> 2 2<4 10> 12 2<4 10>
VStem: 0 4<-4 2 4 12 14 20> 10 4<5 11>
LayerCount: 2
Fore
SplineSet
10 12 m 1x78
 4 12 l 1
 4 4 l 5
 10 4 l 5
 10 12 l 1x78
0 20 m 25x98
 4 20 l 25x98
 4 14 l 1
 11 14 l 1
 14 11 l 1
 14 5 l 5
 11 2 l 5
 4 2 l 5x78
 4 -4 l 1
 0 -4 l 25
 0 20 l 25x98
EndSplineSet
Validated: 1
EndChar

StartChar: germandbls
Encoding: 223 223 324
Width: 16
Flags: M
HStem: 18 2<4 10>
VStem: 0 4<0 18> 10 4<4 8>
LayerCount: 2
Fore
SplineSet
0 0 m 1
 0 20 l 1
 11 20 l 1
 14 17 l 1
 11 14 l 1
 11 12 l 1
 14 9 l 1
 14 3 l 1
 11 0 l 1
 6 0 l 1
 10 4 l 1
 10 8 l 1
 6 12 l 1
 6 14 l 1
 10 18 l 1
 4 18 l 1
 4 0 l 25
 0 0 l 1
EndSplineSet
Validated: 1
EndChar

StartChar: Dcroat
Encoding: 272 272 329
Width: 16
Flags: W
HStem: 0 2<6 7> 8 4<0 2 6 8> 18 2<6 7>
VStem: 2 4<2 8 12 18> 10 4<6 14>
CounterMasks: 1 e0
AnchorPoint: "bottom" 7 0 basechar 0
AnchorPoint: "top" 7 20 basechar 0
LayerCount: 2
Fore
SplineSet
7 18 m 5
 6 18 l 5
 6 12 l 5
 8 12 l 5
 8 8 l 5
 6 8 l 5
 6 2 l 5
 7 2 l 5
 10 6 l 5
 10 14 l 5
 7 18 l 5
2 20 m 5
 10 20 l 5
 14 14 l 5
 14 6 l 5
 10 0 l 5
 2 0 l 5
 2 8 l 5
 0 8 l 5
 0 12 l 5
 2 12 l 5
 2 20 l 5
EndSplineSet
Validated: 1
EndChar

StartChar: dcroat
Encoding: 273 273 330
Width: 16
Flags: MW
HStem: 0 2<4 8> 12 2<4 8> 16 2<6 8 12 14>
VStem: 0 4<3 11> 8 4<2 12 14 16 18 20>
LayerCount: 2
Fore
SplineSet
8 20 m 1
 12 20 l 1
 12 18 l 1
 14 18 l 1
 14 16 l 1
 12 16 l 1
 12 0 l 1
 3 0 l 1
 0 3 l 1
 0 11 l 1
 3 14 l 1
 8 14 l 1
 8 16 l 1
 6 16 l 1
 6 18 l 1
 8 18 l 1
 8 20 l 1
8 12 m 1
 4 12 l 1
 4 2 l 1
 8 2 l 1
 8 12 l 1
EndSplineSet
Validated: 1
EndChar

StartChar: uni030B
Encoding: 779 779 331
Width: 16
Flags: W
HStem: 22 4<4 6 10 12>
AnchorPoint: "top" 8 20 mark 0
LayerCount: 2
Fore
SplineSet
10 26 m 5
 14 26 l 5
 12 22 l 5
 8 22 l 5
 10 26 l 5
4 26 m 5
 8 26 l 5
 6 22 l 5
 2 22 l 5
 4 26 l 5
EndSplineSet
Validated: 1
EndChar

StartChar: ogonek
Encoding: 731 731 332
Width: 16
Flags: W
HStem: -6 6
VStem: 4 4
AnchorPoint: "bottom" 7 -0 mark 0
LayerCount: 2
Fore
SplineSet
6 0 m 5
 8 0 l 5
 6 -3 l 29
 8 -6 l 5
 6 -6 l 5
 4 -3 l 29
 6 0 l 5
EndSplineSet
Validated: 1
EndChar

StartChar: hungarumlaut
Encoding: 733 733 333
Width: 16
Flags: W
HStem: 22 4<4 6 10 12>
LayerCount: 2
Fore
SplineSet
10 26 m 5
 14 26 l 5
 12 22 l 5
 8 22 l 5
 10 26 l 5
4 26 m 5
 8 26 l 5
 6 22 l 5
 2 22 l 5
 4 26 l 5
EndSplineSet
Validated: 1
EndChar

StartChar: uni02C9
Encoding: 713 713 334
Width: 16
Flags: W
HStem: 22 4<2 14>
LayerCount: 2
Fore
SplineSet
2 26 m 5
 14 26 l 5
 14 22 l 5
 2 22 l 5
 2 26 l 5
EndSplineSet
Validated: 1
EndChar

StartChar: caron
Encoding: 711 711 335
Width: 16
Flags: W
HStem: 22 4
LayerCount: 2
Fore
SplineSet
14 26 m 5
 8 22 l 5
 2 26 l 5
 5 26 l 5
 8 24 l 5
 11 26 l 5
 14 26 l 5
EndSplineSet
Validated: 1
EndChar

StartChar: circumflex
Encoding: 710 710 336
Width: 16
Flags: W
HStem: 22 4
LayerCount: 2
Fore
SplineSet
2 22 m 5
 8 26 l 5
 14 22 l 5
 11 22 l 5
 8 24 l 5
 5 22 l 5
 2 22 l 5
EndSplineSet
Validated: 1
EndChar

StartChar: dcaron
Encoding: 271 271 341
Width: 16
Flags: MW
HStem: 0 2<4 6> 12 2<4 6>
VStem: 0 4<3 11> 6 4<2 12 14 20> 12 2<14 20>
LayerCount: 2
Fore
SplineSet
12 20 m 5
 14 20 l 1
 14 14 l 1
 12 14 l 5
 12 20 l 5
6 12 m 25
 4 12 l 25
 4 2 l 25
 6 2 l 25
 6 12 l 25
6 20 m 25
 10 20 l 25
 10 0 l 1
 3 0 l 1
 0 3 l 1
 0 11 l 1
 3 14 l 1
 6 14 l 1
 6 20 l 25
EndSplineSet
Validated: 1
EndChar

StartChar: uni0122
Encoding: 290 290 342
Width: 16
Flags: MW
HStem: 0 2<4 6 8 10> 8 2<6 10> 18 2<4 10>
VStem: 0 4<3 17> 10 4<3 8 14 17>
AnchorPoint: "top" 7 20 basechar 0
LayerCount: 2
Fore
SplineSet
0 17 m 1
 3 20 l 1
 11 20 l 1
 14 17 l 1
 14 14 l 1
 10 14 l 1
 10 18 l 1
 4 18 l 1
 4 2 l 1
 10 2 l 1
 10 8 l 1
 6 8 l 1
 6 10 l 1
 14 10 l 1
 14 3 l 1
 11 0 l 1
 8 0 l 1
 10 -3 l 1
 8 -6 l 1
 6 -6 l 1
 8 -3 l 1
 6 0 l 1
 3 0 l 1
 0 3 l 1
 0 17 l 1
EndSplineSet
Validated: 1
EndChar

StartChar: uni0123
Encoding: 291 291 343
Width: 16
Flags: MW
HStem: -4 2<4 10> 0 20G<6 6> 2 2<4 10> 12 2<4 6 8 10>
VStem: 0 4<-1 0 5 11> 10 4<-1 2 4 12>
AnchorPoint: "bottom" 7 -4 basechar 0
LayerCount: 2
Fore
SplineSet
0 11 m 1xac
 3 14 l 1
 6 14 l 1xbc
 4 17 l 1
 6 20 l 1
 8 20 l 1xcc
 6 17 l 1
 8 14 l 1
 14 14 l 1x9c
 14 -1 l 1
 11 -4 l 1
 3 -4 l 1
 0 -1 l 1
 0 0 l 1
 4 0 l 1xcc
 4 -2 l 1
 10 -2 l 1
 10 2 l 1
 3 2 l 1
 0 5 l 1
 0 11 l 1xac
10 12 m 1
 4 12 l 1
 4 4 l 1
 10 4 l 1
 10 12 l 1
EndSplineSet
Validated: 1
EndChar

StartChar: Hbar
Encoding: 294 294 344
Width: 16
Flags: MW
HStem: 10 2<4 10> 14 2<4 10>
VStem: 0 4<0 10 12 14 16 20> 10 4<0 10 12 14 16 20>
AnchorPoint: "top" 7 20 basechar 0
LayerCount: 2
Fore
SplineSet
0 20 m 1
 4 20 l 1
 4 16 l 1
 10 16 l 1
 10 20 l 1
 14 20 l 1
 14 0 l 1
 10 0 l 1
 10 10 l 1
 4 10 l 1
 4 0 l 1
 0 0 l 1
 0 20 l 1
4 14 m 1
 4 12 l 1
 10 12 l 1
 10 14 l 1
 4 14 l 1
EndSplineSet
Validated: 1
EndChar

StartChar: hbar
Encoding: 295 295 345
Width: 16
Flags: MW
HStem: 12 2<6 10> 16 2<0 2 6 8>
VStem: 2 4<0 12 14 16 18 20> 10 4<0 11>
LayerCount: 2
Fore
SplineSet
2 20 m 5
 6 20 l 5
 6 18 l 5
 8 18 l 5
 8 16 l 5
 6 16 l 5
 6 14 l 5
 11 14 l 5
 14 11 l 5
 14 0 l 5
 10 0 l 5
 10 12 l 5
 6 12 l 5
 6 0 l 5
 2 0 l 5
 2 16 l 5
 0 16 l 5
 0 18 l 5
 2 18 l 5
 2 20 l 5
EndSplineSet
Validated: 1
EndChar

StartChar: IJ
Encoding: 306 306 346
Width: 16
Flags: MW
HStem: 0 2<10 12>
VStem: 0 4<0 20> 6 4<3 6> 12 4<3 20>
CounterMasks: 1 70
LayerCount: 2
Fore
SplineSet
12 20 m 1
 16 20 l 1
 16 3 l 1
 13 0 l 1
 9 0 l 1
 6 3 l 1
 6 6 l 1
 10 6 l 1
 10 2 l 1
 12 2 l 1
 12 20 l 1
0 20 m 1
 4 20 l 5
 4 0 l 1
 0 0 l 1
 0 20 l 1
EndSplineSet
Validated: 1
EndChar

StartChar: ij
Encoding: 307 307 347
Width: 16
Flags: MW
HStem: -4 2<10 12> 10 2<10 12> 16 4<0 4 12 16>
VStem: 0 4<0 12 16 20> 12 4<-1 10 16 20>
LayerCount: 2
Fore
SplineSet
10 12 m 5
 16 12 l 5
 16 -1 l 5
 13 -4 l 5
 9 -4 l 5
 6 -1 l 5
 6 0 l 5
 10 0 l 29
 10 -2 l 29
 12 -2 l 5
 12 10 l 5
 10 10 l 5
 10 12 l 5
12 20 m 29
 16 20 l 29
 16 16 l 29
 12 16 l 29
 12 20 l 29
0 16 m 29
 0 20 l 29
 4 20 l 29
 4 16 l 29
 0 16 l 29
0 0 m 5
 0 12 l 5
 4 12 l 5
 4 0 l 5
 0 0 l 5
EndSplineSet
Validated: 1
EndChar

StartChar: uni0136
Encoding: 310 310 348
Width: 16
Flags: MW
VStem: 0 4<0 8 12 20>
LayerCount: 2
Fore
SplineSet
6 0 m 5
 8 0 l 5
 10 -3 l 5
 8 -6 l 5
 6 -6 l 5
 8 -3 l 5
 6 0 l 5
0 20 m 25
 4 20 l 1
 4 12 l 25
 10 20 l 1
 14 20 l 1
 7 10 l 1
 14 0 l 1
 10 0 l 1
 4 8 l 25
 4 0 l 1
 0 0 l 25
 0 20 l 25
EndSplineSet
Validated: 1
EndChar

StartChar: uni0137
Encoding: 311 311 349
Width: 16
Flags: MW
VStem: 0 4<0 6 8 20>
LayerCount: 2
Fore
SplineSet
6 0 m 5
 8 0 l 5
 10 -3 l 5
 8 -6 l 5
 6 -6 l 5
 8 -3 l 5
 6 0 l 5
0 20 m 25
 4 20 l 1
 4 8 l 1
 10 14 l 1
 14 14 l 1
 8 8 l 1
 8 6 l 1
 14 0 l 1
 10 0 l 1
 4 6 l 25
 4 0 l 1
 0 0 l 25
 0 20 l 25
EndSplineSet
Validated: 1
EndChar

StartChar: kgreenlandic
Encoding: 312 312 350
Width: 16
Flags: MW
VStem: 0 4<0 5 9 14>
LayerCount: 2
Fore
SplineSet
0 14 m 25
 4 14 l 1
 4 9 l 25
 10 14 l 1
 14 14 l 1
 6 7 l 5
 14 0 l 1
 10 0 l 1
 4 5 l 25
 4 0 l 1
 0 0 l 25
 0 14 l 25
EndSplineSet
Validated: 1
EndChar

StartChar: uni013B
Encoding: 315 315 351
Width: 16
Flags: MW
HStem: 0 2<4 6 8 14>
VStem: 0 4<2 20>
AnchorPoint: "top" 2 20 basechar 0
LayerCount: 2
Fore
SplineSet
0 20 m 1
 4 20 l 1
 4 2 l 1
 14 2 l 1
 14 0 l 1
 8 0 l 1
 10 -3 l 1
 8 -6 l 1
 6 -6 l 1
 8 -3 l 1
 6 0 l 1
 0 0 l 1
 0 20 l 1
EndSplineSet
Validated: 1
EndChar

StartChar: Lcaron
Encoding: 317 317 352
Width: 16
Flags: MW
HStem: 0 2<4 14> 14 21G<12 12>
VStem: 0 4<2 20>
AnchorPoint: "bottom" 8 -0 basechar 0
AnchorPoint: "top" 2 20 basechar 0
LayerCount: 2
Fore
SplineSet
10 20 m 5
 12 20 l 5
 14 17 l 5
 12 14 l 5
 10 14 l 5
 12 17 l 5
 10 20 l 5
0 20 m 29
 4 20 l 29
 4 2 l 29
 14 2 l 29
 14 0 l 29
 0 0 l 29
 0 20 l 29
EndSplineSet
Validated: 1
EndChar

StartChar: Ldot
Encoding: 319 319 353
Width: 16
Flags: MW
HStem: 0 2<4 14> 10 4<7 11>
VStem: 0 4<2 20> 7 4<10 14>
AnchorPoint: "top" 2 20 basechar 0
AnchorPoint: "bottom" 8 -0 basechar 0
LayerCount: 2
Fore
SplineSet
7 14 m 1
 11 14 l 1
 11 10 l 1
 7 10 l 1
 7 14 l 1
0 20 m 25
 4 20 l 25
 4 2 l 25
 14 2 l 29
 14 0 l 29
 0 0 l 25
 0 20 l 25
EndSplineSet
Validated: 1
EndChar

StartChar: uni013C
Encoding: 316 316 354
Width: 16
Flags: MW
VStem: 6 4<3 20>
AnchorPoint: "top" 8 20 basechar 0
LayerCount: 2
Fore
SplineSet
6 0 m 1
 8 0 l 1
 10 -3 l 1
 8 -6 l 1
 6 -6 l 1
 8 -3 l 1
 6 0 l 1
6 20 m 1
 10 20 l 1
 10 3 l 1
 13 0 l 1
 9 0 l 1
 6 3 l 1
 6 20 l 1
EndSplineSet
Validated: 1
EndChar

StartChar: lcaron
Encoding: 318 318 355
Width: 16
Flags: MW
HStem: 14 21G<12 12>
VStem: 4 4<3 20>
AnchorPoint: "top" 6 20 basechar 0
AnchorPoint: "bottom" 6 0 basechar 0
LayerCount: 2
Fore
SplineSet
10 20 m 5
 12 20 l 5
 14 17 l 5
 12 14 l 5
 10 14 l 5
 12 17 l 5
 10 20 l 5
4 20 m 1
 8 20 l 1
 8 3 l 1
 11 0 l 1
 7 0 l 1
 4 3 l 1
 4 20 l 1
EndSplineSet
Validated: 1
EndChar

StartChar: ldot
Encoding: 320 320 356
Width: 16
Flags: MW
HStem: 10 4<10 14>
VStem: 4 4<3 20> 10 4<10 14>
AnchorPoint: "top" 6 20 basechar 0
AnchorPoint: "bottom" 6 0 basechar 0
LayerCount: 2
Fore
SplineSet
10 14 m 5
 14 14 l 5
 14 10 l 5
 10 10 l 5
 10 14 l 5
4 20 m 1
 8 20 l 1
 8 3 l 1
 11 0 l 1
 7 0 l 1
 4 3 l 1
 4 20 l 1
EndSplineSet
Validated: 1
EndChar

StartChar: lslash
Encoding: 322 322 357
Width: 16
Flags: MW
VStem: 6 4<3 6 8 10 12 20>
AnchorPoint: "top" 8 20 basechar 0
AnchorPoint: "bottom" 8 -0 basechar 0
LayerCount: 2
Fore
SplineSet
6 20 m 1
 10 20 l 1
 10 12 l 1
 12 14 l 1
 14 14 l 1
 10 10 l 1
 10 3 l 1
 13 0 l 1
 9 0 l 1
 6 3 l 1
 6 6 l 1
 4 4 l 1
 2 4 l 1
 6 8 l 1
 6 20 l 1
EndSplineSet
Validated: 1
EndChar

StartChar: Lslash
Encoding: 321 321 358
Width: 16
Flags: MW
HStem: 0 2<6 14>
VStem: 2 4<2 6 8 10 12 20>
AnchorPoint: "bottom" 8 -0 basechar 0
AnchorPoint: "top" 4 20 basechar 0
LayerCount: 2
Fore
SplineSet
2 20 m 1
 6 20 l 1
 6 12 l 1
 8 14 l 1
 10 14 l 1
 6 10 l 1
 6 2 l 1
 14 2 l 1
 14 0 l 1
 2 0 l 1
 2 6 l 1
 0 6 l 1
 2 8 l 1
 2 20 l 1
EndSplineSet
Validated: 1
EndChar

StartChar: uni0145
Encoding: 325 325 359
Width: 16
Flags: MW
VStem: 0 4<0 12> 10 4<8 20>
AnchorPoint: "top" 7 20 basechar 0
LayerCount: 2
Fore
SplineSet
6 0 m 5
 8 0 l 5
 10 -3 l 5
 8 -6 l 5
 6 -6 l 5
 8 -3 l 5
 6 0 l 5
0 20 m 25
 4 20 l 1
 10 8 l 25
 10 20 l 1
 14 20 l 25
 14 0 l 25
 10 0 l 1
 4 12 l 1
 4 0 l 1
 0 0 l 1
 0 20 l 25
EndSplineSet
Validated: 1
EndChar

StartChar: uni0146
Encoding: 326 326 360
Width: 16
Flags: MW
HStem: 12 2<4 10>
VStem: 0 4<0 12> 10 4<0 11>
AnchorPoint: "top" 7 14 basechar 0
LayerCount: 2
Fore
SplineSet
6 0 m 5
 8 0 l 5
 10 -3 l 5
 8 -6 l 5
 6 -6 l 5
 8 -3 l 5
 6 0 l 5
0 0 m 25
 0 14 l 17
 11 14 l 1
 14 11 l 1
 14 0 l 1
 10 0 l 25
 10 12 l 17
 4 12 l 9
 4 0 l 1
 0 0 l 25
EndSplineSet
Validated: 1
EndChar

StartChar: napostrophe
Encoding: 329 329 361
Width: 16
Flags: MW
HStem: 12 2<4 10> 16 4<0 4>
VStem: 0 4<0 12 16 20> 10 4<0 11>
AnchorPoint: "top" 7 14 basechar 0
LayerCount: 2
Fore
SplineSet
0 20 m 29
 4 20 l 25
 4 16 l 25
 0 16 l 25
 0 20 l 29
0 0 m 25
 0 14 l 17
 11 14 l 1
 14 11 l 1
 14 0 l 1
 10 0 l 25
 10 12 l 17
 4 12 l 9
 4 0 l 1
 0 0 l 25
EndSplineSet
Validated: 1
EndChar

StartChar: eng
Encoding: 331 331 362
Width: 16
Flags: MW
HStem: 12 2<4 10>
VStem: 0 4<0 12> 10 4<0 11>
AnchorPoint: "top" 7 14 basechar 0
LayerCount: 2
Fore
SplineSet
0 0 m 1
 0 14 l 1
 11 14 l 1
 14 11 l 1
 14 0 l 1
 10 -4 l 1
 6 -4 l 1
 10 0 l 1
 10 12 l 1
 4 12 l 1
 4 0 l 1
 0 0 l 1
EndSplineSet
Validated: 1
EndChar

StartChar: Eng
Encoding: 330 330 363
Width: 16
Flags: MW
HStem: 18 2<4 10>
VStem: 0 4<0 18> 10 4<0 17>
AnchorPoint: "top" 7 20 basechar 0
LayerCount: 2
Fore
SplineSet
0 0 m 1
 0 20 l 1
 11 20 l 1
 14 17 l 1
 14 0 l 1
 10 -4 l 1
 6 -4 l 1
 10 0 l 1
 10 18 l 1
 4 18 l 1
 4 0 l 1
 0 0 l 1
EndSplineSet
Validated: 1
EndChar

StartChar: OE
Encoding: 338 338 364
Width: 16
Flags: W
HStem: 0 2<4 6 10 14> 10 2<10 14> 18 2<4 6 10 14>
VStem: 0 4<3 17> 6 4<2 10 12 18>
AnchorPoint: "top" 7 20 basechar 0
LayerCount: 2
Fore
SplineSet
6 18 m 5
 4 18 l 5
 4 2 l 5
 6 2 l 5
 6 18 l 5
3 20 m 5
 14 20 l 5
 14 18 l 5
 10 18 l 5
 10 12 l 5
 14 12 l 5
 14 10 l 5
 10 10 l 5
 10 2 l 5
 14 2 l 5
 14 0 l 5
 3 0 l 5
 0 3 l 5
 0 17 l 5
 3 20 l 5
EndSplineSet
Validated: 1
EndChar

StartChar: oe
Encoding: 339 339 365
Width: 16
Flags: MW
HStem: 0 2<4 6 10 14> 4 2<10 12> 12 2<4 6>
VStem: 0 4<3 11> 6 4<2 4 6 10> 12 2<6 10>
AnchorPoint: "top" 7 14 basechar 0
LayerCount: 2
Fore
SplineSet
6 12 m 1
 4 12 l 1
 4 2 l 1
 6 2 l 1
 6 12 l 1
12 10 m 1
 10 10 l 1
 10 6 l 1
 12 6 l 1
 12 10 l 1
3 14 m 1
 11 14 l 1
 14 11 l 1
 14 4 l 1
 10 4 l 1
 10 2 l 1
 14 2 l 1
 14 0 l 1
 3 0 l 1
 0 3 l 1
 0 11 l 1
 3 14 l 1
EndSplineSet
Validated: 1
EndChar

StartChar: uni0156
Encoding: 342 342 366
Width: 16
Flags: MW
HStem: 10 2<8 10> 18 2<4 10>
VStem: 0 4<0 10 12 18> 10 4<0 3 13 17>
AnchorPoint: "top" 7 20 basechar 0
LayerCount: 2
Fore
SplineSet
6 0 m 5
 8 0 l 5
 10 -3 l 5
 8 -6 l 5
 6 -6 l 5
 8 -3 l 5
 6 0 l 5
10 18 m 1
 4 18 l 25
 4 12 l 1
 10 12 l 25
 10 18 l 1
0 0 m 25
 0 20 l 1
 11 20 l 1
 14 17 l 1
 14 13 l 1
 11 10 l 1
 8 10 l 1
 14 3 l 1
 14 0 l 1
 10 0 l 1
 10 3 l 1
 4 10 l 1
 4 0 l 1
 0 0 l 25
EndSplineSet
Validated: 1
EndChar

StartChar: uni0157
Encoding: 343 343 367
Width: 16
Flags: MW
VStem: 0 4<0 5 10 14>
AnchorPoint: "top" 7 14 basechar 0
LayerCount: 2
Fore
SplineSet
0 0 m 1
 0 14 l 1
 4 14 l 1
 4 10 l 1
 8 14 l 1
 13 14 l 1
 4 5 l 1
 4 0 l 1
 3 0 l 1
 5 -3 l 1
 3 -6 l 1
 1 -6 l 1
 3 -3 l 1
 1 0 l 1
 0 0 l 1
EndSplineSet
Validated: 1
EndChar

StartChar: tcaron
Encoding: 357 357 368
Width: 16
Flags: MW
HStem: 0 2<8 12> 12 2<0 4 8 12>
VStem: 4 4<3 12 14 20>
AnchorPoint: "bottom" 8 0 basechar 0
LayerCount: 2
Fore
SplineSet
10 22 m 5
 12 22 l 5
 14 19 l 5
 12 16 l 5
 10 16 l 5
 12 19 l 5
 10 22 l 5
4 20 m 1
 8 20 l 1
 8 14 l 1
 12 14 l 25
 12 12 l 1
 8 12 l 1
 8 2 l 1
 12 2 l 1
 12 0 l 1
 7 0 l 1
 4 3 l 1
 4 12 l 1
 0 12 l 25
 0 14 l 25
 4 14 l 25
 4 20 l 1
EndSplineSet
Validated: 1
EndChar

StartChar: Tbar
Encoding: 358 358 369
Width: 16
Flags: MW
HStem: 12 2<2 4 8 10> 18 2<0 4 8 12>
VStem: 4 4<0 12 14 18>
AnchorPoint: "top" 6 20 basechar 0
AnchorPoint: "bottom" 6 -0 basechar 0
LayerCount: 2
Fore
SplineSet
0 20 m 1
 12 20 l 1
 12 18 l 1
 8 18 l 1
 8 14 l 1
 10 14 l 1
 10 12 l 1
 8 12 l 1
 8 0 l 1
 4 0 l 1
 4 12 l 1
 2 12 l 1
 2 14 l 1
 4 14 l 1
 4 18 l 1
 0 18 l 1
 0 20 l 1
EndSplineSet
Validated: 1
EndChar

StartChar: tbar
Encoding: 359 359 370
Width: 16
Flags: MW
HStem: 0 2<8 12> 8 2<2 4 8 10> 12 2<0 4 8 12>
VStem: 4 4<3 8 10 12 14 20>
AnchorPoint: "bottom" 8 0 basechar 0
LayerCount: 2
Fore
SplineSet
4 20 m 1
 8 20 l 1
 8 14 l 1
 12 14 l 1
 12 12 l 1
 8 12 l 1
 8 10 l 1
 10 10 l 1
 10 8 l 1
 8 8 l 1
 8 2 l 1
 12 2 l 1
 12 0 l 1
 7 0 l 1
 4 3 l 1
 4 8 l 1
 2 8 l 1
 2 10 l 1
 4 10 l 1
 4 12 l 1
 0 12 l 1
 0 14 l 1
 4 14 l 1
 4 20 l 1
EndSplineSet
Validated: 1
EndChar

StartChar: longs
Encoding: 383 383 371
Width: 16
Flags: M
VStem: 4 4<0 16>
LayerCount: 2
Fore
SplineSet
8 20 m 1
 12 20 l 1
 8 16 l 1
 8 0 l 1
 4 0 l 1
 4 16 l 1
 8 20 l 1
EndSplineSet
Validated: 1
EndChar

StartChar: florin
Encoding: 402 402 372
Width: 16
Flags: MW
HStem: -4 2<0 4> 12 2<0 4 8 12> 18 2<8 12>
VStem: 4 4<-1 12 14 17>
LayerCount: 2
Fore
SplineSet
0 -2 m 1
 4 -2 l 1
 4 12 l 1
 0 12 l 1
 0 14 l 1
 4 14 l 1
 4 17 l 1
 7 20 l 1
 12 20 l 5
 12 18 l 5
 8 18 l 1
 8 14 l 1
 12 14 l 1
 12 12 l 1
 8 12 l 1
 8 -1 l 1
 5 -4 l 1
 0 -4 l 1
 0 -2 l 1
EndSplineSet
Validated: 1
EndChar

StartChar: Aringacute
Encoding: 506 506 374
Width: 16
Flags: MW
HStem: 2 2<4 10> 10 4<6 8> 15 2<6 8> 18 2<6 8> 21 4<7 9>
VStem: 0 4<0 2 4 6> 10 4<0 2 4 6>
AnchorPoint: "top" 7 14 basechar 0
AnchorPoint: "bottom" 12 -0 basechar 0
LayerCount: 2
Fore
SplineSet
8 10 m 1
 6 10 l 1
 4 6 l 1
 4 4 l 1
 10 4 l 1
 10 6 l 5
 8 10 l 1
4 14 m 1
 10 14 l 1
 14 6 l 5
 14 0 l 1
 10 0 l 1
 10 2 l 1
 4 2 l 1
 4 0 l 1
 0 0 l 1
 0 6 l 25
 4 14 l 1
EndSplineSet
Refer: 104 769 N 1 0 0 1 -1 -1 2
Refer: 247 778 N 1 0 0 1 -1 -6 2
Validated: 1
EndChar

StartChar: dieresistonos
Encoding: 901 901 376
Width: 16
HStem: 16 4<0 4 6 8 10 14>
VStem: 0 4<16 20> 10 4<16 20>
LayerCount: 2
Fore
SplineSet
10 20 m 25
 14 20 l 25
 14 16 l 25
 10 16 l 25
 10 20 l 25
5 16 m 1
 6 20 l 1
 9 20 l 5
 8 16 l 1
 5 16 l 1
0 20 m 25
 4 20 l 25
 4 16 l 25
 0 16 l 25
 0 20 l 25
EndSplineSet
Validated: 1
EndChar

StartChar: uni03A9
Encoding: 937 937 384
Width: 16
Flags: M
HStem: 0 2<0 2 12 14> 16 4<6 8>
VStem: 0 4<8 14> 10 4<8 14>
LayerCount: 2
Fore
SplineSet
0 2 m 1
 2 2 l 1
 2 4 l 1
 0 7 l 1
 0 17 l 1
 3 20 l 1
 11 20 l 1
 14 17 l 1
 14 7 l 1
 12 4 l 1
 12 2 l 1
 14 2 l 1
 14 0 l 1
 8 0 l 1
 8 5 l 1
 10 8 l 1
 10 14 l 5
 8 16 l 1
 6 16 l 1
 4 14 l 1
 4 8 l 1
 6 5 l 1
 6 0 l 1
 0 0 l 1
 0 2 l 1
EndSplineSet
Validated: 1
EndChar

StartChar: iota
Encoding: 953 953 386
Width: 16
Flags: MW
VStem: 6 4<3 14>
AnchorPoint: "top" 8 14 basechar 0
AnchorPoint: "bottom" 8 -0 basechar 0
LayerCount: 2
Fore
SplineSet
6 14 m 5
 10 14 l 5
 10 3 l 1
 13 0 l 1
 9 0 l 1
 6 3 l 1
 6 14 l 5
EndSplineSet
Validated: 1
EndChar

StartChar: Gamma
Encoding: 915 915 388
Width: 16
Flags: M
HStem: 18 2<4 14>
VStem: 0 4<0 18>
LayerCount: 2
Fore
SplineSet
0 20 m 25
 14 20 l 1
 14 18 l 5
 4 18 l 1
 4 0 l 1
 0 0 l 25
 0 20 l 25
EndSplineSet
Validated: 1
EndChar

StartChar: uni0394
Encoding: 916 916 389
Width: 16
Flags: M
HStem: 0 2<4 10>
LayerCount: 2
Fore
SplineSet
7 13 m 5
 4 2 l 5
 10 2 l 5
 7 13 l 5
0 0 m 29
 6 20 l 29
 8 20 l 29
 14 0 l 29
 0 0 l 29
EndSplineSet
Validated: 1
EndChar

StartChar: Lambda
Encoding: 923 923 390
Width: 16
Flags: MW
LayerCount: 2
Fore
SplineSet
0 0 m 1
 6 20 l 25
 8 20 l 25
 14 0 l 1
 10 0 l 5
 10 2 l 1
 7 13 l 1
 4 2 l 1
 4 0 l 1
 0 0 l 1
EndSplineSet
Validated: 1
EndChar

StartChar: Theta
Encoding: 920 920 396
Width: 16
Flags: W
HStem: 0 2<4 10> 10 2<6 8> 18 2<4 10>
VStem: 0 4<3 17> 6 2<10 12> 10 4<3 17>
CounterMasks: 1 1c
AnchorPoint: "top" 7 20 basechar 0
AnchorPoint: "bottom" 7 0 basechar 0
LayerCount: 2
Fore
SplineSet
6 12 m 5
 8 12 l 5
 8 10 l 5
 6 10 l 5
 6 12 l 5
10 18 m 29
 4 18 l 29
 4 2 l 29
 10 2 l 29
 10 18 l 29
3 20 m 5
 11 20 l 5
 14 17 l 5
 14 3 l 5
 11 0 l 5
 3 0 l 5
 0 3 l 5
 0 17 l 5
 3 20 l 5
EndSplineSet
Validated: 1
EndChar

StartChar: Xi
Encoding: 926 926 401
Width: 16
Flags: W
HStem: 0 2<0 14> 10 2<2 12> 18 2<0 14>
LayerCount: 2
Fore
SplineSet
0 2 m 1
 14 2 l 1
 14 0 l 1
 0 0 l 1
 0 2 l 1
2 12 m 1
 12 12 l 1
 12 10 l 1
 2 10 l 1
 2 12 l 1
0 20 m 1
 14 20 l 1
 14 18 l 5
 0 18 l 1
 0 20 l 1
EndSplineSet
Validated: 1
EndChar

StartChar: Pi
Encoding: 928 928 403
Width: 16
Flags: M
HStem: 18 2<4 10>
VStem: 0 4<0 18> 10 4<0 18>
LayerCount: 2
Fore
SplineSet
0 20 m 25
 14 20 l 25
 14 0 l 1
 10 0 l 5
 10 18 l 1
 4 18 l 1
 4 0 l 1
 0 0 l 1
 0 20 l 25
EndSplineSet
Validated: 1
EndChar

StartChar: Sigma
Encoding: 931 931 405
Width: 16
HStem: 0 2<4 14> 18 2<4 14>
LayerCount: 2
Fore
SplineSet
0 20 m 1
 14 20 l 25
 14 18 l 25
 4 18 l 25
 10 11 l 29
 10 9 l 29
 4 2 l 25
 14 2 l 25
 14 0 l 25
 0 0 l 1
 0 3 l 25
 6 10 l 5
 0 17 l 25
 0 20 l 1
EndSplineSet
Validated: 1
EndChar

StartChar: Phi
Encoding: 934 934 408
Width: 16
Flags: MO
HStem: 2 2<4 6 8 10> 16 2<4 6 8 10>
VStem: 0 4<5 15> 6 2<0 2 4 16 18 20> 10 4<5 15>
CounterMasks: 1 38
LayerCount: 2
Fore
SplineSet
10 16 m 5
 8 16 l 1
 8 4 l 1
 10 4 l 1
 10 16 l 5
6 16 m 25
 4 16 l 25
 4 4 l 25
 6 4 l 25
 6 16 l 25
0 15 m 1
 3 18 l 1
 6 18 l 1
 6 20 l 1
 8 20 l 1
 8 18 l 1
 11 18 l 1
 14 15 l 5
 14 5 l 1
 11 2 l 1
 8 2 l 1
 8 0 l 1
 6 0 l 1
 6 2 l 1
 3 2 l 1
 0 5 l 1
 0 15 l 1
EndSplineSet
Validated: 1
EndChar

StartChar: Psi
Encoding: 936 936 410
Width: 16
Flags: M
HStem: 4 2<4 6 8 10>
VStem: 0 4<7 20> 6 2<0 4 6 20> 10 4<7 20>
LayerCount: 2
Fore
SplineSet
0 20 m 29
 4 20 l 5
 4 6 l 5
 6 6 l 5
 6 20 l 5
 8 20 l 5
 8 6 l 5
 10 6 l 5
 10 20 l 5
 14 20 l 5
 14 7 l 5
 11 4 l 5
 8 4 l 5
 8 0 l 29
 6 0 l 29
 6 4 l 29
 3 4 l 29
 0 7 l 29
 0 20 l 29
EndSplineSet
Validated: 1
EndChar

StartChar: alpha
Encoding: 945 945 413
Width: 16
HStem: 0 2<4 6 12 14> 12 2<4 6 12 14>
VStem: 0 4<3 11> 6 4<5 9>
LayerCount: 2
Fore
SplineSet
6 12 m 1
 4 12 l 1
 4 2 l 1
 6 2 l 1
 6 12 l 1
3 14 m 1
 8 14 l 1
 9 12 l 1
 10 14 l 1
 14 14 l 1
 14 12 l 1
 12 12 l 1
 10 9 l 1
 10 5 l 5
 12 2 l 1
 14 2 l 1
 14 0 l 1
 10 0 l 1
 9 2 l 1
 8 0 l 1
 3 0 l 1
 0 3 l 1
 0 11 l 1
 3 14 l 1
EndSplineSet
Validated: 1
EndChar

StartChar: epsilon
Encoding: 949 949 414
Width: 16
HStem: 0 2<4 14> 6 2<4 12> 12 2<4 14>
VStem: 0 4<3 5 9 11>
CounterMasks: 1 e0
LayerCount: 2
Fore
SplineSet
3 14 m 5
 14 14 l 5
 14 12 l 5
 4 12 l 5
 4 8 l 5
 12 8 l 5
 12 6 l 5
 4 6 l 5
 4 2 l 5
 14 2 l 5
 14 0 l 5
 3 0 l 5
 0 3 l 5
 0 5 l 5
 2 7 l 5
 0 9 l 5
 0 11 l 5
 3 14 l 5
EndSplineSet
Validated: 1
EndChar

StartChar: eta
Encoding: 951 951 417
Width: 16
Flags: M
HStem: 12 2<4 10>
VStem: 0 4<0 12> 10 4<-4 11>
LayerCount: 2
Fore
SplineSet
0 0 m 1
 0 14 l 1
 11 14 l 29
 14 11 l 1
 14 -4 l 25
 10 -4 l 1
 10 12 l 1
 4 12 l 1
 4 0 l 1
 0 0 l 1
EndSplineSet
Validated: 1
EndChar

StartChar: theta
Encoding: 952 952 425
Width: 16
Flags: W
HStem: 0 2<4 10> 10 2<4 10> 18 2<4 10>
VStem: 0 4<3 10 12 17> 10 4<3 10 12 17>
AnchorPoint: "bottom" 7 0 basechar 0
AnchorPoint: "top" 7 20 basechar 0
LayerCount: 2
Fore
SplineSet
3 20 m 1
 11 20 l 1
 14 17 l 1
 14 3 l 1
 11 0 l 1
 3 0 l 1
 0 3 l 1
 0 17 l 1
 3 20 l 1
10 18 m 1
 4 18 l 1
 4 12 l 1
 10 12 l 1
 10 18 l 1
4 10 m 1
 4 2 l 1
 10 2 l 1
 10 10 l 1
 4 10 l 1
EndSplineSet
Validated: 1
EndChar

StartChar: beta
Encoding: 946 946 426
Width: 16
Flags: MW
HStem: 18 2<4 10>
VStem: 0 4<-4 18> 10 4<4 8>
LayerCount: 2
Fore
SplineSet
0 -4 m 5
 0 20 l 1
 11 20 l 1
 14 17 l 1
 11 14 l 1
 11 12 l 1
 14 9 l 1
 14 3 l 1
 11 0 l 1
 6 0 l 1
 10 4 l 1
 10 8 l 1
 6 12 l 1
 6 14 l 1
 10 18 l 1
 4 18 l 1
 4 -4 l 29
 0 -4 l 5
EndSplineSet
Validated: 1
EndChar

StartChar: sigma
Encoding: 963 963 427
Width: 16
HStem: 0 2<4 8> 12 2<4 8 12 14>
VStem: 0 4<3 11> 8 4<3 12>
LayerCount: 2
Fore
SplineSet
8 12 m 1
 4 12 l 5
 4 2 l 1
 8 2 l 1
 8 12 l 1
0 11 m 1
 3 14 l 1
 14 14 l 25
 14 12 l 1
 12 12 l 1
 12 3 l 1
 9 0 l 1
 3 0 l 1
 0 3 l 1
 0 11 l 1
EndSplineSet
Validated: 1
EndChar

StartChar: tau
Encoding: 964 964 428
Width: 16
HStem: 0 2<8 12> 12 2<0 4 8 12>
VStem: 4 4<3 12>
LayerCount: 2
Fore
SplineSet
0 14 m 5
 12 14 l 5
 12 12 l 5
 8 12 l 5
 8 2 l 5
 12 2 l 5
 12 0 l 5
 7 0 l 5
 4 3 l 5
 4 12 l 29
 0 12 l 5
 0 14 l 5
EndSplineSet
Validated: 1
EndChar

StartChar: gamma
Encoding: 947 947 434
Width: 16
Flags: MW
VStem: 5 4<-4 2>
LayerCount: 2
Fore
SplineSet
0 14 m 1
 4 14 l 1
 7 6 l 1
 10 14 l 1
 14 14 l 1
 9 2 l 1
 9 -4 l 1
 5 -4 l 1
 5 2 l 1
 0 14 l 1
EndSplineSet
Validated: 1
EndChar

StartChar: lambda
Encoding: 955 955 435
Width: 16
Flags: MW
LayerCount: 2
Fore
SplineSet
0 20 m 5
 4 20 l 5
 14 0 l 5
 10 0 l 5
 7 6 l 5
 4 0 l 5
 0 0 l 5
 5 10 l 5
 0 20 l 5
EndSplineSet
Validated: 1
EndChar

StartChar: psi
Encoding: 968 968 436
Width: 16
Flags: MW
HStem: 0 2<4 6 8 10>
VStem: 0 4<3 14> 6 2<-4 0 2 16> 10 4<3 14>
LayerCount: 2
Fore
SplineSet
0 14 m 25
 4 14 l 1
 4 2 l 1
 6 2 l 1
 6 16 l 1
 8 16 l 1
 8 2 l 1
 10 2 l 1
 10 14 l 5
 14 14 l 5
 14 3 l 1
 11 0 l 1
 8 0 l 1
 8 -4 l 25
 6 -4 l 25
 6 0 l 25
 3 0 l 25
 0 3 l 25
 0 14 l 25
EndSplineSet
Validated: 1
EndChar

StartChar: phi
Encoding: 966 966 437
Width: 16
Flags: MW
HStem: 0 2<4 6 8 10> 12 2<8 10>
VStem: 0 4<3 14> 6 2<-2 0 2 12> 10 4<3 11>
LayerCount: 2
Fore
SplineSet
10 12 m 5
 8 12 l 1
 8 2 l 1
 10 2 l 1
 10 12 l 5
0 14 m 1
 4 14 l 25
 4 2 l 1
 6 2 l 25
 6 14 l 1
 11 14 l 25
 14 11 l 5
 14 3 l 1
 11 0 l 1
 8 0 l 1
 8 -2 l 1
 6 -2 l 1
 6 0 l 1
 3 0 l 1
 0 3 l 1
 0 14 l 1
EndSplineSet
Validated: 1
EndChar

StartChar: chi
Encoding: 967 967 438
Width: 16
Flags: MW
LayerCount: 2
Fore
SplineSet
0 14 m 1
 4 14 l 1
 7 9 l 1
 10 14 l 1
 14 14 l 1
 9 5 l 1
 14 -4 l 1
 10 -4 l 1
 7 1 l 1
 4 -4 l 1
 0 -4 l 1
 5 5 l 1
 0 14 l 1
EndSplineSet
Validated: 1
EndChar

StartChar: rho
Encoding: 961 961 439
Width: 16
Flags: M
HStem: 0 2<4 10> 12 2<4 10>
VStem: 0 4<-4 0 2 11> 10 4<3 11>
LayerCount: 2
Fore
SplineSet
10 12 m 1
 4 12 l 1
 4 2 l 1
 10 2 l 5
 10 12 l 1
0 -4 m 1
 0 11 l 1
 3 14 l 1
 11 14 l 1
 14 11 l 1
 14 3 l 1
 11 0 l 1
 4 0 l 1
 4 -4 l 1
 0 -4 l 1
EndSplineSet
Validated: 1
EndChar

StartChar: pi
Encoding: 960 960 440
Width: 16
Flags: M
HStem: 12 2<0 2 6 8 12 14>
VStem: 2 4<0 12> 8 4<0 12>
LayerCount: 2
Fore
SplineSet
0 14 m 25
 14 14 l 25
 14 12 l 1
 12 12 l 1
 12 0 l 1
 8 0 l 1
 8 12 l 25
 6 12 l 25
 6 0 l 1
 2 0 l 5
 2 12 l 1
 0 12 l 1
 0 14 l 25
EndSplineSet
Validated: 1
EndChar

StartChar: omega
Encoding: 969 969 441
Width: 16
Flags: M
HStem: 0 2<4 5 9 10>
VStem: 0 4<3 11> 6 2<2 8> 10 4<3 11>
CounterMasks: 1 70
LayerCount: 2
Fore
SplineSet
0 11 m 1
 3 14 l 1
 4 14 l 1
 4 2 l 1
 6 2 l 1
 6 8 l 29
 8 8 l 29
 8 2 l 1
 10 2 l 1
 10 14 l 1
 11 14 l 1
 14 11 l 1
 14 3 l 1
 11 0 l 1
 9 0 l 1
 7 1 l 1
 5 0 l 1
 3 0 l 1
 0 3 l 1
 0 11 l 1
EndSplineSet
Validated: 1
EndChar

StartChar: delta
Encoding: 948 948 442
Width: 16
Flags: MW
HStem: 0 2<4 10> 12 2<4 10>
VStem: 0 4<3 11> 6 4<18 20> 10 4<2 12>
LayerCount: 2
Fore
SplineSet
10 12 m 29xe8
 4 12 l 29
 4 2 l 29
 10 2 l 29
 10 12 l 29xe8
6 20 m 13xf0
 10 20 l 21
 10 18 l 5xf0
 14 14 l 5
 14 0 l 5
 3 0 l 5
 0 3 l 5
 0 11 l 5
 3 14 l 5
 10 14 l 5xe8
 6 18 l 5
 6 20 l 13xf0
EndSplineSet
Validated: 1
EndChar

StartChar: sigma1
Encoding: 962 962 443
Width: 16
Flags: MW
HStem: 0 2<4 10> 12 2<4 10>
VStem: 0 4<3 11> 10 4<-4 0 10 11>
AnchorPoint: "top" 7 14 basechar 0
AnchorPoint: "bottom" 7 0 basechar 0
LayerCount: 2
Fore
SplineSet
3 14 m 1
 11 14 l 1
 14 11 l 1
 14 10 l 1
 10 10 l 25
 10 12 l 25
 4 12 l 25
 4 2 l 1
 14 2 l 1
 14 -4 l 5
 10 -4 l 1
 10 0 l 1
 3 0 l 1
 0 3 l 1
 0 11 l 1
 3 14 l 1
EndSplineSet
Validated: 1
EndChar

StartChar: zeta
Encoding: 950 950 444
Width: 16
Flags: MW
HStem: 0 2<4 10> 18 2<0 10>
VStem: 0 4<2 6> 10 4<-4 0>
AnchorPoint: "top" 7 20 basechar 0
AnchorPoint: "bottom" 7 0 basechar 0
LayerCount: 2
Fore
SplineSet
0 20 m 5
 14 20 l 29
 14 18 l 5
 4 6 l 5
 4 2 l 5
 14 2 l 5
 14 -4 l 5
 10 -4 l 5
 10 0 l 5
 0 0 l 5
 0 6 l 5
 10 18 l 5
 0 18 l 5
 0 20 l 5
EndSplineSet
Validated: 1
EndChar

StartChar: xi
Encoding: 958 958 445
Width: 16
Flags: MW
HStem: 0 2<4 10> 10 2<4 12> 18 2<4 14>
VStem: 0 4<3 9 13 17> 10 4<-4 0>
LayerCount: 2
Fore
SplineSet
3 20 m 1
 14 20 l 1
 14 18 l 1
 4 18 l 1
 4 12 l 1
 12 12 l 1
 12 10 l 1
 4 10 l 1
 4 2 l 1
 14 2 l 1
 14 -4 l 1
 10 -4 l 1
 10 0 l 1
 3 0 l 1
 0 3 l 1
 0 9 l 1
 2 11 l 1
 0 13 l 1
 0 17 l 1
 3 20 l 1
EndSplineSet
Validated: 1
EndChar

StartChar: uni045F
Encoding: 1119 1119 449
Width: 16
HStem: -6 20G<0 4 10 14> 0 2<4 6 8 10>
VStem: 0 4<2 14> 6 2<-4 0> 10 4<2 14>
CounterMasks: 1 38
LayerCount: 2
Fore
SplineSet
0 14 m 1xb8
 4 14 l 25xb8
 4 2 l 1
 10 2 l 1x78
 10 14 l 1
 14 14 l 1xb8
 14 0 l 25
 8 0 l 1
 8 -4 l 5
 6 -4 l 1
 6 0 l 1
 0 0 l 25x78
 0 14 l 1xb8
EndSplineSet
Validated: 1
EndChar

StartChar: uni043F
Encoding: 1087 1087 477
Width: 16
HStem: 0 21G<0 4 10 14> 12 2<4 10>
VStem: 0 4<0 12> 10 4<0 12>
LayerCount: 2
Fore
SplineSet
0 0 m 1xb0
 0 14 l 25
 14 14 l 1x70
 14 0 l 1
 10 0 l 1xb0
 10 12 l 1
 4 12 l 5x70
 4 0 l 1
 0 0 l 1xb0
EndSplineSet
Validated: 1
EndChar

StartChar: uni043D
Encoding: 1085 1085 478
Width: 16
HStem: -6 20G<0 4 10 14> 0 21G<0 4 10 14> 6 2<4 10>
VStem: 0 4<0 6 8 14> 10 4<0 6 8 14>
LayerCount: 2
Fore
SplineSet
0 14 m 1x98
 4 14 l 25x98
 4 8 l 5
 10 8 l 5x38
 10 14 l 25
 14 14 l 1x98
 14 0 l 25
 10 0 l 25x58
 10 6 l 29
 4 6 l 29x38
 4 0 l 25
 0 0 l 25x58
 0 14 l 1x98
EndSplineSet
Validated: 1
EndChar

StartChar: uni0442
Encoding: 1090 1090 479
Width: 16
HStem: 0 21G<4 8> 12 2<0 4 8 12>
VStem: 4 4<0 12>
LayerCount: 2
Fore
SplineSet
0 14 m 25x60
 12 14 l 25
 12 12 l 25
 8 12 l 1x60
 8 0 l 29
 4 0 l 1xa0
 4 12 l 25
 0 12 l 25
 0 14 l 25x60
EndSplineSet
Validated: 1
EndChar

StartChar: uni0433
Encoding: 1075 1075 486
Width: 16
HStem: 0 21G<0 4> 12 2<4 14>
VStem: 0 4<0 12>
AnchorPoint: "top" 7 14 basechar 0
LayerCount: 2
Fore
SplineSet
0 0 m 1xa0
 0 14 l 25
 14 14 l 25
 14 12 l 25
 4 12 l 1x60
 4 0 l 29
 0 0 l 1xa0
EndSplineSet
Validated: 1
EndChar

StartChar: uni042F
Encoding: 1071 1071 487
Width: 16
Flags: W
HStem: 0 21G<0 4 10 14> 10 2<4 6> 18 2<4 10>
VStem: 0 4<0 3 13 17> 10 4<0 10 12 18>
AnchorPoint: "top" 7 20 basechar 0
LayerCount: 2
Fore
SplineSet
4 18 m 5x78
 4 12 l 29
 10 12 l 5
 10 18 l 29
 4 18 l 5x78
14 0 m 29x98
 10 0 l 5x98
 10 10 l 5x58
 4 3 l 5
 4 0 l 5
 0 0 l 5x98
 0 3 l 5
 6 10 l 5
 3 10 l 5
 0 13 l 5
 0 17 l 5
 3 20 l 5
 14 20 l 5x78
 14 0 l 29x98
EndSplineSet
Validated: 1
EndChar

StartChar: uni044F
Encoding: 1103 1103 488
Width: 16
Flags: W
HStem: 0 21G<0 10 10 14> 6 2<4 6> 12 2<4 10>
VStem: 0 4<9 11> 10 4<0 6 8 12>
AnchorPoint: "top" 7 14 basechar 0
LayerCount: 2
Fore
SplineSet
4 12 m 1x78
 4 8 l 25
 10 8 l 1
 10 12 l 25
 4 12 l 1x78
14 0 m 29x98
 10 0 l 5x98
 10 6 l 5x58
 4 0 l 5
 0 0 l 5x98
 6 6 l 5
 3 6 l 5
 0 9 l 5
 0 11 l 5
 3 14 l 5
 14 14 l 5x78
 14 0 l 29x98
EndSplineSet
Validated: 1
EndChar

StartChar: uni043C
Encoding: 1084 1084 489
Width: 16
Flags: W
HStem: -6 20G<0 7 7 14> 0 21G<0 4 10 14>
VStem: 0 4<0 8> 10 4<0 8>
LayerCount: 2
Fore
SplineSet
0 0 m 25x70
 0 14 l 29
 4 14 l 5
 7 10 l 5
 10 14 l 5
 14 14 l 5xb0
 14 0 l 1
 10 0 l 1
 10 8 l 5
 7 4 l 5
 4 8 l 5
 4 0 l 1
 0 0 l 25x70
EndSplineSet
Validated: 1
EndChar

StartChar: uni0432
Encoding: 1074 1074 490
Width: 16
Flags: W
HStem: 0 2<4 10> 6 2<4 10> 12 2<4 10>
VStem: 0 4<2 6 8 12> 10 4<3 5 9 11>
CounterMasks: 1 e0
AnchorPoint: "top" 7 14 basechar 0
LayerCount: 2
Fore
SplineSet
10 6 m 1
 4 6 l 1
 4 2 l 1
 10 2 l 1
 10 6 l 1
10 12 m 25
 4 12 l 25
 4 8 l 25
 10 8 l 25
 10 12 l 25
0 14 m 1
 11 14 l 1
 14 11 l 1
 14 9 l 1
 12 7 l 1
 14 5 l 1
 14 3 l 1
 11 0 l 1
 0 0 l 1
 0 14 l 1
EndSplineSet
Validated: 1
EndChar

StartChar: uni0428
Encoding: 1064 1064 491
Width: 16
HStem: 0 20G<0 4 6 8 10 14> 0 2<4 6 8 10>
VStem: 0 4<2 20> 6 2<2 20> 10 4<2 20>
CounterMasks: 1 38
LayerCount: 2
Fore
SplineSet
0 20 m 29xb8
 4 20 l 29xb8
 4 2 l 29
 6 2 l 29x78
 6 20 l 29
 8 20 l 29xb8
 8 2 l 29
 10 2 l 29x78
 10 20 l 29
 14 20 l 29
 14 0 l 29
 0 0 l 29
 0 20 l 29xb8
EndSplineSet
Validated: 1
EndChar

StartChar: uni0448
Encoding: 1096 1096 492
Width: 16
Flags: W
HStem: -6 20G<0 4 6 8 10 14> 0 2<4 6 8 10>
VStem: 0 4<2 14> 6 2<2 14> 10 4<2 14>
CounterMasks: 1 38
LayerCount: 2
Fore
SplineSet
0 14 m 29xb8
 4 14 l 29xb8
 4 2 l 29
 6 2 l 29x78
 6 14 l 29
 8 14 l 29xb8
 8 2 l 29
 10 2 l 29x78
 10 14 l 29
 14 14 l 29xb8
 14 0 l 29
 0 0 l 29x78
 0 14 l 29xb8
EndSplineSet
Validated: 1
EndChar

StartChar: uni0429
Encoding: 1065 1065 493
Width: 16
Flags: W
HStem: 0 20G<0 4 6 8 10 12> 0 2<4 6 8 10>
VStem: 0 4<2 20> 6 2<2 20> 10 2<2 20> 12 2<-4 0>
LayerCount: 2
Fore
SplineSet
0 20 m 25xb4
 4 20 l 25xb4
 4 2 l 25
 6 2 l 25x74
 6 20 l 25
 8 20 l 25xb4
 8 2 l 25
 10 2 l 25x78
 10 20 l 1
 12 20 l 1xb8
 12 2 l 1x78
 14 2 l 1x74
 14 -4 l 1
 12 -4 l 5
 12 0 l 1
 0 0 l 1
 0 20 l 25xb4
EndSplineSet
Validated: 1
EndChar

StartChar: uni0449
Encoding: 1097 1097 494
Width: 16
Flags: W
HStem: -6 20G<0 4 6 8 10 12> 0 2<4 6 8 10>
VStem: 0 4<2 14> 6 2<2 14> 10 2<2 14> 12 2<-4 0>
LayerCount: 2
Fore
SplineSet
0 14 m 25xb4
 4 14 l 25xb4
 4 2 l 25
 6 2 l 25x74
 6 14 l 25
 8 14 l 25xb4
 8 2 l 25
 10 2 l 25x78
 10 14 l 1
 12 14 l 1xb8
 12 2 l 1x78
 14 2 l 1
 14 -4 l 1
 12 -4 l 1
 12 0 l 1
 0 0 l 1x74
 0 14 l 25xb4
EndSplineSet
Validated: 1
EndChar

StartChar: uni0416
Encoding: 1046 1046 495
Width: 16
Flags: M
VStem: 6 2<0 8 12 20>
LayerCount: 2
Fore
SplineSet
0 20 m 5
 4 20 l 5
 6 12 l 5
 6 20 l 5
 8 20 l 5
 8 12 l 5
 10 20 l 5
 14 20 l 5
 11 10 l 5
 14 0 l 5
 10 0 l 5
 8 8 l 5
 8 0 l 5
 6 0 l 5
 6 8 l 5
 4 0 l 5
 0 0 l 5
 3 10 l 29
 0 20 l 5
EndSplineSet
Validated: 1
EndChar

StartChar: uni0436
Encoding: 1078 1078 496
Width: 16
Flags: W
HStem: -6 20G<0 6 6 8 8 14> 0 21G<0 6 6 8 8 14>
VStem: 6 2<0 5 9 14>
LayerCount: 2
Fore
SplineSet
0 14 m 1xa0
 4 14 l 1
 6 9 l 1
 6 14 l 1
 8 14 l 1
 8 9 l 1
 10 14 l 1
 14 14 l 1xa0
 11 7 l 1
 14 0 l 1
 10 0 l 1
 8 5 l 1
 8 0 l 1
 6 0 l 1
 6 5 l 1
 4 0 l 1
 0 0 l 1x60
 3 7 l 25
 0 14 l 1xa0
EndSplineSet
Validated: 1
EndChar

StartChar: uni0426
Encoding: 1062 1062 497
Width: 16
HStem: 0 20G<0 4 8 12> 0 2<4 8>
VStem: 0 4<2 20> 8 4<2 20> 12 2<-4 0>
LayerCount: 2
Fore
SplineSet
0 20 m 5xa8
 4 20 l 5xa8
 4 2 l 5
 8 2 l 5x70
 8 20 l 5
 12 20 l 5xb0
 12 2 l 5x70
 14 2 l 5x68
 14 -4 l 5
 12 -4 l 5
 12 0 l 5
 0 0 l 5
 0 20 l 5xa8
EndSplineSet
Validated: 1
EndChar

StartChar: uni0446
Encoding: 1094 1094 498
Width: 16
Flags: W
HStem: -6 20G<0 4 8 12> 0 2<4 8>
VStem: 0 4<2 14> 8 4<2 14> 12 2<-4 0>
LayerCount: 2
Fore
SplineSet
0 14 m 5xa8
 4 14 l 5xa8
 4 2 l 1
 8 2 l 1x70
 8 14 l 5
 12 14 l 5xb0
 12 2 l 1x70
 14 2 l 1
 14 -4 l 1
 12 -4 l 1
 12 0 l 1
 0 0 l 1x68
 0 14 l 5xa8
EndSplineSet
Validated: 1
EndChar

StartChar: uni0427
Encoding: 1063 1063 499
Width: 16
HStem: 0 21G<10 14> 0 20G<0 4 10 14> 8 2<4 10>
VStem: 0 4<11 20> 10 4<0 8 10 20>
LayerCount: 2
Fore
SplineSet
0 20 m 5x58
 4 20 l 29x58
 4 10 l 29
 10 10 l 29x38
 10 20 l 29
 14 20 l 29x58
 14 0 l 5
 10 0 l 29x98
 10 8 l 5
 3 8 l 5x38
 0 11 l 5
 0 20 l 5x58
EndSplineSet
Validated: 1
EndChar

StartChar: uni0447
Encoding: 1095 1095 500
Width: 16
Flags: W
HStem: -6 20G<0 4 10 14> 0 21G<10 14> 6 2<4 10>
VStem: 0 4<9 14> 10 4<0 6 8 14>
LayerCount: 2
Fore
SplineSet
0 14 m 1x98
 4 14 l 25x98
 4 8 l 29
 10 8 l 29x38
 10 14 l 25
 14 14 l 25x98
 14 0 l 1
 10 0 l 25x58
 10 6 l 5
 3 6 l 5x38
 0 9 l 5
 0 14 l 1x98
EndSplineSet
Validated: 1
EndChar

StartChar: uni040F
Encoding: 1039 1039 501
Width: 16
Flags: MW
HStem: 0 2<4 6 8 10>
VStem: 0 4<2 20> 6 2<-4 0> 10 4<2 20>
CounterMasks: 1 70
LayerCount: 2
Fore
SplineSet
0 20 m 1
 4 20 l 25
 4 2 l 1
 10 2 l 1
 10 20 l 1
 14 20 l 1
 14 0 l 25
 8 0 l 1
 8 -4 l 5
 6 -4 l 1
 6 0 l 1
 0 0 l 25
 0 20 l 1
EndSplineSet
Validated: 1
EndChar

StartChar: uni0437
Encoding: 1079 1079 502
Width: 16
Flags: W
HStem: 0 2<0 10> 6 2<2 10> 12 2<0 10>
VStem: 10 4<3 5 9 11>
CounterMasks: 1 e0
LayerCount: 2
Fore
SplineSet
11 0 m 5
 0 0 l 5
 0 2 l 5
 10 2 l 5
 10 6 l 5
 2 6 l 5
 2 8 l 5
 10 8 l 5
 10 12 l 5
 0 12 l 5
 0 14 l 5
 11 14 l 5
 14 11 l 5
 14 9 l 5
 12 7 l 5
 14 5 l 5
 14 3 l 5
 11 0 l 5
EndSplineSet
Validated: 1
EndChar

StartChar: uni0417
Encoding: 1047 1047 503
Width: 16
Flags: W
HStem: 0 2<0 10> 10 2<2 10> 18 2<0 10>
VStem: 10 4<3 9 13 17>
LayerCount: 2
Fore
SplineSet
11 0 m 5
 0 0 l 5
 0 2 l 5
 10 2 l 5
 10 10 l 5
 2 10 l 5
 2 12 l 5
 10 12 l 5
 10 18 l 5
 0 18 l 5
 0 20 l 5
 11 20 l 5
 14 17 l 5
 14 13 l 5
 12 11 l 5
 14 9 l 5
 14 3 l 5
 11 0 l 5
EndSplineSet
Validated: 1
EndChar

StartChar: uni0411
Encoding: 1041 1041 504
Width: 16
HStem: 0 2<4 10> 12 2<4 10> 18 2<4 12>
VStem: 0 4<2 12 14 18> 10 4<3 11>
LayerCount: 2
Fore
SplineSet
10 12 m 5
 4 12 l 5
 4 2 l 5
 10 2 l 5
 10 12 l 5
0 20 m 5
 12 20 l 5
 12 18 l 5
 4 18 l 5
 4 14 l 5
 11 14 l 5
 14 11 l 5
 14 3 l 5
 11 0 l 5
 0 0 l 5
 0 20 l 5
EndSplineSet
Validated: 1
EndChar

StartChar: uni042A
Encoding: 1066 1066 505
Width: 16
Flags: W
HStem: 0 2<6 10> 12 2<6 10> 18 2<0 2>
VStem: 2 4<2 12 14 18> 10 4<3 11>
LayerCount: 2
Fore
SplineSet
10 12 m 5
 6 12 l 5
 6 2 l 5
 10 2 l 5
 10 12 l 5
2 18 m 5
 0 18 l 5
 0 20 l 5
 6 20 l 5
 6 14 l 5
 11 14 l 5
 14 11 l 5
 14 3 l 5
 11 0 l 5
 2 0 l 5
 2 18 l 5
EndSplineSet
Validated: 1
EndChar

StartChar: uni044A
Encoding: 1098 1098 506
Width: 16
Flags: W
HStem: 0 2<6 10> 6 2<6 10> 12 2<0 2>
VStem: 2 4<2 6 8 12> 10 4<3 5>
CounterMasks: 1 e0
LayerCount: 2
Fore
SplineSet
10 6 m 1
 6 6 l 1
 6 2 l 1
 10 2 l 1
 10 6 l 1
2 12 m 1
 0 12 l 1
 0 14 l 1
 6 14 l 1
 6 8 l 1
 11 8 l 1
 14 5 l 1
 14 3 l 1
 11 0 l 1
 2 0 l 1
 2 12 l 1
EndSplineSet
Validated: 1
EndChar

StartChar: uni042C
Encoding: 1068 1068 507
Width: 16
HStem: 0 20G<0 4> 0 2<4 10> 12 2<4 10>
VStem: 0 4<2 12 14 20> 10 4<3 11>
LayerCount: 2
Fore
SplineSet
10 12 m 5x78
 4 12 l 5
 4 2 l 5
 10 2 l 5
 10 12 l 5x78
0 20 m 29x98
 4 20 l 5x98
 4 14 l 29
 11 14 l 5
 14 11 l 29
 14 3 l 29
 11 0 l 29x78
 0 0 l 29
 0 20 l 29x98
EndSplineSet
Validated: 1
EndChar

StartChar: uni044C
Encoding: 1100 1100 508
Width: 16
Flags: W
HStem: -6 20G<0 4> 0 2<4 10> 6 2<4 10>
VStem: 0 4<2 6 8 14> 10 4<3 5>
LayerCount: 2
Fore
SplineSet
10 6 m 5x78
 4 6 l 5
 4 2 l 1
 10 2 l 1
 10 6 l 5x78
0 14 m 29x98
 4 14 l 5x98
 4 8 l 29
 11 8 l 5
 14 5 l 29
 14 3 l 25
 11 0 l 25
 0 0 l 25x78
 0 14 l 29x98
EndSplineSet
Validated: 1
EndChar

StartChar: uni042B
Encoding: 1067 1067 509
Width: 16
Flags: W
HStem: 0 20G<0 4 10 14> 0 2<4 6> 12 2<4 6>
VStem: 0 4<2 12 14 20> 10 4<0 20>
LayerCount: 2
Fore
SplineSet
10 20 m 29x98
 14 20 l 25
 14 0 l 25
 10 0 l 29
 10 20 l 29x98
6 12 m 1x78
 4 12 l 1
 4 2 l 1
 6 2 l 1
 6 12 l 1x78
0 20 m 25x98
 4 20 l 1x98
 4 14 l 1
 6 14 l 1
 8 12 l 1
 8 2 l 1
 6 0 l 1x78
 0 0 l 1
 0 20 l 25x98
EndSplineSet
Validated: 1
EndChar

StartChar: uni044B
Encoding: 1099 1099 510
Width: 16
Flags: W
HStem: -6 20G<0 4 10 14> 0 2<4 6> 6 2<4 6>
VStem: 0 4<2 6 8 14> 10 4<0 14>
LayerCount: 2
Fore
SplineSet
10 14 m 29x98
 14 14 l 25x98
 14 0 l 25
 10 0 l 29x58
 10 14 l 29x98
6 6 m 1x78
 4 6 l 1
 4 2 l 1
 6 2 l 1
 6 6 l 1x78
0 14 m 25x98
 4 14 l 1x98
 4 8 l 1
 6 8 l 1
 8 6 l 1
 8 2 l 1
 6 0 l 1
 0 0 l 1x78
 0 14 l 25x98
EndSplineSet
Validated: 1
EndChar

StartChar: uni042E
Encoding: 1070 1070 511
Width: 16
HStem: 0 2<8 10> 10 2<2 4> 18 2<8 10>
VStem: 0 2<0 10 12 20> 4 4<3 10 12 17>
LayerCount: 2
Fore
SplineSet
10 18 m 5
 8 18 l 5
 8 2 l 5
 10 2 l 5
 10 18 l 5
0 20 m 29
 2 20 l 5
 2 12 l 5
 4 12 l 5
 4 17 l 5
 7 20 l 5
 11 20 l 5
 14 17 l 5
 14 3 l 5
 11 0 l 5
 7 0 l 5
 4 3 l 5
 4 10 l 5
 2 10 l 5
 2 0 l 5
 0 0 l 29
 0 20 l 29
EndSplineSet
Validated: 1
EndChar

StartChar: uni044E
Encoding: 1102 1102 512
Width: 16
Flags: W
HStem: 0 2<8 10> 6 2<2 4> 12 2<8 10>
VStem: 0 2<0 6 8 14> 4 4<3 6 8 11>
CounterMasks: 1 e0
LayerCount: 2
Fore
SplineSet
10 12 m 1
 8 12 l 1
 8 2 l 1
 10 2 l 1
 10 12 l 1
0 14 m 25
 2 14 l 1
 2 8 l 5
 4 8 l 5
 4 11 l 1
 7 14 l 1
 11 14 l 1
 14 11 l 1
 14 3 l 1
 11 0 l 1
 7 0 l 1
 4 3 l 1
 4 6 l 5
 2 6 l 5
 2 0 l 1
 0 0 l 25
 0 14 l 25
EndSplineSet
Validated: 1
EndChar

StartChar: uni0444
Encoding: 1092 1092 513
Width: 16
Flags: W
HStem: 0 2<4 6 8 10> 12 2<4 6 8 10>
VStem: 0 4<3 11> 6 2<-4 0 2 12 14 18>
LayerCount: 2
Fore
SplineSet
10 12 m 1
 8 12 l 1
 8 2 l 1
 10 2 l 1
 10 12 l 1
6 12 m 25
 4 12 l 25
 4 2 l 25
 6 2 l 25
 6 12 l 25
0 11 m 1
 3 14 l 1
 6 14 l 1
 6 18 l 5
 8 18 l 5
 8 14 l 1
 11 14 l 1
 14 11 l 1
 14 3 l 1
 11 0 l 1
 8 0 l 1
 8 -4 l 1
 6 -4 l 1
 6 0 l 1
 3 0 l 1
 0 3 l 1
 0 11 l 1
EndSplineSet
Validated: 1
EndChar

StartChar: uni040A
Encoding: 1034 1034 514
Width: 16
Flags: MW
HStem: 0 2<8 10> 12 2<2 4 8 10>
VStem: 0 2<0 12 14 20> 4 4<2 12 14 20> 10 4<3 11>
LayerCount: 2
Fore
SplineSet
4 20 m 1
 8 20 l 1
 8 14 l 1
 11 14 l 1
 14 11 l 1
 14 3 l 1
 11 0 l 1
 4 0 l 1
 4 12 l 1
 2 12 l 1
 2 0 l 1
 0 0 l 1
 0 20 l 1
 2 20 l 1
 2 14 l 1
 4 14 l 1
 4 20 l 1
10 12 m 1
 8 12 l 1
 8 2 l 1
 10 2 l 1
 10 12 l 1
EndSplineSet
Validated: 1
EndChar

StartChar: uni045A
Encoding: 1114 1114 515
Width: 16
Flags: W
HStem: -6 20G<0 2 4 8> 0 2<8 10> 6 2<2 4 8 10>
VStem: 0 2<0 6 8 14> 4 4<2 6 8 14>
LayerCount: 2
Fore
SplineSet
4 14 m 5x98
 8 14 l 5x98
 8 8 l 5
 11 8 l 5
 14 5 l 5
 14 3 l 1
 11 0 l 1
 4 0 l 1
 4 6 l 5
 2 6 l 5
 2 0 l 1
 0 0 l 1x78
 0 14 l 5
 2 14 l 5x98
 2 8 l 5
 4 8 l 5x38
 4 14 l 5x98
10 6 m 5x78
 8 6 l 5
 8 2 l 1
 10 2 l 1
 10 6 l 5x78
EndSplineSet
Validated: 1
EndChar

StartChar: uni0418
Encoding: 1048 1048 516
Width: 16
Flags: MW
VStem: 0 4<8 20> 10 4<0 12>
AnchorPoint: "top" 7 20 basechar 0
LayerCount: 2
Fore
SplineSet
0 0 m 29
 0 20 l 5
 4 20 l 5
 4 8 l 5
 10 20 l 5
 14 20 l 29
 14 0 l 29
 10 0 l 5
 10 12 l 29
 4 0 l 5
 0 0 l 29
EndSplineSet
Validated: 1
EndChar

StartChar: uni0438
Encoding: 1080 1080 517
Width: 16
Flags: W
HStem: -6 20G<0 4 4 14> 0 21G<0 10 10 14>
VStem: 0 4<6 14> 10 4<0 8>
AnchorPoint: "top" 7 14 basechar 0
LayerCount: 2
Fore
SplineSet
0 0 m 25x70
 0 14 l 1
 4 14 l 1
 4 6 l 1
 10 14 l 1
 14 14 l 25xb0
 14 0 l 25
 10 0 l 1
 10 8 l 29
 4 0 l 1
 0 0 l 25x70
EndSplineSet
Validated: 1
EndChar

StartChar: uni0443
Encoding: 1091 1091 522
Width: 16
Flags: W
HStem: -6 20G<0 4 10 14> -4 2<2 8> 0 2<4 10>
VStem: 0 4<3 14> 10 4<2 14>
AnchorPoint: "top" 7 14 basechar 0
LayerCount: 2
Fore
SplineSet
0 14 m 5x98
 4 14 l 29x98
 4 2 l 29
 10 2 l 29x38
 10 14 l 29
 14 14 l 29x98
 14 0 l 29
 10 -4 l 29
 2 -4 l 29
 2 -2 l 29
 8 -2 l 29
 10 0 l 5
 3 0 l 5x78
 0 3 l 5
 0 14 l 5x98
EndSplineSet
Validated: 1
EndChar

StartChar: uni0423
Encoding: 1059 1059 523
Width: 16
Flags: MW
HStem: 0 2<2 7> 6 2<4 10>
VStem: 0 4<9 20> 10 4<5 6 8 20>
AnchorPoint: "top" 7 20 basechar 0
LayerCount: 2
Fore
SplineSet
0 20 m 1
 4 20 l 25
 4 8 l 25
 10 8 l 25
 10 20 l 25
 14 20 l 25
 14 6 l 1
 14 5 l 5
 9 0 l 1
 2 0 l 1
 2 2 l 1
 7 2 l 1
 10 5 l 1
 10 6 l 1
 3 6 l 1
 0 9 l 1
 0 20 l 1
EndSplineSet
Validated: 1
EndChar

StartChar: uni042D
Encoding: 1069 1069 529
Width: 16
Flags: W
HStem: 0 2<0 7> 10 2<4 10> 18 2<0 7>
VStem: 10 4<5 10 12 15>
LayerCount: 2
Fore
SplineSet
9 0 m 5
 0 0 l 5
 0 2 l 5
 7 2 l 5
 10 5 l 5
 10 10 l 5
 4 10 l 5
 4 12 l 5
 10 12 l 5
 10 15 l 5
 7 18 l 5
 0 18 l 5
 0 20 l 5
 9 20 l 5
 14 15 l 5
 14 5 l 5
 9 0 l 5
EndSplineSet
Validated: 1
EndChar

StartChar: uni0404
Encoding: 1028 1028 530
Width: 16
Flags: W
HStem: 0 2<7 14> 10 2<4 10> 18 2<7 14>
VStem: 0 4<5 10 12 15>
LayerCount: 2
Fore
SplineSet
5 0 m 5
 0 5 l 5
 0 15 l 5
 5 20 l 5
 14 20 l 5
 14 18 l 5
 7 18 l 5
 4 15 l 5
 4 12 l 5
 10 12 l 5
 10 10 l 5
 4 10 l 5
 4 5 l 5
 7 2 l 5
 14 2 l 5
 14 0 l 5
 5 0 l 5
EndSplineSet
Validated: 1
EndChar

StartChar: uni044D
Encoding: 1101 1101 531
Width: 16
Flags: W
HStem: 0 2<0 7> 6 2<4 10> 12 2<0 7>
VStem: 10 4<5 6 8 9>
CounterMasks: 1 e0
LayerCount: 2
Fore
SplineSet
9 0 m 5
 0 0 l 5
 0 2 l 5
 7 2 l 5
 10 5 l 5
 10 6 l 5
 4 6 l 5
 4 8 l 5
 10 8 l 5
 10 9 l 5
 7 12 l 5
 0 12 l 5
 0 14 l 5
 9 14 l 5
 14 9 l 5
 14 5 l 5
 9 0 l 5
EndSplineSet
Validated: 1
EndChar

StartChar: uni0454
Encoding: 1108 1108 532
Width: 16
Flags: W
HStem: 0 2<7 14> 6 2<4 10> 12 2<7 14>
VStem: 0 4<5 6 8 9>
CounterMasks: 1 e0
LayerCount: 2
Fore
SplineSet
5 0 m 5
 0 5 l 5
 0 9 l 5
 5 14 l 5
 14 14 l 5
 14 12 l 5
 7 12 l 5
 4 9 l 5
 4 8 l 5
 10 8 l 5
 10 6 l 5
 4 6 l 5
 4 5 l 5
 7 2 l 5
 14 2 l 5
 14 0 l 5
 5 0 l 5
EndSplineSet
Validated: 1
EndChar

StartChar: uni041B
Encoding: 1051 1051 533
Width: 16
Flags: W
HStem: 0 2<0 2> 18 2<6 10>
VStem: 2 4<2 18> 10 4<0 18>
LayerCount: 2
Fore
SplineSet
0 2 m 25
 2 2 l 25
 2 20 l 5
 14 20 l 5
 14 0 l 1
 10 0 l 1
 10 18 l 5
 6 18 l 5
 6 0 l 1
 0 0 l 1
 0 2 l 25
EndSplineSet
Validated: 1
EndChar

StartChar: uni043B
Encoding: 1083 1083 534
Width: 16
Flags: W
HStem: 0 2<0 2> 12 2<6 10>
VStem: 2 4<2 12> 10 4<0 12>
LayerCount: 2
Fore
SplineSet
0 2 m 25
 2 2 l 25
 2 14 l 1
 14 14 l 1
 14 0 l 1
 10 0 l 1
 10 12 l 1
 6 12 l 1
 6 0 l 1
 0 0 l 1
 0 2 l 25
EndSplineSet
Validated: 1
EndChar

StartChar: uni0431
Encoding: 1073 1073 535
Width: 16
Flags: W
HStem: 0 2<4 10> 12 2<4 10> 18 2<8 10>
VStem: 0 4<2 12> 10 4<3 11>
LayerCount: 2
Fore
SplineSet
4 12 m 25
 4 2 l 25
 10 2 l 25
 10 12 l 25
 4 12 l 25
10 18 m 1
 8 18 l 1
 4 14 l 1
 11 14 l 1
 14 11 l 1
 14 3 l 1
 11 0 l 1
 0 0 l 1
 0 14 l 1
 6 20 l 1
 10 20 l 1
 10 18 l 1
EndSplineSet
Validated: 1
EndChar

StartChar: uni040B
Encoding: 1035 1035 536
Width: 16
Flags: M
HStem: 12 2<6 10> 18 2<0 2 6 8>
VStem: 2 4<0 12 14 18> 10 4<0 11>
LayerCount: 2
Fore
SplineSet
0 20 m 5
 8 20 l 5
 8 18 l 5
 6 18 l 5
 6 14 l 5
 11 14 l 5
 14 11 l 5
 14 0 l 5
 10 0 l 5
 10 12 l 5
 6 12 l 5
 6 0 l 5
 2 0 l 5
 2 18 l 5
 0 18 l 5
 0 20 l 5
EndSplineSet
Validated: 1
EndChar

StartChar: uni0402
Encoding: 1026 1026 537
Width: 16
Flags: W
HStem: 0 2<8 10> 12 2<6 10> 18 2<0 2 6 8>
VStem: 2 4<0 12 14 18> 10 4<3 11>
LayerCount: 2
Fore
SplineSet
0 20 m 5
 8 20 l 5
 8 18 l 5
 6 18 l 5
 6 14 l 5
 11 14 l 5
 14 11 l 5
 14 3 l 5
 11 0 l 5
 8 0 l 5
 8 2 l 5
 10 2 l 5
 10 12 l 5
 6 12 l 5
 6 0 l 5
 2 0 l 5
 2 18 l 5
 0 18 l 5
 0 20 l 5
EndSplineSet
Validated: 1
EndChar

StartChar: uni0452
Encoding: 1106 1106 538
Width: 16
Flags: HMW
HStem: 12 2<6 10> 16 2<0 2 6 8>
VStem: 2 4<0 12 14 16 18 20> 10 4<0 11>
LayerCount: 2
Fore
SplineSet
2 20 m 1
 6 20 l 1
 6 18 l 1
 8 18 l 1
 8 16 l 1
 6 16 l 1
 6 14 l 1
 11 14 l 1
 14 11 l 1
 14 0 l 1
 12 -4 l 1
 8 -4 l 5
 10 0 l 1
 10 12 l 1
 6 12 l 1
 6 0 l 1
 2 0 l 1
 2 16 l 1
 0 16 l 1
 0 18 l 1
 2 18 l 1
 2 20 l 1
EndSplineSet
Validated: 1
EndChar

StartChar: uni0409
Encoding: 1033 1033 539
Width: 16
Flags: M
HStem: 0 2<8 10> 12 2<8 10> 18 2<2 4>
VStem: 0 2<0 18> 4 4<2 12 14 18> 10 4<3 11>
LayerCount: 2
Fore
SplineSet
10 12 m 25
 8 12 l 1
 8 2 l 25
 10 2 l 5
 10 12 l 25
0 0 m 25
 0 20 l 25
 8 20 l 25
 8 14 l 25
 11 14 l 1
 14 11 l 1
 14 3 l 5
 11 0 l 1
 4 0 l 1
 4 18 l 1
 2 18 l 1
 2 0 l 1
 0 0 l 25
EndSplineSet
Validated: 1
EndChar

StartChar: uni0459
Encoding: 1113 1113 540
Width: 16
Flags: W
HStem: 0 2<8 10> 6 2<8 10> 12 2<2 4>
VStem: 0 2<0 12> 4 4<2 6 8 12>
CounterMasks: 1 e0
LayerCount: 2
Fore
SplineSet
10 6 m 29
 8 6 l 5
 8 2 l 25
 10 2 l 1
 10 6 l 29
0 0 m 25
 0 14 l 29
 8 14 l 29
 8 8 l 29
 11 8 l 5
 14 5 l 5
 14 3 l 1
 11 0 l 1
 4 0 l 1
 4 12 l 5
 2 12 l 5
 2 0 l 1
 0 0 l 25
EndSplineSet
Validated: 1
EndChar

StartChar: uni0414
Encoding: 1044 1044 541
Width: 16
Flags: M
HStem: 0 2<6 8> 18 2<6 8>
VStem: 2 4<2 17> 8 4<2 18>
LayerCount: 2
Fore
SplineSet
8 18 m 1
 6 18 l 1
 6 2 l 1
 8 2 l 5
 8 18 l 1
0 -4 m 1
 0 2 l 25
 2 2 l 1
 2 17 l 25
 5 20 l 1
 12 20 l 1
 12 2 l 1
 14 2 l 1
 14 -4 l 1
 10 -4 l 1
 10 0 l 5
 4 0 l 1
 4 -4 l 1
 0 -4 l 1
EndSplineSet
Validated: 1
EndChar

StartChar: uni0434
Encoding: 1076 1076 542
Width: 16
Flags: MW
HStem: -4 6<0 2 12 14> 12 2<6 8>
VStem: 2 4<2 11> 8 4<2 12>
LayerCount: 2
Fore
SplineSet
8 12 m 5
 6 12 l 5
 6 2 l 1
 8 2 l 1
 8 12 l 5
0 -4 m 1
 0 2 l 25
 2 2 l 1
 2 11 l 29
 5 14 l 5
 12 14 l 5
 12 2 l 1
 14 2 l 1
 14 -4 l 1
 10 -4 l 1
 10 0 l 1
 4 0 l 1
 4 -4 l 1
 0 -4 l 1
EndSplineSet
Validated: 1
EndChar

StartChar: uni0490
Encoding: 1168 1168 543
Width: 16
Flags: M
HStem: 18 2<4 10>
VStem: 0 4<0 18> 10 4<20 22>
LayerCount: 2
Fore
SplineSet
0 0 m 5
 0 20 l 5
 10 20 l 29
 10 22 l 5
 14 22 l 5
 14 18 l 5
 4 18 l 5
 4 0 l 5
 0 0 l 5
EndSplineSet
Validated: 1
EndChar

StartChar: uni0491
Encoding: 1169 1169 544
Width: 16
Flags: MW
HStem: 12 2<4 10>
VStem: 0 4<0 12> 10 4<14 16>
LayerCount: 2
Fore
SplineSet
0 0 m 1
 0 14 l 1
 10 14 l 25
 10 16 l 1
 14 16 l 1
 14 12 l 1
 4 12 l 1
 4 0 l 1
 0 0 l 1
EndSplineSet
Validated: 1
EndChar

StartChar: endash
Encoding: 8211 8211 553
Width: 16
Flags: W
HStem: 8 4<2 14>
LayerCount: 2
Fore
SplineSet
2 12 m 29
 14 12 l 29
 14 8 l 29
 2 8 l 29
 2 12 l 29
EndSplineSet
Validated: 1
EndChar

StartChar: emdash
Encoding: 8212 8212 554
Width: 16
Flags: W
HStem: 8 4<0 14>
LayerCount: 2
Fore
SplineSet
0 12 m 1
 14 12 l 1
 14 8 l 1
 0 8 l 5
 0 12 l 1
EndSplineSet
Validated: 1
EndChar

StartChar: uni2015
Encoding: 8213 8213 555
Width: 16
Flags: W
HStem: 10 2<0 14>
LayerCount: 2
Fore
SplineSet
0 12 m 1
 14 12 l 1
 14 10 l 5
 0 10 l 5
 0 12 l 1
EndSplineSet
Validated: 1
EndChar

StartChar: underscoredbl
Encoding: 8215 8215 556
Width: 16
HStem: -6 2<0 14> -2 2<0 14>
LayerCount: 2
Fore
SplineSet
0 -4 m 25
 14 -4 l 25
 14 -6 l 25
 0 -6 l 25
 0 -4 l 25
0 0 m 1
 14 0 l 25
 14 -2 l 1
 0 -2 l 29
 0 0 l 1
EndSplineSet
Validated: 1
EndChar

StartChar: quoteleft
Encoding: 8216 8216 557
Width: 16
Flags: W
HStem: 14 6<6 8>
VStem: 4 4<14 16>
LayerCount: 2
Fore
SplineSet
8 14 m 5
 4 14 l 5
 4 16 l 29
 6 20 l 5
 10 20 l 5
 8 16 l 29
 8 14 l 5
EndSplineSet
Validated: 1
EndChar

StartChar: quoteright
Encoding: 8217 8217 558
Width: 16
Flags: W
HStem: 14 6<6 8>
VStem: 6 4<18 20>
LayerCount: 2
Fore
SplineSet
6 20 m 5
 10 20 l 5
 10 18 l 29
 8 14 l 5
 4 14 l 5
 6 18 l 29
 6 20 l 5
EndSplineSet
Validated: 1
EndChar

StartChar: quotesinglbase
Encoding: 8218 8218 559
Width: 16
Flags: W
HStem: 0 6<6 8>
VStem: 6 4<4 6>
LayerCount: 2
Fore
SplineSet
6 6 m 5
 10 6 l 5
 10 4 l 29
 8 0 l 5
 4 0 l 5
 6 4 l 29
 6 6 l 5
EndSplineSet
Validated: 1
EndChar

StartChar: quotereversed
Encoding: 8219 8219 560
Width: 16
Flags: W
HStem: 14 6<6 8>
VStem: 4 4<18 20>
LayerCount: 2
Fore
SplineSet
8 20 m 1
 8 18 l 25
 10 14 l 1
 6 14 l 1
 4 18 l 25
 4 20 l 1
 8 20 l 1
EndSplineSet
Validated: 1
EndChar

StartChar: quotedblleft
Encoding: 8220 8220 561
Width: 16
Flags: W
HStem: 14 6<4 6 10 12>
VStem: 2 4<14 16> 8 4<14 16>
LayerCount: 2
Fore
SplineSet
12 14 m 5
 8 14 l 5
 8 16 l 29
 10 20 l 5
 14 20 l 5
 12 16 l 29
 12 14 l 5
6 14 m 5
 2 14 l 5
 2 16 l 29
 4 20 l 5
 8 20 l 5
 6 16 l 29
 6 14 l 5
EndSplineSet
Validated: 1
EndChar

StartChar: quotedblright
Encoding: 8221 8221 562
Width: 16
Flags: W
HStem: 14 6<4 6 10 12>
VStem: 4 4<18 20> 10 4<18 20>
LayerCount: 2
Fore
SplineSet
10 20 m 5
 14 20 l 5
 14 18 l 29
 12 14 l 5
 8 14 l 5
 10 18 l 29
 10 20 l 5
4 20 m 5
 8 20 l 5
 8 18 l 29
 6 14 l 5
 2 14 l 5
 4 18 l 29
 4 20 l 5
EndSplineSet
Validated: 1
EndChar

StartChar: quotedblbase
Encoding: 8222 8222 563
Width: 16
Flags: W
HStem: 0 6<4 6 10 12>
VStem: 4 4<4 6> 10 4<4 6>
LayerCount: 2
Fore
SplineSet
10 6 m 5
 14 6 l 5
 14 4 l 29
 12 0 l 5
 8 0 l 5
 10 4 l 29
 10 6 l 5
4 6 m 5
 8 6 l 5
 8 4 l 29
 6 0 l 5
 2 0 l 5
 4 4 l 29
 4 6 l 5
EndSplineSet
Validated: 1
EndChar

StartChar: dagger
Encoding: 8224 8224 564
Width: 16
HStem: 0 21G<6 8> 0 20G<6 8> 14 2<2 6 8 12>
VStem: 6 2<0 14 16 20>
LayerCount: 2
Fore
SplineSet
2 16 m 1x30
 6 16 l 1x30
 6 20 l 25
 8 20 l 25x50
 8 16 l 1
 12 16 l 1
 12 14 l 1
 8 14 l 1x30
 8 0 l 1
 6 0 l 25x90
 6 14 l 1
 2 14 l 1
 2 16 l 1x30
EndSplineSet
Validated: 1
EndChar

StartChar: daggerdbl
Encoding: 8225 8225 565
Width: 16
HStem: 0 21G<6 8> 0 20G<6 8> 4 2<2 6 8 12> 14 2<2 6 8 12>
VStem: 6 2<0 4 6 14 16 20>
LayerCount: 2
Fore
SplineSet
6 20 m 25x48
 8 20 l 25x48
 8 16 l 25
 12 16 l 29
 12 14 l 29
 8 14 l 25
 8 6 l 25
 12 6 l 29
 12 4 l 29
 8 4 l 25x38
 8 0 l 1
 6 0 l 25x88
 6 4 l 1
 2 4 l 25
 2 6 l 25
 6 6 l 25
 6 14 l 25
 2 14 l 25
 2 16 l 25
 6 16 l 25x38
 6 20 l 25x48
EndSplineSet
Validated: 1
EndChar

StartChar: bullet
Encoding: 8226 8226 566
Width: 16
HStem: 8 6<4 10>
VStem: 4 6<8 14>
LayerCount: 2
Fore
SplineSet
4 14 m 5
 10 14 l 5
 10 8 l 5
 4 8 l 5
 4 14 l 5
EndSplineSet
Validated: 1
EndChar

StartChar: ellipsis
Encoding: 8230 8230 567
Width: 16
HStem: 0 4<0 2 6 8 12 14>
VStem: 0 2<0 4> 6 2<0 4> 12 2<0 4>
CounterMasks: 1 70
LayerCount: 2
Fore
SplineSet
12 4 m 1
 14 4 l 1
 14 0 l 1
 12 0 l 1
 12 4 l 1
6 4 m 1
 8 4 l 1
 8 0 l 1
 6 0 l 1
 6 4 l 1
0 4 m 1
 2 4 l 1
 2 0 l 1
 0 0 l 1
 0 4 l 1
EndSplineSet
Validated: 1
EndChar

StartChar: perthousand
Encoding: 8240 8240 568
Width: 16
Flags: W
HStem: -6 20G<0 14> 0 2<2 4 10 12> 4 2<2 4 10 12> 14 2<2 4> 18 2<2 4>
VStem: 0 2<2 4 16 18> 4 2<2 4 16 18> 12 2<2 4>
LayerCount: 2
Fore
SplineSet
4 4 m 25x6f
 2 4 l 25
 2 2 l 25
 4 2 l 25
 4 4 l 25x6f
0 4 m 17
 2 6 l 1
 4 6 l 17
 6 4 l 1
 6 2 l 1
 4 0 l 9
 2 0 l 1
 0 2 l 1
 0 4 l 17
12 4 m 25
 10 4 l 25
 10 2 l 25
 12 2 l 25
 12 4 l 25
4 18 m 25
 2 18 l 25
 2 16 l 25
 4 16 l 25x1f
 4 18 l 25
8 4 m 17x6f
 10 6 l 1
 12 6 l 17
 14 4 l 1
 14 2 l 1
 12 0 l 9
 10 0 l 1
 8 2 l 1
 8 4 l 17x6f
0 18 m 25
 2 20 l 1
 4 20 l 25
 6 18 l 1
 6 16 l 1x1f
 4 14 l 25
 2 14 l 17x8f
 0 16 l 1x1f
 0 18 l 25
10 14 m 1x8f
 14 14 l 1
 4 8 l 5
 0 8 l 1
 10 14 l 1x8f
EndSplineSet
Validated: 1
EndChar

StartChar: minute
Encoding: 8242 8242 569
Width: 16
Flags: W
HStem: 14 6
VStem: 4 6
LayerCount: 2
Fore
SplineSet
6 20 m 5
 10 20 l 5
 6 14 l 5
 4 14 l 5
 6 20 l 5
EndSplineSet
Validated: 1
EndChar

StartChar: second
Encoding: 8243 8243 570
Width: 16
Flags: W
HStem: 14 6
LayerCount: 2
Fore
SplineSet
10 20 m 1
 14 20 l 5
 10 14 l 1
 8 14 l 1
 10 20 l 1
4 20 m 1
 8 20 l 1
 4 14 l 1
 2 14 l 1
 4 20 l 1
EndSplineSet
Validated: 1
EndChar

StartChar: guilsinglleft
Encoding: 8249 8249 571
Width: 16
Flags: W
HStem: 0 21G<4 12>
VStem: 4 8
LayerCount: 2
Fore
SplineSet
8 10 m 5
 12 10 l 5
 8 5 l 5
 12 0 l 5
 8 0 l 5
 4 5 l 5
 8 10 l 5
EndSplineSet
Validated: 1
EndChar

StartChar: guilsinglright
Encoding: 8250 8250 572
Width: 16
Flags: W
HStem: 0 21G<8 8>
VStem: 4 8
LayerCount: 2
Fore
SplineSet
8 10 m 1
 12 5 l 1
 8 0 l 1
 4 0 l 1
 8 5 l 1
 4 10 l 1
 8 10 l 1
EndSplineSet
Validated: 1
EndChar

StartChar: exclamdbl
Encoding: 8252 8252 573
Width: 16
VWidth: 24
Flags: W
HStem: 0 20G<2 6 10 14> 0 4<2 6 10 14>
VStem: 2 4<0 4 8 20> 10 4<0 4 8 20>
LayerCount: 2
Fore
SplineSet
10 20 m 29xb0
 14 20 l 29
 14 8 l 29
 10 8 l 29
 10 20 l 29xb0
10 4 m 29x70
 14 4 l 29x70
 14 0 l 29
 10 0 l 29xb0
 10 4 l 29x70
2 20 m 25xb0
 6 20 l 25
 6 8 l 25
 2 8 l 25
 2 20 l 25xb0
2 4 m 25x70
 6 4 l 25x70
 6 0 l 25
 2 0 l 25xb0
 2 4 l 25x70
EndSplineSet
Validated: 1
EndChar

StartChar: uni203E
Encoding: 8254 8254 574
Width: 16
Flags: W
HStem: 24 2<0 16>
LayerCount: 2
Fore
SplineSet
0 26 m 5
 16 26 l 5
 16 24 l 5
 0 24 l 5
 0 26 l 5
EndSplineSet
Validated: 1
EndChar

StartChar: fraction
Encoding: 8260 8260 575
Width: 16
Flags: W
LayerCount: 2
Fore
SplineSet
12 18 m 5
 14 18 l 5
 2 2 l 5
 0 2 l 5
 12 18 l 5
EndSplineSet
Validated: 1
EndChar

StartChar: uni207F
Encoding: 8319 8319 576
Width: 16
Flags: W
HStem: 18 2<6 8>
VStem: 4 2<10 18> 8 2<10 18>
LayerCount: 2
Fore
SplineSet
4 10 m 25
 4 20 l 25
 8 20 l 25
 10 18 l 25
 10 10 l 25
 8 10 l 25
 8 18 l 25
 6 18 l 25
 6 10 l 25
 4 10 l 25
EndSplineSet
Validated: 1
EndChar

StartChar: franc
Encoding: 8355 8355 577
Width: 16
HStem: 0 21G<2 6> 2 2<0 2 6 8> 10 2<6 12> 18 2<6 14>
VStem: 2 4<0 2 4 10 12 18>
LayerCount: 2
Fore
SplineSet
2 0 m 1x88
 2 2 l 25
 0 2 l 25
 0 4 l 25
 2 4 l 25
 2 20 l 25
 14 20 l 1
 14 18 l 1
 6 18 l 1
 6 12 l 1
 12 12 l 1
 12 10 l 5
 6 10 l 1
 6 4 l 1
 8 4 l 1
 8 2 l 1
 6 2 l 1x78
 6 0 l 1
 2 0 l 1x88
EndSplineSet
Validated: 1
EndChar

StartChar: lira
Encoding: 8356 8356 578
Width: 16
Flags: W
HStem: 0 2<0 2 6 14> 8 2<0 2 6 14> 12 2<0 2 6 14>
VStem: 2 4<2 8 10 12 14 17>
LayerCount: 2
Fore
SplineSet
0 0 m 1
 0 2 l 1
 2 2 l 1
 2 8 l 1
 0 8 l 1
 0 10 l 1
 2 10 l 1
 2 12 l 1
 0 12 l 1
 0 14 l 1
 2 14 l 1
 2 17 l 1
 5 20 l 1
 11 20 l 1
 14 17 l 1
 14 16 l 1
 10 16 l 1
 10 18 l 1
 6 18 l 1
 6 14 l 1
 14 14 l 1
 14 12 l 1
 6 12 l 1
 6 10 l 1
 14 10 l 1
 14 8 l 1
 6 8 l 1
 6 2 l 1
 14 2 l 1
 14 0 l 1
 0 0 l 1
EndSplineSet
Validated: 1
EndChar

StartChar: peseta
Encoding: 8359 8359 579
Width: 16
HStem: 0 2<12 14> 10 2<2 4> 12 2<8 10 12 14>
VStem: 0 2<0 10 12 18> 10 2<2 12 14 20>
LayerCount: 2
Fore
SplineSet
4 18 m 25xd8
 2 18 l 1
 2 12 l 25
 4 12 l 1
 4 18 l 25xd8
10 20 m 25
 12 20 l 25
 12 14 l 1
 14 14 l 1
 14 12 l 1
 12 12 l 1
 12 2 l 1
 14 2 l 1
 14 0 l 1
 12 0 l 1
 10 2 l 1
 10 12 l 1
 8 12 l 1
 8 14 l 1
 10 14 l 25xb8
 10 20 l 25
0 0 m 25
 0 20 l 25
 4 20 l 25
 6 18 l 25
 6 12 l 25xb8
 4 10 l 1
 2 10 l 25xd8
 2 0 l 1
 0 0 l 25
EndSplineSet
Validated: 1
EndChar

StartChar: Euro
Encoding: 8364 8364 580
Width: 16
Flags: W
HStem: 0 2<9 14> 8 2<0 2 6 10> 12 2<0 2 6 10>
VStem: 2 4<5 8 10 12 14 15>
LayerCount: 2
Fore
SplineSet
7 0 m 1
 2 5 l 1
 2 8 l 5
 0 8 l 1
 0 10 l 1
 2 10 l 1
 2 12 l 1
 0 12 l 1
 0 14 l 1
 2 14 l 1
 2 15 l 1
 7 20 l 1
 14 20 l 1
 14 18 l 1
 9 18 l 1
 6 15 l 1
 6 14 l 1
 10 14 l 1
 10 12 l 1
 6 12 l 1
 6 10 l 1
 10 10 l 1
 10 8 l 1
 6 8 l 1
 6 5 l 1
 9 2 l 1
 14 2 l 1
 14 0 l 1
 7 0 l 1
EndSplineSet
Validated: 1
EndChar

StartChar: uni2105
Encoding: 8453 8453 581
Width: 16
Flags: W
HStem: 0 2<10 12> 4 2<10 12> 14 2<2 5> 18 2<2 5>
VStem: 0 2<16 18> 8 2<2 4> 12 2<2 4>
LayerCount: 2
Fore
SplineSet
2 20 m 1
 5 20 l 25
 5 18 l 25
 2 18 l 25
 2 16 l 25
 5 16 l 25
 5 14 l 25
 2 14 l 25
 0 16 l 1
 0 18 l 29
 2 20 l 1
12 4 m 25
 10 4 l 25
 10 2 l 25
 12 2 l 25
 12 4 l 25
8 4 m 17
 10 6 l 1
 12 6 l 17
 14 4 l 1
 14 2 l 1
 12 0 l 9
 10 0 l 1
 8 2 l 1
 8 4 l 17
10 20 m 25
 14 20 l 25
 4 0 l 25
 0 0 l 25
 10 20 l 25
EndSplineSet
Validated: 1
EndChar

StartChar: uni2103
Encoding: 8451 8451 582
Width: 16
HStem: 0 2<10 12> 14 2<2 4> 18 2<2 4 10 12>
VStem: 0 2<16 18> 4 2<16 18> 8 2<2 18> 12 2<2 4 16 18>
LayerCount: 2
Fore
SplineSet
10 20 m 5
 12 20 l 29
 14 18 l 5
 14 16 l 5
 12 16 l 29
 12 18 l 5
 10 18 l 29
 10 2 l 5
 12 2 l 5
 12 4 l 5
 14 4 l 5
 14 2 l 5
 12 0 l 5
 10 0 l 5
 8 2 l 29
 8 18 l 5
 10 20 l 5
4 18 m 29
 2 18 l 29
 2 16 l 29
 4 16 l 29
 4 18 l 29
0 18 m 29
 2 20 l 29
 4 20 l 29
 6 18 l 29
 6 16 l 29
 4 14 l 29
 2 14 l 29
 0 16 l 29
 0 18 l 29
EndSplineSet
Validated: 1
EndChar

StartChar: uni2109
Encoding: 8457 8457 583
Width: 16
Flags: W
HStem: 0 21G<8 10> 10 2<10 14> 14 2<2 4> 18 2<2 4 10 14>
VStem: 0 2<16 18> 4 2<16 18> 8 6<10 12 18 20> 8 2<0 10 12 18>
LayerCount: 2
Fore
SplineSet
8 20 m 29x1e
 14 20 l 29
 14 18 l 5x1e
 10 18 l 5
 10 12 l 5x5d
 14 12 l 5
 14 10 l 5x5e
 10 10 l 5x5d
 10 0 l 5
 8 0 l 5x8d
 8 20 l 29x1e
4 18 m 29
 2 18 l 29
 2 16 l 29
 4 16 l 29x3c
 4 18 l 29
0 18 m 29
 2 20 l 29
 4 20 l 29
 6 18 l 29
 6 16 l 29
 4 14 l 29
 2 14 l 29
 0 16 l 29
 0 18 l 29
EndSplineSet
Validated: 1
EndChar

StartChar: uni2113
Encoding: 8467 8467 584
Width: 16
HStem: 0 2<6 8> 6 2<2 4 6 8> 18 2<6 8>
VStem: 4 2<2 6 8 18> 8 2<2 4 8 18>
LayerCount: 2
Fore
SplineSet
8 18 m 1
 6 18 l 1
 6 8 l 1
 8 8 l 1
 8 18 l 1
2 8 m 1
 4 8 l 1
 4 18 l 1
 6 20 l 1
 8 20 l 1
 10 18 l 1
 10 8 l 1
 8 6 l 1
 6 6 l 1
 6 2 l 1
 8 2 l 1
 8 4 l 1
 10 4 l 1
 10 2 l 1
 8 0 l 1
 6 0 l 1
 4 2 l 1
 4 6 l 1
 2 6 l 1
 2 8 l 1
EndSplineSet
Validated: 1
EndChar

StartChar: uni2116
Encoding: 8470 8470 585
Width: 16
Flags: M
HStem: 10 2<8 14> 14 2<10 12> 18 2<2 4 10 12>
VStem: 0 2<0 18> 4 2<0 18> 8 2<16 18> 12 2<16 18>
CounterMasks: 1 e0
LayerCount: 2
Fore
SplineSet
0 0 m 1
 0 20 l 1
 4 20 l 29
 6 18 l 1
 6 0 l 25
 4 0 l 25
 4 18 l 1
 2 18 l 1
 2 0 l 1
 0 0 l 1
8 12 m 25
 14 12 l 25
 14 10 l 25
 8 10 l 25
 8 12 l 25
12 18 m 1
 10 18 l 1
 10 16 l 1
 12 16 l 1
 12 18 l 1
10 20 m 1
 12 20 l 1
 14 18 l 1
 14 16 l 1
 12 14 l 1
 10 14 l 1
 8 16 l 1
 8 18 l 1
 10 20 l 1
EndSplineSet
Validated: 1
EndChar

StartChar: trademark
Encoding: 8482 8482 586
Width: 16
HStem: 12 8<2 4 8 10 12 14> 15 21G<10 12> 18 2<0 2 4 6>
VStem: 2 2<12 18> 8 2<12 17> 12 2<12 17>
LayerCount: 2
Fore
SplineSet
8 12 m 1x9c
 8 20 l 1
 10 20 l 1x9c
 11 18 l 1x3c
 12 20 l 1
 14 20 l 1
 14 12 l 1
 12 12 l 1x9c
 12 17 l 5
 11 15 l 1x5c
 10 17 l 5
 10 12 l 1
 8 12 l 1x9c
2 12 m 1
 2 18 l 1
 0 18 l 25
 0 20 l 1
 6 20 l 1
 6 18 l 1
 4 18 l 1x3c
 4 12 l 1
 2 12 l 1
EndSplineSet
Validated: 1
EndChar

StartChar: estimated
Encoding: 8494 8494 588
Width: 16
Flags: W
HStem: 0 1<4 10> 6 1<4 10> 13 1<4 10>
VStem: 0 4<3 6 7 11> 10 4<7 11>
AnchorPoint: "top" 7 14 basechar 0
AnchorPoint: "bottom" 7 0 basechar 0
LayerCount: 2
Fore
SplineSet
10 13 m 1
 4 13 l 1
 4 7 l 1
 10 7 l 1
 10 13 l 1
3 14 m 1
 11 14 l 1
 14 11 l 1
 14 6 l 1
 4 6 l 1
 4 1 l 1
 10 1 l 1
 13 4 l 5
 14 4 l 1
 14 3 l 1
 11 0 l 1
 3 0 l 1
 0 3 l 1
 0 11 l 1
 3 14 l 1
EndSplineSet
Validated: 1
EndChar

StartChar: oneeighth
Encoding: 8539 8539 589
Width: 16
Flags: W
HStem: -2 2<10 12> 2 2<10 12> 6 2<10 12> 12 2<0 2 4 6>
VStem: 0 4<18 20> 2 2<14 18 20 22> 8 2<0 2 4 6> 12 2<0 2 4 6>
LayerCount: 2
Fore
SplineSet
12 2 m 29xf3
 10 2 l 29
 10 0 l 29
 12 0 l 29
 12 2 l 29xf3
12 6 m 29
 10 6 l 29
 10 4 l 29
 12 4 l 29
 12 6 l 29
8 8 m 5
 14 8 l 5
 14 -2 l 5
 8 -2 l 5
 8 8 l 5
12 18 m 5
 14 18 l 5
 2 2 l 5xf7
 0 2 l 5xfb
 12 18 l 5
0 20 m 29xfb
 2 20 l 29
 2 22 l 29
 4 22 l 29
 4 14 l 29xf7
 6 14 l 29
 6 12 l 29
 0 12 l 29
 0 14 l 29xfb
 2 14 l 29
 2 18 l 29xf7
 0 18 l 29
 0 20 l 29xfb
EndSplineSet
Validated: 1
EndChar

StartChar: threeeighths
Encoding: 8540 8540 590
Width: 16
Flags: W
HStem: -2 2<10 12> 2 2<10 12> 6 2<10 12> 12 2<0 4> 16 2<0 4> 20 2<0 4>
VStem: 0 6<12 14 16 18 20 22> 4 2<14 16 18 20> 8 2<0 2 4 6> 12 2<0 2 4 6>
LayerCount: 2
Fore
SplineSet
12 2 m 25xfcc0
 10 2 l 25
 10 0 l 25
 12 0 l 25
 12 2 l 25xfcc0
12 6 m 25
 10 6 l 25
 10 4 l 25
 12 4 l 25
 12 6 l 25
8 8 m 1
 14 8 l 1
 14 -2 l 1
 8 -2 l 1
 8 8 l 1
12 18 m 1
 14 18 l 1
 2 2 l 1
 0 2 l 1xfec0
 12 18 l 1
0 18 m 1
 4 18 l 1
 4 20 l 1xfdc0
 0 20 l 1
 0 22 l 1
 6 22 l 1
 6 12 l 1
 0 12 l 25
 0 14 l 25xfec0
 4 14 l 1
 4 16 l 1xfdc0
 0 16 l 1
 0 18 l 1
EndSplineSet
Validated: 1
EndChar

StartChar: fiveeighths
Encoding: 8541 8541 591
Width: 16
Flags: W
HStem: -2 2<10 12> 2 2<10 12> 6 2<10 12> 12 2<0 4> 16 2<2 4> 20 2<2 6>
VStem: 0 2<18 20> 4 2<14 16> 8 2<0 2 4 6> 12 2<0 2 4 6>
LayerCount: 2
Fore
SplineSet
0 22 m 25
 6 22 l 25
 6 20 l 1
 2 20 l 1
 2 18 l 1
 6 18 l 1
 6 12 l 1
 0 12 l 25
 0 14 l 25
 4 14 l 1
 4 16 l 25
 0 16 l 1
 0 22 l 25
12 2 m 25
 10 2 l 25
 10 0 l 25
 12 0 l 25
 12 2 l 25
12 6 m 25
 10 6 l 25
 10 4 l 25
 12 4 l 25
 12 6 l 25
8 8 m 1
 14 8 l 1
 14 -2 l 1
 8 -2 l 1
 8 8 l 1
12 18 m 1
 14 18 l 1
 2 2 l 1
 0 2 l 1
 12 18 l 1
EndSplineSet
Validated: 1
EndChar

StartChar: seveneighths
Encoding: 8542 8542 592
Width: 16
Flags: W
HStem: -2 2<10 12> 2 2<10 12> 6 2<10 12> 20 2<0 4>
VStem: 4 2<12 20> 8 2<0 2 4 6> 12 2<0 2 4 6>
CounterMasks: 1 0e
LayerCount: 2
Fore
SplineSet
0 22 m 1
 6 22 l 1
 6 12 l 5
 4 12 l 5
 4 20 l 1
 0 20 l 1
 0 22 l 1
12 2 m 25
 10 2 l 25
 10 0 l 25
 12 0 l 25
 12 2 l 25
12 6 m 25
 10 6 l 25
 10 4 l 25
 12 4 l 25
 12 6 l 25
8 8 m 1
 14 8 l 1
 14 -2 l 1
 8 -2 l 1
 8 8 l 1
12 18 m 1
 14 18 l 1
 2 2 l 1
 0 2 l 1
 12 18 l 1
EndSplineSet
Validated: 1
EndChar

StartChar: arrowleft
Encoding: 8592 8592 593
Width: 16
HStem: 8 6<5 14>
LayerCount: 2
Fore
SplineSet
7 18 m 5
 9 18 l 5
 5 14 l 5
 14 14 l 5
 14 8 l 5
 5 8 l 5
 9 4 l 5
 7 4 l 5
 0 11 l 5
 7 18 l 5
EndSplineSet
Validated: 1
EndChar

StartChar: arrowright
Encoding: 8594 8594 594
Width: 16
Flags: W
HStem: 8 6<0 9>
LayerCount: 2
Fore
SplineSet
7 18 m 1
 14 11 l 1
 7 4 l 1
 5 4 l 1
 9 8 l 1
 0 8 l 1
 0 14 l 1
 9 14 l 1
 5 18 l 1
 7 18 l 1
EndSplineSet
Validated: 1
EndChar

StartChar: arrowup
Encoding: 8593 8593 595
Width: 16
Flags: HMW
VStem: 4 6<2 15>
LayerCount: 2
Fore
SplineSet
4 2 m 5
 4 15 l 5
 0 11 l 5
 0 13 l 5
 7 20 l 5
 14 13 l 5
 14 11 l 5
 10 15 l 5
 10 2 l 5
 4 2 l 5
EndSplineSet
Validated: 1
EndChar

StartChar: arrowdown
Encoding: 8595 8595 596
Width: 16
Flags: W
HStem: 0 20G<4 10>
VStem: 4 6<7 20>
LayerCount: 2
Fore
SplineSet
4 20 m 1
 10 20 l 1
 10 7 l 1
 14 11 l 1
 14 9 l 1
 7 2 l 1
 0 9 l 1
 0 11 l 1
 4 7 l 1
 4 20 l 1
EndSplineSet
Validated: 1
EndChar

StartChar: arrowboth
Encoding: 8596 8596 597
Width: 16
Flags: W
HStem: 8 6<4 12>
LayerCount: 2
Fore
SplineSet
4 18 m 5
 6 18 l 5
 4 14 l 5
 12 14 l 5
 10 18 l 5
 12 18 l 5
 16 11 l 5
 12 4 l 5
 10 4 l 5
 12 8 l 5
 4 8 l 5
 6 4 l 5
 4 4 l 5
 0 11 l 5
 4 18 l 5
EndSplineSet
Validated: 1
EndChar

StartChar: arrowupdn
Encoding: 8597 8597 598
Width: 16
Flags: W
HStem: 0 20G<0 14> 13 21G<0 4 10 14>
VStem: 4 6<6 16>
LayerCount: 2
Fore
SplineSet
4 6 m 5x60
 4 16 l 5
 0 13 l 5x60
 0 15 l 5
 7 20 l 5xa0
 14 15 l 5
 14 13 l 5
 10 16 l 5
 10 6 l 5
 14 9 l 5
 14 7 l 5
 7 2 l 5
 0 7 l 5
 0 9 l 5
 4 6 l 5x60
EndSplineSet
Validated: 1
EndChar

StartChar: arrowupdnbse
Encoding: 8616 8616 599
Width: 16
Flags: W
HStem: -2 2<0 14> 0 20G<0 14> 13 21G<0 4 10 14>
VStem: 4 6<6 16>
LayerCount: 2
Fore
SplineSet
0 0 m 25x90
 14 0 l 25
 14 -2 l 25
 0 -2 l 25
 0 0 l 25x90
4 6 m 1
 4 16 l 1
 0 13 l 1x30
 0 15 l 1
 7 20 l 1x50
 14 15 l 1
 14 13 l 1x30
 10 16 l 1
 10 6 l 1
 14 9 l 1
 14 7 l 1
 7 2 l 1
 0 7 l 1
 0 9 l 1
 4 6 l 1
EndSplineSet
Validated: 1
EndChar

StartChar: partialdiff
Encoding: 8706 8706 600
Width: 16
Flags: W
HStem: 0 2<4 10> 10 2<4 10> 18 2<2 7>
VStem: 0 4<3 9> 10 4<3 10 12 15>
LayerCount: 2
Fore
SplineSet
4 10 m 5
 4 2 l 5
 10 2 l 5
 10 10 l 5
 4 10 l 5
9 20 m 5
 14 15 l 5
 14 12 l 5
 14 3 l 5
 11 0 l 5
 3 0 l 5
 0 3 l 5
 0 9 l 5
 3 12 l 5
 10 12 l 5
 10 15 l 5
 7 18 l 5
 2 18 l 5
 2 20 l 5
 9 20 l 5
EndSplineSet
Validated: 1
EndChar

StartChar: radical
Encoding: 8730 8730 607
Width: 16
Flags: M
HStem: 18 2<8 14>
VStem: 4 4<4 18>
LayerCount: 2
Fore
SplineSet
0 4 m 1
 0 8 l 5
 4 4 l 1
 4 20 l 25
 14 20 l 1
 14 18 l 1
 8 18 l 1
 8 0 l 1
 4 0 l 1
 0 4 l 1
EndSplineSet
Validated: 1
EndChar

StartChar: orthogonal
Encoding: 8735 8735 608
Width: 16
HStem: -6 20G<0 2> 0 2<2 14>
VStem: 0 2<2 14>
LayerCount: 2
Fore
SplineSet
0 14 m 25xa0
 2 14 l 1xa0
 2 2 l 25
 14 2 l 5
 14 0 l 25
 0 0 l 25x60
 0 14 l 25xa0
EndSplineSet
Validated: 1
EndChar

StartChar: infinity
Encoding: 8734 8734 609
Width: 16
HStem: 6 2<2 4 10 12> 12 2<2 4 10 12>
VStem: 0 2<8 12> 12 2<8 12>
LayerCount: 2
Fore
SplineSet
12 12 m 29
 10 12 l 5
 8 10 l 5
 10 8 l 5
 12 8 l 29
 12 12 l 29
4 12 m 5
 2 12 l 29
 2 8 l 29
 4 8 l 5
 6 10 l 5
 4 12 l 5
0 8 m 5
 0 12 l 5
 2 14 l 29
 4 14 l 5
 7 11 l 29
 10 14 l 5
 12 14 l 5
 14 12 l 5
 14 8 l 5
 12 6 l 5
 10 6 l 5
 7 9 l 5
 4 6 l 5
 2 6 l 5
 0 8 l 5
EndSplineSet
Validated: 1
EndChar

StartChar: intersection
Encoding: 8745 8745 610
Width: 16
Flags: M
HStem: 18 2<6 8>
VStem: 2 2<0 16> 10 2<0 16>
LayerCount: 2
Fore
SplineSet
2 18 m 25
 4 20 l 25
 10 20 l 25
 12 18 l 1
 12 0 l 1
 10 0 l 1
 10 16 l 5
 8 18 l 1
 6 18 l 1
 4 16 l 1
 4 0 l 25
 2 0 l 25
 2 18 l 25
EndSplineSet
Validated: 1
EndChar

StartChar: integral
Encoding: 8747 8747 611
Width: 16
Flags: M
HStem: -4 2<3 5> 22 2<9 11>
VStem: 0 2<-1 0> 6 2<-1 21> 12 2<20 21>
CounterMasks: 1 38
LayerCount: 2
Fore
SplineSet
0 0 m 5
 2 0 l 29
 2 -1 l 29
 3 -2 l 5
 5 -2 l 5
 6 -1 l 5
 6 22 l 5
 8 24 l 5
 12 24 l 5
 14 22 l 5
 14 20 l 5
 12 20 l 5
 12 21 l 29
 11 22 l 29
 9 22 l 5
 8 21 l 5
 8 -2 l 5
 6 -4 l 5
 2 -4 l 5
 0 -2 l 5
 0 0 l 5
EndSplineSet
Validated: 1
EndChar

StartChar: approxequal
Encoding: 8776 8776 612
Width: 16
Flags: W
HStem: 0 21G<2 6 6 14>
LayerCount: 2
Fore
SplineSet
2 4 m 25
 6 8 l 25
 10 4 l 25
 14 8 l 25
 14 4 l 25
 10 0 l 25
 6 4 l 25
 2 0 l 25
 2 4 l 25
2 12 m 29
 6 16 l 29
 10 12 l 29
 14 16 l 29
 14 12 l 29
 10 8 l 29
 6 12 l 29
 2 8 l 29
 2 12 l 29
EndSplineSet
Validated: 1
EndChar

StartChar: notequal
Encoding: 8800 8800 613
Width: 16
Flags: W
HStem: 4 4<0 2 4 5 7 14> 10 4<0 7 9 10 12 14>
LayerCount: 2
Fore
SplineSet
12 16 m 1
 14 16 l 1
 12 14 l 1
 14 14 l 1
 14 10 l 1
 9 10 l 1
 7 8 l 1
 14 8 l 1
 14 4 l 1
 4 4 l 1
 2 2 l 1
 0 2 l 1
 2 4 l 1
 0 4 l 1
 0 8 l 1
 5 8 l 1
 7 10 l 1
 0 10 l 1
 0 14 l 1
 10 14 l 1
 12 16 l 1
EndSplineSet
Validated: 1
EndChar

StartChar: equivalence
Encoding: 8801 8801 614
Width: 16
Flags: W
HStem: 0 4<0 14> 6 4<0 14> 12 4<0 14>
VStem: 0 14<0 4 6 10 12 16>
CounterMasks: 1 e0
LayerCount: 2
Fore
SplineSet
0 16 m 5
 14 16 l 5
 14 12 l 5
 0 12 l 5
 0 16 l 5
0 4 m 29
 14 4 l 29
 14 0 l 29
 0 0 l 29
 0 4 l 29
0 10 m 5
 14 10 l 5
 14 6 l 5
 0 6 l 5
 0 10 l 5
EndSplineSet
Validated: 1
EndChar

StartChar: lessequal
Encoding: 8804 8804 615
Width: 16
Flags: W
HStem: 0 20G<0 12> 0 4<0 12>
LayerCount: 2
Fore
SplineSet
0 4 m 29x40
 12 4 l 29x40
 12 0 l 29
 0 0 l 29x80
 0 4 l 29x40
8 20 m 5x80
 12 20 l 5
 4 13 l 5
 12 6 l 5
 8 6 l 5
 0 13 l 5
 8 20 l 5x80
EndSplineSet
Validated: 1
EndChar

StartChar: greaterequal
Encoding: 8805 8805 616
Width: 16
Flags: W
HStem: 0 20G<0 12> 0 4<0 12>
LayerCount: 2
Fore
SplineSet
12 4 m 25x40
 12 0 l 25
 0 0 l 25x80
 0 4 l 25
 12 4 l 25x40
4 20 m 1
 12 13 l 1
 4 6 l 1
 0 6 l 1
 8 13 l 1
 0 20 l 1
 4 20 l 1
EndSplineSet
Validated: 1
EndChar

StartChar: house
Encoding: 8962 8962 617
Width: 16
HStem: 0 20G<0 14> 0 2<2 12>
VStem: 0 2<2 13> 12 2<2 13>
LayerCount: 2
Fore
SplineSet
7 17 m 1x70
 2 13 l 1
 2 2 l 1
 12 2 l 1
 12 13 l 5
 7 17 l 1x70
0 0 m 25xb0
 0 14 l 1
 7 20 l 25
 14 14 l 1
 14 0 l 25
 0 0 l 25xb0
EndSplineSet
Validated: 1
EndChar

StartChar: revlogicalnot
Encoding: 8976 8976 618
Width: 16
Flags: W
HStem: 10 4<0 4> 12 2<4 14>
VStem: 0 4<10 12>
LayerCount: 2
Fore
SplineSet
14 14 m 5x60
 14 12 l 29
 4 12 l 5x60
 4 10 l 29
 0 10 l 29
 0 14 l 29xa0
 14 14 l 5x60
EndSplineSet
Validated: 1
EndChar

StartChar: integraltp
Encoding: 8992 8992 619
Width: 16
Flags: W
HStem: 20 21G<12 14> 22 2<9 11>
VStem: 6 2<-6 21> 12 2<20 21>
LayerCount: 2
Fore
SplineSet
8 21 m 9x70
 8 -6 l 1
 6 -6 l 1
 6 22 l 1
 8 24 l 1
 12 24 l 1
 14 22 l 1x70
 14 20 l 1
 12 20 l 1xb0
 12 21 l 25
 11 22 l 25
 9 22 l 1
 8 21 l 9x70
EndSplineSet
Validated: 1
EndChar

StartChar: integralbt
Encoding: 8993 8993 620
Width: 16
Flags: W
HStem: -20 20G<0 2> -4 2<3 5>
VStem: 0 2<-1 0> 6 2<-1 26>
LayerCount: 2
Fore
SplineSet
8 26 m 5x70
 8 -2 l 1
 6 -4 l 1
 2 -4 l 1
 0 -2 l 1x70
 0 0 l 1
 2 0 l 25xb0
 2 -1 l 25
 3 -2 l 1
 5 -2 l 1
 6 -1 l 1
 6 26 l 5
 8 26 l 5x70
EndSplineSet
Validated: 1
EndChar

StartChar: SF100000
Encoding: 9472 9472 621
Width: 16
HStem: 10 2<0 16>
LayerCount: 2
Fore
SplineSet
0 12 m 29
 16 12 l 29
 16 10 l 29
 0 10 l 29
 0 12 l 29
EndSplineSet
Validated: 1
EndChar

StartChar: SF110000
Encoding: 9474 9474 622
Width: 16
VStem: 6 2<-6 26>
LayerCount: 2
Fore
SplineSet
6 26 m 29
 8 26 l 29
 8 -6 l 29
 6 -6 l 29
 6 26 l 29
EndSplineSet
Validated: 1
EndChar

StartChar: SF010000
Encoding: 9484 9484 623
Width: 16
HStem: 10 2<8 16>
VStem: 6 2<-6 10>
LayerCount: 2
Fore
SplineSet
6 12 m 5
 16 12 l 29
 16 10 l 29
 8 10 l 29
 8 -6 l 1
 6 -6 l 25
 6 12 l 5
EndSplineSet
Validated: 1
EndChar

StartChar: SF030000
Encoding: 9488 9488 624
Width: 16
HStem: 10 2<0 6>
VStem: 6 2<-6 10>
LayerCount: 2
Fore
SplineSet
0 12 m 29
 8 12 l 29
 8 -6 l 25
 6 -6 l 25
 6 10 l 29
 0 10 l 29
 0 12 l 29
EndSplineSet
Validated: 1
EndChar

StartChar: SF020000
Encoding: 9492 9492 625
Width: 16
HStem: 10 2<8 16>
VStem: 6 2<12 26>
LayerCount: 2
Fore
SplineSet
6 26 m 25
 8 26 l 25
 8 12 l 29
 16 12 l 29
 16 10 l 29
 6 10 l 29
 6 26 l 25
EndSplineSet
Validated: 1
EndChar

StartChar: SF040000
Encoding: 9496 9496 626
Width: 16
HStem: 10 2<0 6>
VStem: 6 2<12 26>
LayerCount: 2
Fore
SplineSet
0 12 m 29
 6 12 l 29
 6 26 l 25
 8 26 l 25
 8 10 l 29
 0 10 l 29
 0 12 l 29
EndSplineSet
Validated: 1
EndChar

StartChar: SF080000
Encoding: 9500 9500 627
Width: 16
HStem: 10 2<8 16>
VStem: 6 2<-6 10 12 26>
LayerCount: 2
Fore
SplineSet
6 26 m 25
 8 26 l 25
 8 12 l 29
 16 12 l 29
 16 10 l 29
 8 10 l 29
 8 -6 l 25
 6 -6 l 25
 6 26 l 25
EndSplineSet
Validated: 1
EndChar

StartChar: SF090000
Encoding: 9508 9508 628
Width: 16
HStem: 10 2<0 6>
VStem: 6 2<-6 10 12 26>
LayerCount: 2
Fore
SplineSet
0 12 m 25
 6 12 l 25
 6 26 l 25
 8 26 l 25
 8 -6 l 1
 6 -6 l 29
 6 10 l 1
 0 10 l 25
 0 12 l 25
EndSplineSet
Validated: 1
EndChar

StartChar: SF060000
Encoding: 9516 9516 629
Width: 16
HStem: 10 2<0 6 8 16>
VStem: 6 2<-6 10>
LayerCount: 2
Fore
SplineSet
0 12 m 29
 16 12 l 25
 16 10 l 25
 8 10 l 25
 8 -6 l 25
 6 -6 l 25
 6 10 l 25
 0 10 l 25
 0 12 l 29
EndSplineSet
Validated: 1
EndChar

StartChar: SF070000
Encoding: 9524 9524 630
Width: 16
HStem: 10 2<0 6 8 16>
VStem: 6 2<12 26>
LayerCount: 2
Fore
SplineSet
0 12 m 29
 6 12 l 25
 6 26 l 25
 8 26 l 25
 8 12 l 25
 16 12 l 25
 16 10 l 25
 0 10 l 25
 0 12 l 29
EndSplineSet
Validated: 1
EndChar

StartChar: SF050000
Encoding: 9532 9532 631
Width: 16
HStem: 10 2<0 6 8 16>
VStem: 6 2<-6 10 12 26>
LayerCount: 2
Fore
SplineSet
0 12 m 29
 6 12 l 25
 6 26 l 25
 8 26 l 25
 8 12 l 25
 16 12 l 25
 16 10 l 25
 8 10 l 25
 8 -6 l 25
 6 -6 l 25
 6 10 l 25
 0 10 l 25
 0 12 l 29
EndSplineSet
Validated: 1
EndChar

StartChar: SF430000
Encoding: 9552 9552 632
Width: 16
HStem: 8 2<0 16> 12 2<0 16>
LayerCount: 2
Fore
SplineSet
0 10 m 1
 16 10 l 1
 16 8 l 1
 0 8 l 1
 0 10 l 1
0 14 m 29
 16 14 l 29
 16 12 l 25
 0 12 l 25
 0 14 l 29
EndSplineSet
Validated: 1
EndChar

StartChar: SF240000
Encoding: 9553 9553 633
Width: 16
VStem: 4 2<-6 26> 8 2<-6 26>
LayerCount: 2
Fore
SplineSet
8 26 m 25
 10 26 l 25
 10 -6 l 25
 8 -6 l 25
 8 26 l 25
4 26 m 25
 6 26 l 1
 6 -6 l 29
 4 -6 l 1
 4 26 l 25
EndSplineSet
Validated: 1
EndChar

StartChar: SF510000
Encoding: 9554 9554 634
Width: 16
HStem: 8 2<8 16> 12 2<8 16>
VStem: 6 2<-6 8 10 12>
LayerCount: 2
Fore
SplineSet
6 14 m 29
 16 14 l 25
 16 12 l 25
 8 12 l 25
 8 10 l 25
 16 10 l 25
 16 8 l 25
 8 8 l 25
 8 -6 l 25
 6 -6 l 25
 6 14 l 29
EndSplineSet
Validated: 1
EndChar

StartChar: SF520000
Encoding: 9555 9555 635
Width: 16
HStem: 10 2<6 8 10 16>
VStem: 4 2<-6 10> 8 2<-6 10>
LayerCount: 2
Fore
SplineSet
4 12 m 29
 16 12 l 25
 16 10 l 25
 10 10 l 25
 10 -6 l 25
 8 -6 l 25
 8 10 l 25
 6 10 l 25
 6 -6 l 25
 4 -6 l 25
 4 12 l 29
EndSplineSet
Validated: 1
EndChar

StartChar: SF390000
Encoding: 9556 9556 636
Width: 16
HStem: 8 2<10 16> 12 2<6 16>
VStem: 4 2<-6 12> 8 2<-6 8>
LayerCount: 2
Fore
SplineSet
8 -6 m 25
 8 10 l 25
 16 10 l 25
 16 8 l 5
 10 8 l 25
 10 -6 l 1
 8 -6 l 25
4 -6 m 25
 4 14 l 25
 16 14 l 25
 16 12 l 25
 6 12 l 25
 6 -6 l 25
 4 -6 l 25
EndSplineSet
Validated: 1
EndChar

StartChar: SF220000
Encoding: 9557 9557 637
Width: 16
HStem: 8 2<0 6> 12 2<0 6>
VStem: 6 2<-6 8 10 12>
LayerCount: 2
Fore
SplineSet
0 14 m 25
 8 14 l 25
 8 -6 l 25
 6 -6 l 1
 6 8 l 29
 0 8 l 5
 0 10 l 5
 6 10 l 5
 6 12 l 1
 0 12 l 1
 0 14 l 25
EndSplineSet
Validated: 1
EndChar

StartChar: SF210000
Encoding: 9558 9558 638
Width: 16
HStem: 10 2<0 4 6 8>
VStem: 4 2<-6 10> 8 2<-6 10>
LayerCount: 2
Fore
SplineSet
0 12 m 25
 10 12 l 25
 10 -6 l 25
 8 -6 l 25
 8 10 l 25
 6 10 l 1
 6 -6 l 25
 4 -6 l 5
 4 10 l 25
 0 10 l 25
 0 12 l 25
EndSplineSet
Validated: 1
EndChar

StartChar: SF250000
Encoding: 9559 9559 639
Width: 16
HStem: 8 2<0 4> 12 2<0 8>
VStem: 4 2<-6 8> 8 2<-6 12>
LayerCount: 2
Fore
SplineSet
0 10 m 29
 6 10 l 25
 6 -6 l 25
 4 -6 l 25
 4 8 l 25
 0 8 l 25
 0 10 l 29
0 14 m 25
 10 14 l 25
 10 -6 l 25
 8 -6 l 25
 8 12 l 25
 0 12 l 25
 0 14 l 25
EndSplineSet
Validated: 1
EndChar

StartChar: SF500000
Encoding: 9560 9560 640
Width: 16
HStem: 8 2<8 16> 12 2<8 16>
VStem: 6 2<10 12 14 26>
LayerCount: 2
Fore
SplineSet
6 26 m 29
 8 26 l 25
 8 14 l 25
 16 14 l 25
 16 12 l 25
 8 12 l 25
 8 10 l 25
 16 10 l 25
 16 8 l 25
 6 8 l 25
 6 26 l 29
EndSplineSet
Validated: 1
EndChar

StartChar: SF490000
Encoding: 9561 9561 641
Width: 16
HStem: 10 2<6 8 10 16>
VStem: 4 2<12 26> 8 2<12 26>
LayerCount: 2
Fore
SplineSet
4 26 m 29
 6 26 l 25
 6 12 l 25
 8 12 l 25
 8 26 l 25
 10 26 l 25
 10 12 l 25
 16 12 l 25
 16 10 l 25
 4 10 l 25
 4 26 l 29
EndSplineSet
Validated: 1
EndChar

StartChar: SF380000
Encoding: 9562 9562 642
Width: 16
HStem: 8 2<6 16> 12 2<10 16>
VStem: 4 2<10 26> 8 2<14 26>
LayerCount: 2
Fore
SplineSet
8 26 m 25
 10 26 l 25
 10 14 l 25
 16 14 l 25
 16 12 l 25
 8 12 l 25
 8 26 l 25
4 26 m 25
 6 26 l 25
 6 10 l 29
 16 10 l 29
 16 8 l 29
 4 8 l 29
 4 26 l 25
EndSplineSet
Validated: 1
EndChar

StartChar: SF280000
Encoding: 9563 9563 643
Width: 16
HStem: 8 2<0 6> 12 2<0 6>
VStem: 6 2<10 12 14 26>
LayerCount: 2
Fore
SplineSet
0 14 m 25
 6 14 l 25
 6 26 l 25
 8 26 l 25
 8 8 l 29
 0 8 l 29
 0 10 l 29
 6 10 l 29
 6 12 l 25
 0 12 l 25
 0 14 l 25
EndSplineSet
Validated: 1
EndChar

StartChar: SF270000
Encoding: 9564 9564 644
Width: 16
HStem: 10 2<0 4 6 8>
VStem: 4 2<12 26> 8 2<12 26>
LayerCount: 2
Fore
SplineSet
0 12 m 29
 4 12 l 25
 4 26 l 25
 6 26 l 25
 6 12 l 25
 8 12 l 25
 8 26 l 25
 10 26 l 25
 10 10 l 25
 0 10 l 25
 0 12 l 29
EndSplineSet
Validated: 1
EndChar

StartChar: SF260000
Encoding: 9565 9565 645
Width: 16
HStem: 8 2<0 8> 12 2<0 4>
VStem: 4 2<14 26> 8 2<10 26>
LayerCount: 2
Fore
SplineSet
0 10 m 29
 8 10 l 25
 8 26 l 25
 10 26 l 25
 10 8 l 25
 0 8 l 25
 0 10 l 29
0 14 m 25
 4 14 l 25
 4 26 l 25
 6 26 l 25
 6 12 l 25
 0 12 l 25
 0 14 l 25
EndSplineSet
Validated: 1
EndChar

StartChar: SF360000
Encoding: 9566 9566 646
Width: 16
HStem: 8 2<8 16> 12 2<8 16>
VStem: 6 2<-6 8 10 12 14 26>
LayerCount: 2
Fore
SplineSet
6 26 m 29
 8 26 l 25
 8 14 l 25
 16 14 l 25
 16 12 l 25
 8 12 l 25
 8 10 l 25
 16 10 l 25
 16 8 l 25
 8 8 l 25
 8 -6 l 25
 6 -6 l 25
 6 26 l 29
EndSplineSet
Validated: 1
EndChar

StartChar: SF370000
Encoding: 9567 9567 647
Width: 16
HStem: 10 2<10 16>
VStem: 4 2<-6 26> 8 2<-6 10 12 26>
LayerCount: 2
Fore
SplineSet
8 26 m 25
 10 26 l 25
 10 12 l 29
 16 12 l 29
 16 10 l 29
 10 10 l 29
 10 -6 l 25
 8 -6 l 25
 8 26 l 25
4 26 m 25
 6 26 l 25
 6 -6 l 25
 4 -6 l 25
 4 26 l 25
EndSplineSet
Validated: 1
EndChar

StartChar: SF420000
Encoding: 9568 9568 648
Width: 16
HStem: 8 2<10 16> 12 2<10 16>
VStem: 4 2<-6 26> 8 2<-6 8 14 26>
LayerCount: 2
Fore
SplineSet
8 10 m 1
 16 10 l 25
 16 8 l 25
 10 8 l 25
 10 -6 l 1
 8 -6 l 25
 8 10 l 1
8 26 m 29
 10 26 l 29
 10 14 l 25
 16 14 l 25
 16 12 l 25
 8 12 l 25
 8 26 l 29
4 26 m 29
 6 26 l 29
 6 -6 l 25
 4 -6 l 25
 4 26 l 29
EndSplineSet
Validated: 1
EndChar

StartChar: SF190000
Encoding: 9569 9569 649
Width: 16
HStem: 8 2<0 6> 12 2<0 6>
VStem: 6 2<-6 8 10 12 14 26>
LayerCount: 2
Fore
SplineSet
0 14 m 25
 6 14 l 25
 6 26 l 25
 8 26 l 25
 8 -6 l 1
 6 -6 l 25
 6 8 l 5
 0 8 l 29
 0 10 l 29
 6 10 l 29
 6 12 l 25
 0 12 l 25
 0 14 l 25
EndSplineSet
Validated: 1
EndChar

StartChar: SF200000
Encoding: 9570 9570 650
Width: 16
HStem: 10 2<0 4>
VStem: 4 2<-6 10 12 26>
LayerCount: 2
Fore
SplineSet
8 26 m 25
 10 26 l 25
 10 -6 l 25
 8 -6 l 25
 8 26 l 25
0 12 m 25
 4 12 l 25
 4 26 l 25
 6 26 l 25
 6 -6 l 25
 4 -6 l 29
 4 10 l 25
 0 10 l 25
 0 12 l 25
EndSplineSet
Validated: 1
EndChar

StartChar: SF230000
Encoding: 9571 9571 651
Width: 16
HStem: 8 2<0 4> 12 2<0 4>
VStem: 0 6<8 10 12 14> 4 2<-6 8 14 26>
LayerCount: 2
Fore
SplineSet
8 26 m 29xc0
 10 26 l 25
 10 -6 l 25
 8 -6 l 25
 8 26 l 29xc0
0 10 m 25xe0
 6 10 l 25xe0
 6 -6 l 25
 4 -6 l 25
 4 8 l 25xd0
 0 8 l 25
 0 10 l 25xe0
0 14 m 25
 4 14 l 25
 4 26 l 25
 6 26 l 25xd0
 6 12 l 25
 0 12 l 25
 0 14 l 25
EndSplineSet
Validated: 1
EndChar

StartChar: SF470000
Encoding: 9572 9572 652
Width: 16
HStem: 8 2<0 6 8 16>
VStem: 6 2<-6 8>
LayerCount: 2
Fore
SplineSet
0 10 m 25
 16 10 l 25
 16 8 l 25
 8 8 l 25
 8 -6 l 25
 6 -6 l 1
 6 8 l 29
 0 8 l 1
 0 10 l 25
0 14 m 25
 16 14 l 25
 16 12 l 25
 0 12 l 25
 0 14 l 25
EndSplineSet
Validated: 1
EndChar

StartChar: SF480000
Encoding: 9573 9573 653
Width: 16
HStem: 10 2<0 4 6 8 10 16>
VStem: 4 2<-6 10> 8 2<-6 10>
LayerCount: 2
Fore
SplineSet
0 12 m 29
 16 12 l 29
 16 10 l 29
 10 10 l 29
 10 -6 l 25
 8 -6 l 25
 8 10 l 29
 6 10 l 29
 6 -6 l 25
 4 -6 l 25
 4 10 l 29
 0 10 l 29
 0 12 l 29
EndSplineSet
Validated: 1
EndChar

StartChar: SF410000
Encoding: 9574 9574 654
Width: 16
HStem: 8 2<0 4 10 16>
VStem: 4 2<-6 8> 8 2<-6 8>
LayerCount: 2
Fore
SplineSet
8 10 m 29
 16 10 l 29
 16 8 l 29
 10 8 l 29
 10 -6 l 25
 8 -6 l 25
 8 10 l 29
0 10 m 29
 6 10 l 29
 6 -6 l 25
 4 -6 l 25
 4 8 l 29
 0 8 l 29
 0 10 l 29
0 14 m 1
 16 14 l 25
 16 12 l 1
 0 12 l 25
 0 14 l 1
EndSplineSet
Validated: 1
EndChar

StartChar: SF450000
Encoding: 9575 9575 655
Width: 16
HStem: 8 2<0 16> 12 2<0 6 8 16>
VStem: 6 2<14 26>
LayerCount: 2
Fore
SplineSet
0 10 m 29
 16 10 l 25
 16 8 l 25
 0 8 l 25
 0 10 l 29
0 14 m 25
 6 14 l 25
 6 26 l 25
 8 26 l 25
 8 14 l 25
 16 14 l 25
 16 12 l 25
 0 12 l 25
 0 14 l 25
EndSplineSet
Validated: 1
EndChar

StartChar: SF460000
Encoding: 9576 9576 656
Width: 16
HStem: 10 2<0 4 6 8 10 16>
VStem: 4 2<12 26> 8 2<12 26>
LayerCount: 2
Fore
SplineSet
0 12 m 29
 4 12 l 25
 4 26 l 25
 6 26 l 25
 6 12 l 25
 8 12 l 25
 8 26 l 25
 10 26 l 25
 10 12 l 25
 16 12 l 25
 16 10 l 25
 0 10 l 25
 0 12 l 29
EndSplineSet
Validated: 1
EndChar

StartChar: SF400000
Encoding: 9577 9577 657
Width: 16
HStem: 8 2<0 16> 12 2<0 4 10 16>
VStem: 4 2<14 26> 8 2<14 26>
LayerCount: 2
Fore
SplineSet
0 10 m 25
 16 10 l 25
 16 8 l 25
 0 8 l 25
 0 10 l 25
8 26 m 29
 10 26 l 29
 10 14 l 29
 16 14 l 25
 16 12 l 25
 8 12 l 29
 8 26 l 29
0 14 m 25
 4 14 l 29
 4 26 l 29
 6 26 l 29
 6 12 l 29
 0 12 l 25
 0 14 l 25
EndSplineSet
Validated: 1
EndChar

StartChar: SF540000
Encoding: 9578 9578 658
Width: 16
HStem: 8 2<0 6 8 16> 12 2<0 6 8 16>
VStem: 6 2<-6 8 10 12 14 26>
LayerCount: 2
Fore
SplineSet
6 26 m 29
 8 26 l 25
 8 14 l 25
 16 14 l 25
 16 12 l 25
 8 12 l 25
 8 10 l 25
 16 10 l 25
 16 8 l 25
 8 8 l 25
 8 -6 l 25
 6 -6 l 25
 6 8 l 25
 0 8 l 25
 0 10 l 25
 6 10 l 25
 6 12 l 25
 0 12 l 25
 0 14 l 25
 6 14 l 25
 6 26 l 29
EndSplineSet
Validated: 1
EndChar

StartChar: SF530000
Encoding: 9579 9579 659
Width: 16
HStem: 10 2<0 4 6 8 10 16>
VStem: 4 2<-6 10 12 26> 8 2<-6 10 12 26>
LayerCount: 2
Fore
SplineSet
0 12 m 29
 4 12 l 25
 4 26 l 25
 6 26 l 25
 6 12 l 25
 8 12 l 25
 8 26 l 25
 10 26 l 25
 10 12 l 25
 16 12 l 25
 16 10 l 25
 10 10 l 25
 10 -6 l 25
 8 -6 l 25
 8 10 l 25
 6 10 l 25
 6 -6 l 25
 4 -6 l 25
 4 10 l 25
 0 10 l 25
 0 12 l 29
EndSplineSet
Validated: 1
EndChar

StartChar: SF440000
Encoding: 9580 9580 660
Width: 16
HStem: 8 2<0 4 10 16> 12 2<0 4 10 16>
VStem: 0 6<8 10 12 14> 4 2<-6 8 14 26> 8 2<-6 8 14 26>
LayerCount: 2
Fore
SplineSet
8 10 m 29xc8
 16 10 l 25
 16 8 l 25
 10 8 l 25
 10 -6 l 25
 8 -6 l 25
 8 10 l 29xc8
0 10 m 25xe8
 6 10 l 25xe8
 6 -6 l 25
 4 -6 l 1
 4 8 l 25xd8
 0 8 l 1
 0 10 l 25xe8
8 26 m 25
 10 26 l 25
 10 14 l 25
 16 14 l 25
 16 12 l 25
 8 12 l 25
 8 26 l 25
0 14 m 25
 4 14 l 25
 4 26 l 25
 6 26 l 25xd8
 6 12 l 25
 0 12 l 25
 0 14 l 25
EndSplineSet
Validated: 1
EndChar

StartChar: upblock
Encoding: 9600 9600 661
Width: 16
HStem: 10 16<0 16>
VStem: 0 16<10 26>
LayerCount: 2
Fore
SplineSet
0 26 m 25
 16 26 l 25
 16 10 l 25
 0 10 l 25
 0 26 l 25
EndSplineSet
Validated: 1
EndChar

StartChar: dnblock
Encoding: 9604 9604 662
Width: 16
Flags: W
HStem: -6 16<0 16>
VStem: 0 16<-6 10>
LayerCount: 2
Fore
SplineSet
0 10 m 29
 16 10 l 29
 16 -6 l 29
 0 -6 l 29
 0 10 l 29
EndSplineSet
Validated: 1
EndChar

StartChar: block
Encoding: 9608 9608 663
Width: 16
VStem: 0 16<-6 26>
LayerCount: 2
Fore
SplineSet
0 26 m 29
 16 26 l 25
 16 -6 l 25
 0 -6 l 25
 0 26 l 29
EndSplineSet
Validated: 1
EndChar

StartChar: lfblock
Encoding: 9612 9612 664
Width: 16
VStem: 0 8<-6 26>
LayerCount: 2
Fore
SplineSet
0 26 m 25
 8 26 l 29
 8 -6 l 25
 0 -6 l 25
 0 26 l 25
EndSplineSet
Validated: 1
EndChar

StartChar: rtblock
Encoding: 9616 9616 665
Width: 16
VStem: 8 8<-6 26>
LayerCount: 2
Fore
SplineSet
8 26 m 25
 16 26 l 25
 16 -6 l 25
 8 -6 l 29
 8 26 l 25
EndSplineSet
Validated: 1
EndChar

StartChar: ltshade
Encoding: 9617 9617 666
Width: 16
HStem: -4 2<0 2 4 6 8 10 12 14> 0 2<0 2 4 6 8 10 12 14> 4 2<0 2 4 6 8 10 12 14> 8 2<0 2 4 6 8 10 12 14> 12 2<0 2 4 6 8 10 12 14> 16 2<0 2 4 6 8 10 12 14> 20 2<0 2 4 6 8 10 12 14> 24 2<0 2 4 6 8 10 12 14>
VStem: 0 2<-4 -2 0 2 4 6 8 10 12 14 16 18 20 22 24 26> 4 2<-4 -2 0 2 4 6 8 10 12 14 16 18 20 22 24 26> 8 2<-4 -2 0 2 4 6 8 10 12 14 16 18 20 22 24 26> 12 2<-4 -2 0 2 4 6 8 10 12 14 16 18 20 22 24 26>
LayerCount: 2
Fore
SplineSet
12 -2 m 29
 14 -2 l 29
 14 -4 l 29
 12 -4 l 29
 12 -2 l 29
8 -2 m 29
 10 -2 l 29
 10 -4 l 29
 8 -4 l 29
 8 -2 l 29
4 -2 m 29
 6 -2 l 29
 6 -4 l 29
 4 -4 l 29
 4 -2 l 29
0 -2 m 29
 2 -2 l 29
 2 -4 l 29
 0 -4 l 29
 0 -2 l 29
12 2 m 29
 14 2 l 29
 14 0 l 29
 12 0 l 29
 12 2 l 29
8 2 m 29
 10 2 l 29
 10 0 l 29
 8 0 l 29
 8 2 l 29
4 2 m 29
 6 2 l 29
 6 0 l 29
 4 0 l 29
 4 2 l 29
0 2 m 29
 2 2 l 29
 2 0 l 29
 0 0 l 29
 0 2 l 29
12 6 m 29
 14 6 l 29
 14 4 l 29
 12 4 l 29
 12 6 l 29
8 6 m 29
 10 6 l 29
 10 4 l 29
 8 4 l 29
 8 6 l 29
4 6 m 29
 6 6 l 29
 6 4 l 29
 4 4 l 29
 4 6 l 29
0 6 m 29
 2 6 l 29
 2 4 l 29
 0 4 l 29
 0 6 l 29
12 10 m 29
 14 10 l 29
 14 8 l 29
 12 8 l 29
 12 10 l 29
8 10 m 29
 10 10 l 29
 10 8 l 29
 8 8 l 29
 8 10 l 29
4 10 m 29
 6 10 l 29
 6 8 l 29
 4 8 l 29
 4 10 l 29
0 10 m 29
 2 10 l 29
 2 8 l 29
 0 8 l 29
 0 10 l 29
12 14 m 29
 14 14 l 29
 14 12 l 29
 12 12 l 29
 12 14 l 29
8 14 m 29
 10 14 l 29
 10 12 l 29
 8 12 l 29
 8 14 l 29
4 14 m 29
 6 14 l 29
 6 12 l 29
 4 12 l 29
 4 14 l 29
0 14 m 29
 2 14 l 29
 2 12 l 29
 0 12 l 29
 0 14 l 29
12 18 m 29
 14 18 l 29
 14 16 l 29
 12 16 l 29
 12 18 l 29
8 18 m 29
 10 18 l 29
 10 16 l 29
 8 16 l 29
 8 18 l 29
4 18 m 29
 6 18 l 29
 6 16 l 29
 4 16 l 29
 4 18 l 29
0 18 m 29
 2 18 l 29
 2 16 l 29
 0 16 l 29
 0 18 l 29
12 22 m 29
 14 22 l 29
 14 20 l 29
 12 20 l 29
 12 22 l 29
8 22 m 29
 10 22 l 29
 10 20 l 29
 8 20 l 29
 8 22 l 29
4 22 m 29
 6 22 l 29
 6 20 l 29
 4 20 l 29
 4 22 l 29
0 22 m 29
 2 22 l 29
 2 20 l 29
 0 20 l 29
 0 22 l 29
12 26 m 29
 14 26 l 29
 14 24 l 29
 12 24 l 29
 12 26 l 29
8 26 m 29
 10 26 l 29
 10 24 l 29
 8 24 l 29
 8 26 l 29
4 26 m 29
 6 26 l 29
 6 24 l 29
 4 24 l 29
 4 26 l 29
0 26 m 29
 2 26 l 29
 2 24 l 29
 0 24 l 29
 0 26 l 29
EndSplineSet
Validated: 1
EndChar

StartChar: shade
Encoding: 9618 9618 667
Width: 16
Flags: W
HStem: -6 2<2 4 6 8 10 12 14 16> -4 2<0 2 4 6 8 10 12 14> -2 2<2 4 6 8 10 12 14 16> 0 2<0 2 4 6 8 10 12 14> 2 2<2 4 6 8 10 12 14 16> 4 2<0 2 4 6 8 10 12 14> 6 2<2 4 6 8 10 12 14 16> 8 2<0 2 4 6 8 10 12 14> 10 2<2 4 6 8 10 12 14 16> 12 2<0 2 4 6 8 10 12 14> 14 2<2 4 6 8 10 12 14 16> 16 2<0 2 4 6 8 10 12 14> 18 2<2 4 6 8 10 12 14 16> 20 2<0 2 4 6 8 10 12 14> 22 2<2 4 6 8 10 12 14 16> 24 2<0 2 4 6 8 10 12 14>
VStem: 0 2<-4 -2 0 2 4 6 8 10 12 14 16 18 20 22 24 26> 2 2<-6 -4 -2 0 2 4 6 8 10 12 14 16 18 20 22 24> 4 2<-4 -2 0 2 4 6 8 10 12 14 16 18 20 22 24 26> 6 2<-6 -4 -2 0 2 4 6 8 10 12 14 16 18 20 22 24> 8 2<-4 -2 0 2 4 6 8 10 12 14 16 18 20 22 24 26> 10 2<-6 -4 -2 0 2 4 6 8 10 12 14 16 18 20 22 24> 12 2<-4 -2 0 2 4 6 8 10 12 14 16 18 20 22 24 26> 14 2<-6 -4 -2 0 2 4 6 8 10 12 14 16 18 20 22 24>
LayerCount: 2
Fore
SplineSet
14 -4 m 29x800002
 16 -4 l 29
 16 -6 l 25
 14 -6 l 25x800001
 14 -4 l 29x800002
10 -4 m 25x800008
 12 -4 l 25
 12 -6 l 25
 10 -6 l 25x800004
 10 -4 l 25x800008
6 -4 m 25x800020
 8 -4 l 25
 8 -6 l 25
 6 -6 l 25x800010
 6 -4 l 25x800020
2 -4 m 25x800080
 4 -4 l 25
 4 -6 l 25
 2 -6 l 25x800040
 2 -4 l 25x800080
14 0 m 25x200002
 16 0 l 25
 16 -2 l 25x200001
 14 -2 l 25x400002
 14 0 l 25x200002
10 0 m 25x200008
 12 0 l 25x200004
 12 -2 l 25x400004
 10 -2 l 25x400008
 10 0 l 25x200008
6 0 m 25x200020
 8 0 l 25x200010
 8 -2 l 25x400010
 6 -2 l 25x400020
 6 0 l 25x200020
2 0 m 25x200080
 4 0 l 25x200040
 4 -2 l 25x400040
 2 -2 l 25x400080
 2 0 l 25x200080
14 4 m 25x080002
 16 4 l 25
 16 2 l 25x080001
 14 2 l 25x100002
 14 4 l 25x080002
10 4 m 25x080008
 12 4 l 25x080004
 12 2 l 25x100004
 10 2 l 25x100008
 10 4 l 25x080008
6 4 m 25x080020
 8 4 l 25x080010
 8 2 l 25x100010
 6 2 l 25x100020
 6 4 l 25x080020
2 4 m 25x080080
 4 4 l 25x080040
 4 2 l 25x100040
 2 2 l 25x100080
 2 4 l 25x080080
14 8 m 25x020002
 16 8 l 25
 16 6 l 25x020001
 14 6 l 25x040002
 14 8 l 25x020002
10 8 m 25x020008
 12 8 l 25x020004
 12 6 l 25x040004
 10 6 l 25x040008
 10 8 l 25x020008
6 8 m 25x020020
 8 8 l 25x020010
 8 6 l 25x040010
 6 6 l 25x040020
 6 8 l 25x020020
2 8 m 25x020080
 4 8 l 25x020040
 4 6 l 25x040040
 2 6 l 25x040080
 2 8 l 25x020080
14 12 m 25x008002
 16 12 l 25
 16 10 l 25x008001
 14 10 l 25x010002
 14 12 l 25x008002
10 12 m 25x008008
 12 12 l 25x008004
 12 10 l 25x010004
 10 10 l 25x010008
 10 12 l 25x008008
6 12 m 25x008020
 8 12 l 25x008010
 8 10 l 25x010010
 6 10 l 25x010020
 6 12 l 25x008020
2 12 m 25x008080
 4 12 l 25x008040
 4 10 l 25x010040
 2 10 l 25x010080
 2 12 l 25x008080
14 16 m 25x002002
 16 16 l 25
 16 14 l 25x002001
 14 14 l 25x004002
 14 16 l 25x002002
10 16 m 25x002008
 12 16 l 25x002004
 12 14 l 25x004004
 10 14 l 25x004008
 10 16 l 25x002008
6 16 m 25x002020
 8 16 l 25x002010
 8 14 l 25x004010
 6 14 l 25x004020
 6 16 l 25x002020
2 16 m 25x002080
 4 16 l 25x002040
 4 14 l 25x004040
 2 14 l 25x004080
 2 16 l 25x002080
14 20 m 25x000802
 16 20 l 25
 16 18 l 25x000801
 14 18 l 25x001002
 14 20 l 25x000802
10 20 m 25x000808
 12 20 l 25x000804
 12 18 l 25x001004
 10 18 l 25x001008
 10 20 l 25x000808
6 20 m 25x000820
 8 20 l 25x000810
 8 18 l 25x001010
 6 18 l 25x001020
 6 20 l 25x000820
2 20 m 25x000880
 4 20 l 25x000840
 4 18 l 25x001040
 2 18 l 25x001080
 2 20 l 25x000880
14 24 m 25x000202
 16 24 l 25
 16 22 l 25x000201
 14 22 l 25x000402
 14 24 l 25x000202
10 24 m 25x000208
 12 24 l 25x000204
 12 22 l 25x000404
 10 22 l 25x000408
 10 24 l 25x000208
6 24 m 25x000220
 8 24 l 25x000210
 8 22 l 25x000410
 6 22 l 25x000420
 6 24 l 25x000220
2 24 m 25x000280
 4 24 l 25x000240
 4 22 l 25x000440
 2 22 l 25x000480
 2 24 l 25x000280
12 -2 m 25x400004
 14 -2 l 29x400002
 14 -4 l 29x800002
 12 -4 l 25x800004
 12 -2 l 25x400004
8 -2 m 25x400010
 10 -2 l 25x400008
 10 -4 l 25x800008
 8 -4 l 25x800010
 8 -2 l 25x400010
4 -2 m 25x400040
 6 -2 l 25x400020
 6 -4 l 25x800020
 4 -4 l 25x800040
 4 -2 l 25x400040
0 -2 m 25x400080
 2 -2 l 25x400080
 2 -4 l 25x800080
 0 -4 l 25
 0 -2 l 25x400080
12 2 m 25x100004
 14 2 l 25x100002
 14 0 l 25x200002
 12 0 l 25x200004
 12 2 l 25x100004
8 2 m 25x100010
 10 2 l 25x100008
 10 0 l 25x200008
 8 0 l 25x200010
 8 2 l 25x100010
4 2 m 25x100040
 6 2 l 25x100020
 6 0 l 25x200020
 4 0 l 25x200040
 4 2 l 25x100040
0 2 m 25x100080
 2 2 l 25x100080
 2 0 l 25x200080
 0 0 l 25
 0 2 l 25x100080
12 6 m 25x040004
 14 6 l 25x040002
 14 4 l 25x080002
 12 4 l 25x080004
 12 6 l 25x040004
8 6 m 25x040010
 10 6 l 25x040008
 10 4 l 25x080008
 8 4 l 25x080010
 8 6 l 25x040010
4 6 m 25x040040
 6 6 l 25x040020
 6 4 l 25x080020
 4 4 l 25x080040
 4 6 l 25x040040
0 6 m 25x040080
 2 6 l 25x040080
 2 4 l 25x080080
 0 4 l 25
 0 6 l 25x040080
12 10 m 25x010004
 14 10 l 25x010002
 14 8 l 25x020002
 12 8 l 25x020004
 12 10 l 25x010004
8 10 m 25x010010
 10 10 l 25x010008
 10 8 l 25x020008
 8 8 l 25x020010
 8 10 l 25x010010
4 10 m 25x010040
 6 10 l 25x010020
 6 8 l 25x020020
 4 8 l 25x020040
 4 10 l 25x010040
0 10 m 25x010080
 2 10 l 25x010080
 2 8 l 25x020080
 0 8 l 25
 0 10 l 25x010080
12 14 m 25x004004
 14 14 l 25x004002
 14 12 l 25x008002
 12 12 l 25x008004
 12 14 l 25x004004
8 14 m 25x004010
 10 14 l 25x004008
 10 12 l 25x008008
 8 12 l 25x008010
 8 14 l 25x004010
4 14 m 25x004040
 6 14 l 25x004020
 6 12 l 25x008020
 4 12 l 25x008040
 4 14 l 25x004040
0 14 m 25x004080
 2 14 l 25x004080
 2 12 l 25x008080
 0 12 l 25
 0 14 l 25x004080
12 18 m 25x001004
 14 18 l 25x001002
 14 16 l 25x002002
 12 16 l 25x002004
 12 18 l 25x001004
8 18 m 25x001010
 10 18 l 25x001008
 10 16 l 25x002008
 8 16 l 25x002010
 8 18 l 25x001010
4 18 m 25x001040
 6 18 l 25x001020
 6 16 l 25x002020
 4 16 l 25x002040
 4 18 l 25x001040
0 18 m 25x001080
 2 18 l 25x001080
 2 16 l 25x002080
 0 16 l 25
 0 18 l 25x001080
12 22 m 25x000404
 14 22 l 25x000402
 14 20 l 25x000802
 12 20 l 25x000804
 12 22 l 25x000404
8 22 m 25x000410
 10 22 l 25x000408
 10 20 l 25x000808
 8 20 l 25x000810
 8 22 l 25x000410
4 22 m 25x000440
 6 22 l 25x000420
 6 20 l 25x000820
 4 20 l 25x000840
 4 22 l 25x000440
0 22 m 25x000480
 2 22 l 25x000480
 2 20 l 25x000880
 0 20 l 25
 0 22 l 25x000480
12 26 m 25x000102
 14 26 l 25x000102
 14 24 l 25x000202
 12 24 l 25x000204
 12 26 l 25x000102
8 26 m 25x000108
 10 26 l 25x000108
 10 24 l 25x000208
 8 24 l 25x000210
 8 26 l 25x000108
4 26 m 25x000120
 6 26 l 25x000120
 6 24 l 25x000220
 4 24 l 25x000240
 4 26 l 25x000120
0 26 m 25x000180
 2 26 l 25x000180
 2 24 l 25x000280
 0 24 l 25
 0 26 l 25x000180
EndSplineSet
Validated: 5
EndChar

StartChar: dkshade
Encoding: 9619 9619 668
Width: 16
Flags: W
HStem: -4 2<2 4 6 8 10 12 14 16> 0 2<2 4 6 8 10 12 14 16> 4 2<2 4 6 8 10 12 14 16> 8 2<2 4 6 8 10 12 14 16> 12 2<2 4 6 8 10 12 14 16> 16 2<2 4 6 8 10 12 14 16> 20 2<2 4 6 8 10 12 14 16> 24 2<2 4 6 8 10 12 14 16>
VStem: 0 16<-4 -2 0 2 4 6 8 10 12 14 16 18 20 22 24 26> 0 2<-6 -4 -2 0 2 4 6 8 10 12 14 16 18 20 22 24> 4 2<-6 -4 -2 0 2 4 6 8 10 12 14 16 18 20 22 24> 8 2<-6 -4 -2 0 2 4 6 8 10 12 14 16 18 20 22 24> 12 2<-6 -4 -2 0 2 4 6 8 10 12 14 16 18 20 22 24>
LayerCount: 2
Fore
SplineSet
0 -6 m 1xff78
 0 26 l 1
 16 26 l 1
 16 24 l 1xff80
 14 24 l 1
 14 22 l 1xff08
 16 22 l 1
 16 20 l 1xff80
 14 20 l 1
 14 18 l 1xff08
 16 18 l 1
 16 16 l 1xff80
 14 16 l 1
 14 14 l 1xff08
 16 14 l 1
 16 12 l 1xff80
 14 12 l 1
 14 10 l 1xff08
 16 10 l 1
 16 8 l 1xff80
 14 8 l 1
 14 6 l 1xff08
 16 6 l 1
 16 4 l 1xff80
 14 4 l 1
 14 2 l 1xff08
 16 2 l 1
 16 0 l 1xff80
 14 0 l 1
 14 -2 l 1xff08
 16 -2 l 1
 16 -4 l 1xff80
 14 -4 l 1
 14 -6 l 1
 12 -6 l 1
 12 -4 l 1
 10 -4 l 1
 10 -6 l 1
 8 -6 l 1
 8 -4 l 1
 6 -4 l 1
 6 -6 l 1
 4 -6 l 1
 4 -4 l 1
 2 -4 l 1
 2 -6 l 1
 0 -6 l 1xff78
2 24 m 1xff60
 2 22 l 1
 4 22 l 1
 4 24 l 1
 2 24 l 1xff60
6 24 m 1
 6 22 l 1
 8 22 l 1
 8 24 l 1xff30
 6 24 l 1
10 24 m 1
 10 22 l 1
 12 22 l 1
 12 24 l 1xff18
 10 24 l 1
2 20 m 1xff60
 2 18 l 1
 4 18 l 1
 4 20 l 1
 2 20 l 1xff60
6 20 m 1
 6 18 l 1
 8 18 l 1
 8 20 l 1xff30
 6 20 l 1
10 20 m 1
 10 18 l 1
 12 18 l 1
 12 20 l 1xff18
 10 20 l 1
2 16 m 1xff60
 2 14 l 1
 4 14 l 1
 4 16 l 1
 2 16 l 1xff60
6 16 m 1
 6 14 l 1
 8 14 l 1
 8 16 l 1xff30
 6 16 l 1
10 16 m 1
 10 14 l 1
 12 14 l 1
 12 16 l 1xff18
 10 16 l 1
2 12 m 1xff60
 2 10 l 1
 4 10 l 1
 4 12 l 1
 2 12 l 1xff60
6 12 m 1
 6 10 l 1
 8 10 l 1
 8 12 l 1xff30
 6 12 l 1
10 12 m 1
 10 10 l 1
 12 10 l 1
 12 12 l 1xff18
 10 12 l 1
2 8 m 1xff60
 2 6 l 1
 4 6 l 1
 4 8 l 1
 2 8 l 1xff60
6 8 m 1
 6 6 l 1
 8 6 l 1
 8 8 l 1xff30
 6 8 l 1
10 8 m 1
 10 6 l 1
 12 6 l 1
 12 8 l 1xff18
 10 8 l 1
2 4 m 1xff60
 2 2 l 1
 4 2 l 1
 4 4 l 1
 2 4 l 1xff60
6 4 m 1
 6 2 l 1
 8 2 l 1
 8 4 l 1xff30
 6 4 l 1
10 4 m 1
 10 2 l 1
 12 2 l 1
 12 4 l 1xff18
 10 4 l 1
2 0 m 1xff60
 2 -2 l 1
 4 -2 l 1
 4 0 l 1
 2 0 l 1xff60
6 0 m 1
 6 -2 l 1
 8 -2 l 1
 8 0 l 1xff30
 6 0 l 1
10 0 m 1
 10 -2 l 1
 12 -2 l 1
 12 0 l 1xff18
 10 0 l 1
EndSplineSet
Validated: 1
EndChar

StartChar: filledbox
Encoding: 9632 9632 669
Width: 16
HStem: 4 10<2 12>
VStem: 2 10<4 14>
LayerCount: 2
Fore
SplineSet
2 14 m 1
 12 14 l 1
 12 4 l 1
 2 4 l 1
 2 14 l 1
EndSplineSet
Validated: 1
EndChar

StartChar: H22073
Encoding: 9633 9633 670
Width: 16
Flags: W
HStem: 4 2<4 10> 12 2<4 10>
VStem: 2 2<6 12> 10 2<6 12>
LayerCount: 2
Fore
SplineSet
10 12 m 1
 4 12 l 29
 4 6 l 1
 10 6 l 25
 10 12 l 1
2 14 m 1
 12 14 l 1
 12 4 l 1
 2 4 l 1
 2 14 l 1
EndSplineSet
Validated: 1
EndChar

StartChar: H18543
Encoding: 9642 9642 671
Width: 16
HStem: 6 6<4 10>
VStem: 4 6<6 12>
LayerCount: 2
Fore
SplineSet
4 12 m 5
 10 12 l 5
 10 6 l 5
 4 6 l 5
 4 12 l 5
EndSplineSet
Validated: 1
EndChar

StartChar: H18551
Encoding: 9643 9643 672
Width: 16
Flags: W
HStem: 6 2<6 8> 10 2<6 8>
VStem: 4 2<8 10> 8 2<8 10>
LayerCount: 2
Fore
SplineSet
8 10 m 29
 6 10 l 29
 6 8 l 29
 8 8 l 29
 8 10 l 29
4 12 m 5
 10 12 l 5
 10 6 l 5
 4 6 l 5
 4 12 l 5
EndSplineSet
Validated: 1
EndChar

StartChar: filledrect
Encoding: 9644 9644 673
Width: 16
HStem: 2 16<2 14>
VStem: 2 12<2 18>
LayerCount: 2
Fore
SplineSet
2 18 m 25
 14 18 l 29
 14 2 l 29
 2 2 l 25
 2 18 l 25
EndSplineSet
Validated: 1
EndChar

StartChar: triagup
Encoding: 9650 9650 674
Width: 16
LayerCount: 2
Fore
SplineSet
2 2 m 29
 8 18 l 29
 14 2 l 29
 2 2 l 29
EndSplineSet
Validated: 1
EndChar

StartChar: triagdn
Encoding: 9660 9660 675
Width: 16
Flags: W
LayerCount: 2
Fore
SplineSet
14 18 m 29
 8 2 l 29
 2 18 l 29
 14 18 l 29
EndSplineSet
Validated: 1
EndChar

StartChar: uni25B6
Encoding: 9654 9654 676
Width: 16
LayerCount: 2
Fore
SplineSet
2 18 m 29
 14 10 l 29
 2 2 l 29
 2 18 l 29
EndSplineSet
Validated: 1
EndChar

StartChar: uni25C0
Encoding: 9664 9664 677
Width: 16
Flags: W
LayerCount: 2
Fore
SplineSet
14 2 m 29
 2 10 l 29
 14 18 l 29
 14 2 l 29
EndSplineSet
Validated: 1
EndChar

StartChar: lozenge
Encoding: 9674 9674 678
Width: 16
LayerCount: 2
Fore
SplineSet
2 10 m 5
 8 16 l 5
 14 10 l 5
 8 4 l 5
 2 10 l 5
EndSplineSet
Validated: 1
EndChar

StartChar: circle
Encoding: 9675 9675 679
Width: 16
Flags: HM
LayerCount: 2
Fore
SplineSet
2 13 m 5
 5 16 l 5
 11 16 l 5
 14 13 l 5
 14 7 l 5
 11 4 l 5
 5 4 l 5
 2 7 l 5
 2 13 l 5
4 8 m 5
 6 6 l 5
 10 6 l 5
 12 8 l 5
 12 12 l 5
 10 14 l 5
 6 14 l 5
 4 12 l 5
 4 8 l 5
EndSplineSet
Validated: 1
EndChar

StartChar: H18533
Encoding: 9679 9679 680
Width: 16
Flags: W
HStem: 6 8<6 10>
VStem: 4 8<8 12>
LayerCount: 2
Fore
SplineSet
4 8 m 5
 4 12 l 5
 6 14 l 5
 10 14 l 5
 12 12 l 5
 12 8 l 5
 10 6 l 5
 6 6 l 5
 4 8 l 5
EndSplineSet
Validated: 1
EndChar

StartChar: invbullet
Encoding: 9688 9688 681
Width: 16
Flags: W
VStem: 0 4<8 12> 12 4<8 12>
LayerCount: 2
Fore
SplineSet
0 26 m 25
 16 26 l 25
 16 -6 l 25
 0 -6 l 25
 0 26 l 25
4 8 m 5
 6 6 l 5
 10 6 l 5
 12 8 l 5
 12 12 l 5
 10 14 l 5
 6 14 l 5
 4 12 l 5
 4 8 l 5
EndSplineSet
Validated: 1
EndChar

StartChar: invcircle
Encoding: 9689 9689 682
Width: 16
HStem: -6 20G<4 12>
VStem: 0 2<7 13> 14 2<7 13>
LayerCount: 2
Fore
SplineSet
2 13 m 5
 2 7 l 5
 5 4 l 5
 11 4 l 5
 14 7 l 5
 14 13 l 5
 11 16 l 5
 5 16 l 5
 2 13 l 5
4 8 m 5
 4 12 l 5
 6 14 l 5
 10 14 l 5
 12 12 l 5
 12 8 l 5
 10 6 l 5
 6 6 l 5
 4 8 l 5
0 26 m 25
 16 26 l 25
 16 -6 l 25
 0 -6 l 25
 0 26 l 25
EndSplineSet
Validated: 1
EndChar

StartChar: openbullet
Encoding: 9702 9702 683
Width: 16
Flags: W
HStem: 6 2<6 8> 10 2<6 8>
VStem: 4 2<8 10> 8 2<8 10>
LayerCount: 2
Fore
SplineSet
8 10 m 25
 6 10 l 25
 6 8 l 25
 8 8 l 25
 8 10 l 25
6 12 m 1
 8 12 l 1
 10 10 l 1
 10 8 l 1
 8 6 l 1
 6 6 l 1
 4 8 l 5
 4 10 l 1
 6 12 l 1
EndSplineSet
Validated: 1
EndChar

StartChar: smileface
Encoding: 9786 9786 684
Width: 16
HStem: 4 2<2 6 8 12> 12 2<4 6 8 10>
VStem: 0 2<6 16> 4 2<12 14> 8 2<12 14> 12 2<6 16>
LayerCount: 2
Fore
SplineSet
0 6 m 5
 0 16 l 5
 2 18 l 5
 12 18 l 5
 14 16 l 5
 14 6 l 5
 12 4 l 5
 2 4 l 5
 0 6 l 5
12 16 m 5
 2 16 l 5
 2 6 l 5
 6 6 l 5
 4 8 l 5
 4 10 l 5
 10 10 l 5
 10 8 l 5
 8 6 l 5
 12 6 l 5
 12 16 l 5
4 14 m 5
 6 14 l 5
 6 12 l 5
 4 12 l 5
 4 14 l 5
8 14 m 5
 10 14 l 5
 10 12 l 5
 8 12 l 5
 8 14 l 5
EndSplineSet
Validated: 1
EndChar

StartChar: invsmileface
Encoding: 9787 9787 685
Width: 16
Flags: W
HStem: 4 2<6 8> 10 2<4 6 8 10> 14 4<4 6 8 10>
VStem: 0 4<8 10 12 14> 10 4<8 10 12 14>
LayerCount: 2
Fore
SplineSet
10 10 m 25
 4 10 l 25
 4 8 l 25
 6 6 l 25
 8 6 l 25
 10 8 l 25
 10 10 l 25
10 14 m 25
 8 14 l 25
 8 12 l 25
 10 12 l 25
 10 14 l 25
0 6 m 1
 0 16 l 1
 2 18 l 1
 12 18 l 1
 14 16 l 1
 14 6 l 1
 12 4 l 1
 2 4 l 1
 0 6 l 1
6 12 m 1
 6 14 l 1
 4 14 l 1
 4 12 l 1
 6 12 l 1
EndSplineSet
Validated: 1
EndChar

StartChar: sun
Encoding: 9788 9788 686
Width: 16
Flags: HM
HStem: 6 2<4 6 8 10> 10 2<0 2 12 14> 14 2<4 6 8 10>
VStem: 2 2<8 10 12 14> 6 2<4 6 16 18> 10 2<8 10 12 14>
CounterMasks: 1 fc
LayerCount: 2
Fore
SplineSet
10 14 m 25
 4 14 l 25
 4 8 l 25
 10 8 l 25
 10 14 l 25
0 12 m 1
 2 12 l 1
 2 15 l 1
 0 17 l 1
 0 18 l 1
 1 18 l 1
 3 16 l 1
 6 16 l 1
 6 18 l 1
 8 18 l 1
 8 16 l 1
 11 16 l 1
 13 18 l 25
 14 18 l 25
 14 17 l 1
 12 15 l 1
 12 12 l 1
 14 12 l 1
 14 10 l 1
 12 10 l 1
 12 7 l 1
 14 5 l 1
 14 4 l 1
 13 4 l 1
 11 6 l 1
 8 6 l 1
 8 4 l 1
 6 4 l 1
 6 6 l 1
 3 6 l 1
 1 4 l 1
 0 4 l 1
 0 5 l 1
 2 7 l 1
 2 10 l 1
 0 10 l 1
 0 12 l 1
EndSplineSet
Validated: 1
EndChar

StartChar: female
Encoding: 9792 9792 687
Width: 16
HStem: 6 2<4 6 8 10> 10 2<4 6 8 10>
VStem: 2 2<12 16> 6 2<4 6 8 10>
LayerCount: 2
Fore
SplineSet
10 16 m 29
 4 16 l 25
 4 12 l 25
 10 12 l 25
 10 16 l 29
6 4 m 1
 6 6 l 25
 4 6 l 25
 4 8 l 25
 6 8 l 25
 6 10 l 25
 4 10 l 25
 2 12 l 25
 2 16 l 25
 4 18 l 1
 10 18 l 1
 12 16 l 1
 12 12 l 1
 10 10 l 1
 8 10 l 1
 8 8 l 1
 10 8 l 1
 10 6 l 1
 8 6 l 1
 8 4 l 1
 6 4 l 1
EndSplineSet
Validated: 1
EndChar

StartChar: male
Encoding: 9794 9794 688
Width: 16
HStem: 4 2<2 6> 10 2<2 6> 16 2<6 11>
VStem: 0 2<6 10> 6 2<6 10> 12 2<10 15>
CounterMasks: 1 fc
LayerCount: 2
Fore
SplineSet
6 10 m 25
 2 10 l 25
 2 6 l 25
 6 6 l 25
 6 10 l 25
0 10 m 1
 2 12 l 1
 7 12 l 1
 11 16 l 1
 6 16 l 1
 6 18 l 1
 14 18 l 1
 14 10 l 1
 12 10 l 1
 12 15 l 1
 8 11 l 1
 8 6 l 1
 6 4 l 5
 2 4 l 1
 0 6 l 1
 0 10 l 1
EndSplineSet
Validated: 1
EndChar

StartChar: spade
Encoding: 9824 9824 689
Width: 16
HStem: 4 2<4 6 8 10>
VStem: 6 2<6 8>
LayerCount: 2
Fore
SplineSet
4 4 m 29
 4 6 l 29
 6 6 l 5
 6 8 l 5
 2 8 l 5
 0 10 l 5
 0 12 l 5
 7 18 l 29
 14 12 l 29
 14 10 l 5
 12 8 l 5
 8 8 l 5
 8 6 l 5
 10 6 l 29
 10 4 l 29
 4 4 l 29
EndSplineSet
Validated: 1
EndChar

StartChar: club
Encoding: 9827 9827 690
Width: 16
Flags: MW
HStem: 4 2<4 6 8 10> 10 2<5 6 8 9>
VStem: 6 2<6 10 12 13>
LayerCount: 2
Fore
SplineSet
4 4 m 25
 4 6 l 25
 6 6 l 1
 6 10 l 1
 5 10 l 1
 3 8 l 1
 2 8 l 1
 0 10 l 1
 0 12 l 1
 2 14 l 1
 3 14 l 1
 5 12 l 1
 6 12 l 1
 6 13 l 1
 4 15 l 1
 4 16 l 1
 6 18 l 1
 8 18 l 1
 10 16 l 1
 10 15 l 1
 8 13 l 1
 8 12 l 1
 9 12 l 1
 11 14 l 1
 12 14 l 1
 14 12 l 1
 14 10 l 1
 12 8 l 1
 11 8 l 1
 9 10 l 1
 8 10 l 1
 8 6 l 1
 10 6 l 25
 10 4 l 25
 4 4 l 25
EndSplineSet
Validated: 1
EndChar

StartChar: heart
Encoding: 9829 9829 691
Width: 16
LayerCount: 2
Fore
SplineSet
7 4 m 1
 0 10 l 1
 0 15 l 5
 3 18 l 1
 5 18 l 1
 7 16 l 1
 9 18 l 1
 11 18 l 1
 14 15 l 1
 14 10 l 1
 7 4 l 1
EndSplineSet
Validated: 1
EndChar

StartChar: diamond
Encoding: 9830 9830 692
Width: 16
LayerCount: 2
Fore
SplineSet
0 11 m 29
 7 18 l 25
 14 11 l 25
 7 4 l 25
 0 11 l 29
EndSplineSet
Validated: 1
EndChar

StartChar: musicalnote
Encoding: 9834 9834 693
Width: 16
Flags: HM
VStem: 6 2<8 16>
LayerCount: 2
Fore
SplineSet
0 3 m 1
 0 5 l 1
 3 8 l 1
 6 8 l 1
 6 22 l 1
 9 22 l 1
 14 17 l 1
 14 14 l 1
 12 14 l 1
 12 16 l 1
 8 16 l 1
 8 3 l 5
 5 0 l 1
 3 0 l 1
 0 3 l 1
EndSplineSet
Validated: 1
EndChar

StartChar: musicalnotedbl
Encoding: 9835 9835 694
Width: 16
Flags: M
HStem: 18 4<6 12>
VStem: 4 2<6 18> 12 2<6 18>
LayerCount: 2
Fore
SplineSet
0 4 m 1
 2 6 l 1
 4 6 l 1
 4 22 l 1
 14 22 l 1
 14 0 l 1
 10 0 l 25
 8 2 l 1
 8 4 l 1
 10 6 l 1
 12 6 l 5
 12 18 l 1
 6 18 l 1
 6 0 l 1
 2 0 l 1
 0 2 l 1
 0 4 l 1
EndSplineSet
Validated: 1
EndChar
